<?xml version="1.0" standalone="no"?>
<!DOCTYPE svg PUBLIC "-//W3C//DTD SVG 1.1//EN" "http://www.w3.org/Graphics/SVG/1.1/DTD/svg11.dtd" >
<svg xmlns="http://www.w3.org/2000/svg" xmlns:xlink="http://www.w3.org/1999/xlink" version="1.1">
<metadata>
Created by FontForge 20181214 at Thu Feb 15 18:58:29 2007
 By convertio
Copyright 2003-04 Apple Computer, Inc.
</metadata>
<defs>
<font id="Chalkboard-Bold" horiz-adv-x="505" >
  <font-face 
    font-family="Chalkboard"
    font-weight="700"
    font-stretch="normal"
    units-per-em="905"
    panose-1="3 5 6 2 4 2 2 2 2 5"
    ascent="724"
    descent="-181"
    x-height="451"
    cap-height="623.5"
    bbox="-145.783 -556.5 1822.92 1226.34"
    underline-thickness="20"
    underline-position="-143"
    unicode-range="U+0020-FB02"
  />
<missing-glyph horiz-adv-x="540" 
d="M63 1v800q6 5 11.5 9.5t11.5 9.5h375q8 -9 17 -17v-800q-5 -6 -9.5 -12t-9.5 -11h-375zM165 83h210v635h-210v-635z" />
    <glyph glyph-name="fi" unicode="fi" horiz-adv-x="614" 
d="M248 27q-1 -32 -18.5 -49t-38.5 -18t-40 14.5t-23 48.5v264h-11q-33 4 -48.5 23t-14.5 40t18 38.5t49 18.5h7v88q0 36 12.5 70t35 61t54.5 43t70 16q9 0 22.5 -1.5l27 -3t26.5 -4.5t21 -6q26 -11 48 -27t41 -36q19 -26 16 -50t-19 -37.5t-40.5 -13t-47.5 23.5
q-8 9 -23 17t-32 12.5t-34 5t-29 -5.5q-14 -6 -19 -16.5t-10 -20.5v-115h217q23 -8 34 -19t19 -34v-327q-1 -32 -18.5 -49t-38.5 -18t-40 14.5t-23 48.5v264h-150v-260v0z" />
    <glyph glyph-name="fl" unicode="fl" horiz-adv-x="632" 
d="M339 417q27 -8 40.5 -25.5t12.5 -36.5t-15 -35.5t-42 -22.5h-106q0 -52 0.5 -112.5t0.5 -147.5q-1 -32 -18.5 -49t-38.5 -18t-40 14.5t-23 48.5v264h-11q-33 4 -48.5 23t-14.5 40t18 38.5t49 18.5h7v48v30.5t1 41.5q10 47 37 79.5t64.5 51.5t82 25t89 0t85.5 -24t72 -47
q5 -5 9 -12t9 -23v-520q1 0 3 -2q27 -19 31.5 -43t-6 -42t-34 -25t-52.5 7q-9 6 -18.5 12t-18.5 12q-13 13 -18 23t-7 29v513q-16 11 -40 18t-49.5 9t-49 -1t-38.5 -13q-8 -5 -19.5 -17.5t-13.5 -23.5v-106h110v0z" />
    <glyph glyph-name=".notdef" horiz-adv-x="540" 
d="M63 1v800q6 5 11.5 9.5t11.5 9.5h375q8 -9 17 -17v-800q-5 -6 -9.5 -12t-9.5 -11h-375zM165 83h210v635h-210v-635z" />
    <glyph glyph-name=".null" horiz-adv-x="0" 
 />
    <glyph glyph-name=".null" horiz-adv-x="0" 
 />
    <glyph glyph-name="nonmarkingreturn" horiz-adv-x="395" 
 />
    <glyph glyph-name="space" unicode=" " horiz-adv-x="375" 
 />
    <glyph glyph-name="RS" horiz-adv-x="395" 
 />
    <glyph glyph-name="exclam" unicode="!" horiz-adv-x="271" 
d="M65 22q3 24 14.5 40.5t28 24.5t34.5 8.5t34 -7.5t26.5 -24t11.5 -40q2 -36 -20 -55.5t-49 -20.5t-51.5 17t-28.5 57zM75 574q9 24 25 37.5t33.5 14.5t34 -10.5t26.5 -36.5q2 -52 3.5 -98t2 -89t-0.5 -85t-3 -86q-1 -31 -20.5 -46.5t-42 -14.5t-41 17t-18.5 46v345z" />
    <glyph glyph-name="quotedbl" unicode="&#x22;" horiz-adv-x="450" 
d="M185 512q0 -33 -18.5 -49t-41 -16t-41.5 16t-19 49v126q0 33 19 49t41.5 16t41 -16t18.5 -49v-126zM372 509q0 -32 -18.5 -48t-41 -16t-41 16t-18.5 48v126q0 33 18.5 49t41 16t41 -16t18.5 -49v-126z" />
    <glyph glyph-name="numbersign" unicode="#" horiz-adv-x="762" 
d="M478 581q7 20 21.5 33.5t31 18t33 -2.5t26.5 -28q7 -15 7.5 -35t-2 -40t-6.5 -39.5t-6 -33.5q18 0 33 1.5t28 1.5t26 -2t26 -9q21 -12 28.5 -28.5t4.5 -33t-16.5 -30.5t-34.5 -21q-26 -8 -54.5 -4.5t-57.5 3.5q-2 -21 -6 -52.5t-8 -52.5q18 0 33 1.5t28.5 2t26.5 -1.5
t26 -10q21 -12 28.5 -28.5t4.5 -33t-16.5 -30.5t-34.5 -21q-27 -8 -55.5 -4.5t-57.5 3.5q-1 -10 -3 -31t-4.5 -43t-6 -41t-6.5 -26q-9 -19 -25.5 -30t-34 -12t-32.5 9t-22 33q-4 13 -3.5 32t3.5 38.5t6.5 38t5.5 32.5h-128q-5 -34 -9.5 -67.5t-9.5 -67.5q-3 -20 -16.5 -31.5
t-30.5 -15t-33.5 2t-27.5 20.5q-10 14 -11.5 35t1 43.5t7 44t6.5 36.5q-26 0 -48.5 -1.5t-46.5 6.5q-16 5 -26.5 19t-13 30t3.5 31.5t22 24.5q12 7 27.5 10t32.5 4.5t34 1t32 -1.5q1 10 2.5 23.5t3.5 27l4 27t3 23.5q-23 -1 -47 -0.5t-44 7.5q-16 5 -26.5 19t-13 30
t3.5 31.5t22 24.5q13 8 28.5 10.5t32 3t32.5 -0.5t29 -1q5 35 7 71.5t16 69.5q7 17 21.5 26t30.5 10.5t31.5 -6t23.5 -24.5q8 -16 8.5 -36t-2.5 -40.5t-7 -39t-6 -31.5h130q5 30 8 60.5t8 60.5zM314 332l-7.5 -52.5t-6.5 -52.5h130q3 21 7 52t7 53h-130v0z" />
    <glyph glyph-name="dollar" unicode="$" horiz-adv-x="564" 
d="M74 92q-9 15 -10.5 32.5t5.5 32t21 23t36 5.5q12 -1 21.5 -7t18.5 -14t17.5 -16t17.5 -14q5 -3 12 -6.5t12 -5.5q0 35 0.5 75.5t0.5 75.5q-43 20 -84 45t-66 67q-23 39 -16.5 77.5t31.5 71t62 55t74 28.5v26.5t1.5 28.5t6 27t13.5 23q10 12 23 15.5t25 0.5t22.5 -11.5
t16.5 -22.5q9 -22 9 -45v-46q28 -7 58 -17t52 -30q14 -12 21.5 -27.5t6.5 -29.5t-11.5 -25.5t-32.5 -15.5q-13 -2 -25 0t-23.5 6.5t-23 9.5t-23.5 9v-71t-1 -71q44 -17 82.5 -36t69.5 -55q17 -20 24 -48t4.5 -57t-14 -55.5t-31.5 -43.5q-30 -26 -64 -41t-72 -24
q0 -14 0.5 -33t-2.5 -34q-3 -16 -15 -27.5t-27.5 -16t-31.5 -0.5t-27 19q-15 20 -14.5 47t0.5 50q-45 11 -83 36t-67 60zM360 114q29 13 38 27t4 28t-21 27t-39 25q0 -26 -0.5 -57t-0.5 -57q5 2 9.5 3.5t9.5 3.5zM170 463q1 -9 3 -16t8 -14t16.5 -15.5t28.5 -20.5v99
q-26 0 -38.5 -11t-17.5 -22z" />
    <glyph glyph-name="percent" unicode="%" horiz-adv-x="774" 
d="M576 690q20 20 41.5 21t38 -10.5t23.5 -33t-4 -46.5q-4 -9 -10 -16t-12 -15q-16 -23 -27 -38.5t-21.5 -30t-22 -31.5t-29.5 -43q-63 -91 -125 -180.5t-125 -179.5q-13 -19 -25.5 -37.5t-26.5 -36.5q-10 -14 -21 -29t-24.5 -25t-29 -13t-35.5 8q-25 14 -28.5 33.5t5 40
t23 40t24.5 33.5q14 20 28 40.5t28 40.5q89 128 176.5 254t178.5 254zM43 542q6 41 22 77.5t54 59.5q41 26 85 26.5t81 -19t61.5 -55.5t27.5 -84q2 -41 -16.5 -77t-50 -60t-71 -33t-78.5 3q-54 17 -80 60t-34 95zM423 110q5 34 16.5 67t41.5 55q41 30 86.5 35t85 -11.5
t66.5 -52.5t30 -88q2 -45 -18 -81t-53.5 -58.5t-75 -28t-81.5 10.5q-45 18 -68 59t-29 86zM182 592q-13 -6 -20 -19.5t-10 -28.5q6 -30 23 -44.5t35.5 -14t33.5 15.5t16 43q0 14 -7.5 25.5t-19.5 18t-25.5 8.5t-25.5 -4zM548 143q-8 -15 -11 -31t8 -30q7 -15 20.5 -21.5
t27.5 -6t26.5 9.5t16.5 25q6 22 -1.5 39t-22 25.5t-32.5 6.5t-32 -17z" />
    <glyph glyph-name="ampersand" unicode="&#x26;" horiz-adv-x="681" 
d="M621 92q25 -15 31 -37.5t-2 -42t-28.5 -30t-48.5 -2.5q8 -3 4.5 -2t-12 4t-18.5 6.5t-14 5.5q-23 9 -44.5 21.5t-42.5 25.5q-21 -19 -46 -35.5t-52 -27.5t-56 -14.5t-59 2.5q-52 11 -92.5 39.5t-63 68.5t-24.5 88.5t23 98.5q14 26 35.5 45.5t45.5 36.5q-12 21 -22 43.5
t-17 45.5q-6 20 -7 39t1 39q2 12 7.5 23t10.5 22q18 33 48 51.5t64 23.5t68.5 -3.5t61.5 -28.5t43.5 -51.5t14.5 -72.5q-2 -23 -6.5 -43.5t-15.5 -40.5q-23 -48 -70 -81q23 -26 45.5 -53t48.5 -52q17 22 32.5 45t30.5 46q8 12 17 31t23 30q17 14 36 14t34 -9.5t23 -27
t3 -38.5q-11 -44 -41.5 -86t-60.5 -77q23 -12 45 -22t47 -18zM307 92q11 5 21 11.5t20 13.5q-32 30 -62 61.5t-58 66.5q-15 -10 -30 -21.5t-21 -30.5q-9 -28 1.5 -51t31 -37.5t47 -18.5t50.5 6zM238 457q2 -14 8.5 -28t14.5 -26q12 8 27.5 20.5t22.5 26.5q10 21 7.5 36
t-11.5 23.5t-22 10t-24.5 -4.5t-18.5 -20.5t-4 -37.5z" />
    <glyph glyph-name="quotesingle" unicode="'" horiz-adv-x="215" 
d="M166 499q0 -28 -17.5 -47.5t-44.5 -19.5q-26 0 -43.5 19.5t-17.5 46.5v138q0 28 18 47.5t45 19.5q26 0 43 -19.5t17 -46.5v-138z" />
    <glyph glyph-name="parenleft" unicode="(" horiz-adv-x="325" 
d="M284 -73q14 -27 10 -54.5t-36 -40.5q-30 -11 -57.5 6t-49.5 46t-38 61t-24 52q-51 118 -55 245.5t33 248.5q9 31 24 58.5t30 55.5l22.5 40t31.5 43t39.5 27t46.5 -7q24 -15 26 -35.5t-7.5 -42t-24 -41.5t-23.5 -34q-13 -23 -21.5 -39t-14 -27t-8.5 -19.5t-5 -16.5
q-15 -52 -22 -111.5t-4 -119.5t18 -117.5t44 -105.5q5 -9 13 -18.5t14.5 -17t10.5 -12t2 -2.5z" />
    <glyph glyph-name="parenright" unicode=")" horiz-adv-x="325" 
d="M60 -60l14.5 14.5l13 13t12.5 14.5t13 19q29 47 44 107t18 123.5t-5 125t-27 112.5q-13 35 -32.5 66t-39.5 61q-9 13 -17.5 25.5t-9.5 29.5q-1 26 12.5 43t32.5 21.5t39 -3.5t32 -31q22 -31 42 -63t37 -65q28 -54 42.5 -117t17 -129t-6.5 -130.5t-27 -120.5
q-16 -48 -38.5 -96.5t-57.5 -85.5q-15 -16 -34 -30t-42 -14q-21 0 -34.5 9t-19 23t-3.5 30.5t10 32.5z" />
    <glyph glyph-name="asterisk" unicode="*" horiz-adv-x="491" 
d="M59 574q-12 14 -16 33.5t1 36.5t19 27.5t37 7.5q24 -4 45 -18.5t38 -31.5q2 11 3.5 22t1.5 12q4 20 9 41t19 37q11 13 27 17.5t31 1t27 -14.5t15 -29q5 -29 0 -56.5t-14 -54.5q3 2 7.5 4.5t9.5 5.5q14 8 28.5 15.5t30.5 12.5q18 5 35.5 -1t28.5 -19t13.5 -30t-8.5 -35
q-5 -8 -16.5 -18t-26.5 -20t-32 -19t-32 -15q21 -24 35 -46q9 -14 7.5 -31t-10 -31t-22.5 -22t-32 -4q-26 5 -52 28.5t-43 49.5q-20 -25 -49.5 -46t-57.5 -23q-23 -2 -38 8.5t-21 27t-2.5 35.5t16.5 34q12 14 26.5 26t28.5 23z" />
    <glyph glyph-name="plus" unicode="+" horiz-adv-x="528" 
d="M97 147q-19 5 -34 18.5t-21 30t-1 33t26 27.5q13 7 31 9.5t36 3t35 -0.5t28 0q2 10 1 31.5t-1.5 45.5t2 47t11.5 36q9 14 22 20.5t27 6t27 -7.5t22 -21q4 -5 7.5 -12t3.5 -13q1 -34 0.5 -67t-0.5 -66q29 0 58 0.5t58 -0.5q6 0 13 -3.5t12 -7.5q27 -19 28.5 -48.5
t-26.5 -49.5q-13 -9 -33 -12t-40.5 -3t-39.5 1t-30 1q-1 -7 0 -27.5t1 -46t-2.5 -51.5t-10.5 -44q-10 -21 -28.5 -26t-36.5 2t-31.5 23.5t-13.5 37.5v132z" />
    <glyph glyph-name="comma" unicode="," horiz-adv-x="271" 
d="M119 101q12 20 30 27t36 3.5t31.5 -17.5t15.5 -37q2 -16 -5.5 -30t-13.5 -28q-15 -33 -30.5 -66.5t-33.5 -64.5q-11 -19 -29 -25.5t-36 -2.5t-31.5 18t-14.5 36z" />
    <glyph glyph-name="hyphen" unicode="-" horiz-adv-x="471" 
d="M100 142q-21 5 -36 19t-19.5 31t2.5 34t29 29q18 10 42.5 9.5t44.5 -0.5q107 2 216 0q6 0 13 -3.5t12 -7.5q14 -9 21 -22.5t7.5 -27t-6 -26.5t-20.5 -22q-16 -10 -40.5 -13t-49.5 -3t-46 1.5t-29 1.5h-141z" />
    <glyph glyph-name="period" unicode="." horiz-adv-x="307" 
d="M236 55q0 -25 -11.5 -42.5t-28.5 -26.5t-37.5 -9.5t-38.5 7t-30.5 23.5t-14.5 41q-2 26 9.5 43.5t29.5 26.5t39 9.5t39.5 -7t31 -24t12.5 -41.5z" />
    <glyph glyph-name="slash" unicode="/" horiz-adv-x="533" 
d="M366 695q12 20 30 27t36 3.5t31.5 -17.5t15.5 -37q1 -12 -4 -27.5t-11.5 -31t-13.5 -28.5t-9 -18q-15 -35 -30 -69.5t-30 -69.5q-53 -123 -105.5 -244.5t-106.5 -242.5q-8 -18 -25.5 -25.5t-36 -3.5t-33 17.5t-16.5 37.5q-2 27 9.5 49t22.5 48q15 35 30 69.5t30 69.5
q4 9 12.5 28t18.5 42t20.5 47.5t19.5 44.5t14.5 33.5l5.5 13.5q31 70 61 139.5t60 138.5z" />
    <glyph glyph-name="zero" unicode="0" horiz-adv-x="555" 
d="M402 262q6 30 5 71t-13.5 79t-38 64t-69.5 26q-48 0 -77 -31t-43.5 -75.5t-17.5 -92t2 -80.5q3 -22 10.5 -46t19.5 -44t30.5 -32t44.5 -11q36 2 60.5 16.5t41.5 37t27.5 52t16.5 61.5zM517 242q-13 -73 -50 -139.5t-103 -107.5q-33 -16 -70 -21t-73 1t-68 24.5t-55 49.5
q-50 68 -64.5 141t-1.5 154q9 57 31.5 113t63.5 98q33 34 73 51.5t81.5 18.5t82 -15t74.5 -48t53.5 -70.5t27.5 -79.5t7 -84.5t-9 -85.5z" />
    <glyph glyph-name="one" unicode="1" horiz-adv-x="376" 
d="M273 96q20 -6 35 -23t20.5 -35.5t-2 -35t-32.5 -20.5q-48 -8 -99 -7.5t-96 1.5q-31 0 -42.5 19t-7 41.5t24.5 41t51 18.5v364q-13 -3 -26 1.5t-23 13.5t-15.5 21.5t-3.5 25.5q3 22 22.5 45t45.5 38t53.5 18t47.5 -14q8 -6 14.5 -17t6.5 -20q1 -120 0.5 -238.5
t-0.5 -237.5h26v0z" />
    <glyph glyph-name="two" unicode="2" horiz-adv-x="555" 
d="M343 470q-17 35 -43 36.5t-59 -20.5q-16 -10 -34.5 -28t-38.5 -30t-40.5 -12t-40.5 25q-17 21 -12.5 43t19.5 41.5t35.5 35.5t34.5 26q33 24 72 36.5t77.5 10.5t72 -21.5t55.5 -60.5q21 -39 27 -79t-3 -78t-31.5 -72t-58.5 -60q-22 -16 -48.5 -31t-51 -33t-43 -40
t-24.5 -53q11 0 32.5 -2t47 -3t53 1t49.5 9q-4 -4 -6 -5q15 15 28.5 27.5t37.5 10.5q17 -1 30.5 -11.5t20.5 -25.5t6.5 -32.5t-12.5 -31.5q-23 -28 -51 -47t-66 -19h-238q-23 0 -40 15t-22 37q-4 17 -0.5 34t5.5 34q6 41 18 74t31 60t45.5 49.5t61.5 43.5q16 9 39 24t42 34
t27.5 41.5t-4.5 46.5z" />
    <glyph glyph-name="three" unicode="3" horiz-adv-x="555" 
d="M92 49q-11 17 -13 35.5t5 34t22.5 24.5t37.5 7q24 -2 41 -16.5t34.5 -27t37.5 -17t49 13.5q7 5 12 10.5t10 11.5q6 8 9 13.5t6 14.5q6 17 8 32t0 32q-15 28 -37.5 37t-47 11.5t-48.5 5.5t-41 18q-15 13 -18.5 30t2 32.5t19 27.5t32.5 15q15 3 32.5 5.5t33.5 8t30 14.5
t23 24q1 11 0.5 21.5t-5.5 20.5q-10 9 -28.5 12.5t-39 3t-38.5 -4.5t-29 -9q-24 -24 -49 -22.5t-42 17.5t-21 40t14 43q14 16 31.5 25.5t38.5 15.5q51 14 106.5 14.5t103.5 -24.5q39 -20 58.5 -53t22 -70t-11.5 -73.5t-43 -64.5q36 -25 54.5 -57.5t23 -67t-4 -70
t-28.5 -66.5t-49.5 -56.5t-66.5 -40.5q-32 -13 -63 -12t-60.5 11t-57 27.5t-51.5 38.5z" />
    <glyph glyph-name="four" unicode="4" horiz-adv-x="555" 
d="M426 15q-2 -21 -14.5 -37t-29 -23.5t-34 -3t-30.5 24.5q-8 13 -11 30t-3.5 35.5t0.5 35.5t0 30q-38 0 -78 0.5t-78 1.5h-25t-25.5 2.5t-23.5 8t-19 16.5q-13 19 -10.5 39.5t12 40.5t22.5 38t20 31q26 47 53.5 92.5t53.5 91.5q8 14 17 32t18.5 36t20.5 34.5t23 28.5
q15 14 32 17t32 -3t26 -19.5t13 -33.5q1 -12 -5 -27t-14 -29.5t-16 -26t-11 -16.5q-14 -25 -28 -49l-28 -48q-19 -34 -38 -67t-39 -66q25 -2 47.5 -2h45.5q1 27 0 53.5t5 51.5q5 21 21.5 32.5t35.5 12.5t35.5 -8.5t22.5 -31.5q4 -15 5 -31.5t0.5 -32.5t-1 -28.5t-0.5 -18.5
q13 0 24.5 1.5t23.5 -3.5q15 -6 27.5 -17.5t18.5 -25.5t3.5 -29t-17.5 -29q-18 -17 -37 -19t-43 -2v-90v0z" />
    <glyph glyph-name="five" unicode="5" horiz-adv-x="555" 
d="M99 29q-15 17 -18 37t4.5 36.5t24.5 27t41 8.5q13 -2 25.5 -9.5t23.5 -13.5q15 -8 34.5 -13.5t36.5 -3.5q22 2 41 8t36 21q20 19 27 42q14 39 0 64t-41 37t-61 13.5t-62 -6.5l-6 -6t-6 -5q-12 -12 -27 -15t-29 0.5t-25.5 14t-16.5 26.5q-7 20 -6.5 42.5t-0.5 42.5
q-1 15 -1 30.5t-1 31.5v13.5t-0.5 22t-1 22.5t-0.5 16q-9 10 -12.5 23t-2 26t8 24.5t18.5 19.5q17 12 38.5 12h41.5q12 0 38 0.5t53.5 1t51 1t29.5 0.5q26 1 43 3.5t37 -5.5q18 -6 28.5 -20t12.5 -30.5t-4 -32.5t-22 -27q-21 -15 -48.5 -15h-50.5q-34 -1 -67.5 -0.5
t-67.5 -0.5q0 -22 0.5 -43.5t1.5 -43.5q24 5 49 6t49 -3q27 -5 51 -15t48 -25q29 -18 49 -46t32 -60q15 -40 12.5 -78.5t-18.5 -73t-43.5 -63t-61.5 -47t-72.5 -26.5t-77.5 -1q-69 12 -131 51z" />
    <glyph glyph-name="six" unicode="6" horiz-adv-x="555" 
d="M358 542q-40 -36 -70.5 -77.5t-56.5 -88.5q20 8 41 12t44 3q32 -2 58 -9t55 -22q38 -21 57.5 -57.5t23.5 -78.5t-6 -84t-30 -74q-27 -43 -74 -62t-95 -20q-50 -2 -97 19q-54 23 -89 74q-37 53 -44.5 112.5t4.5 118.5t40 115.5t63 104.5q20 28 44.5 57.5t53.5 49.5
q24 17 47 12.5t37 -21t14.5 -40t-20.5 -44.5zM203 207q-2 -4 -8 -10l3 -9t4 -11t2.5 -7t-2.5 3q6 -13 18 -25.5t23 -20.5q8 -6 17.5 -11t20.5 -7q20 -3 40 -1t38 15q14 9 21.5 26.5t8.5 37t-5 38t-19 28.5q-14 11 -30.5 14t-33.5 1q-27 -3 -47 -16q-15 -8 -27.5 -20
t-23.5 -25z" />
    <glyph glyph-name="seven" unicode="7" horiz-adv-x="555" 
d="M277 0q-7 -18 -21 -28.5t-29.5 -13t-31 4t-26.5 23.5q-13 19 -9.5 42.5t6.5 42.5q19 113 60 221t107 202h-246q-27 0 -43 15t-19 35.5t7.5 40t36.5 28.5q11 3 23 3q94 0 186.5 0.5t186.5 -0.5q18 0 34 -17t18 -34q2 -30 -15 -50t-34 -41q-18 -24 -34 -49.5t-31 -51.5
q-49 -87 -80 -177.5t-43 -189.5z" />
    <glyph glyph-name="eight" unicode="8" horiz-adv-x="555" 
d="M66 125q-1 15 0 35q0 26 10 49t25.5 43t35 37t40.5 30q-18 16 -33.5 34t-27.5 41q-33 58 -24.5 104.5t42 78.5t85 48.5t104 14.5t99 -23.5t70.5 -65.5q10 -18 11 -39t0 -40q-1 -20 -7 -39t-16 -36q-15 -26 -38 -45.5t-47 -36.5q24 -18 50.5 -37.5t43.5 -45.5
q26 -40 29 -78t-11.5 -71t-44 -60t-70.5 -45q-34 -15 -75 -20t-81.5 1t-76.5 23.5t-61 47.5q-17 20 -23.5 45t-8.5 50zM281 247q-26 -17 -47.5 -35.5t-38.5 -44.5q0 -2 -3 -6.5t-3 -22.5q0 -5 0.5 -11t3.5 -14q18 -26 48.5 -35t61.5 -3.5t56 24.5t34 49q-4 17 -17 31.5
t-29.5 26.5t-34 22.5t-31.5 18.5zM216 483q-2 -6 -0.5 -11t3.5 -11q14 -22 32 -40t39 -35q24 16 46 34.5t39 43.5q4 11 5 16t-3 18q-15 15 -37 20.5t-45.5 4t-44.5 -11t-33 -24.5q-1 -2 -1 -4z" />
    <glyph glyph-name="nine" unicode="9" horiz-adv-x="555" 
d="M230 -47q-18 -8 -34.5 -3.5t-28.5 16.5t-17 29t1 34q5 12 14 20.5t19.5 14.5t21.5 11.5t21 12.5q33 23 62 52.5t49 64.5q-30 -6 -62.5 -7t-64 5.5t-59 21.5t-48.5 40q-15 18 -26.5 37t-18.5 41q-13 42 -7 86t27.5 82t55.5 66.5t76 39.5q37 9 74.5 9.5t72.5 -10
t64.5 -32.5t49.5 -58q13 -22 20 -48t10 -52.5t2.5 -53t-3.5 -51.5q-7 -66 -29.5 -120t-57.5 -99t-81 -81.5t-102 -67.5h-1zM190 351q29 -26 61 -31t70 6q8 2 19 7.5t21 11.5t17 10t5 3q0 -2 -0.5 5t-1.5 17.5t-2 21.5t-2 17q-2 14 -5.5 27t-10.5 24q-17 27 -41.5 35.5t-50 3
t-48.5 -21.5t-36.5 -38.5t-14 -48t19.5 -49.5z" />
    <glyph glyph-name="colon" unicode=":" horiz-adv-x="298" 
d="M223 362q0 -39 -23 -59.5t-51.5 -22t-53 17t-27.5 57.5q-2 26 8.5 43.5t28 27t38 10.5t38.5 -7t30 -24.5t12 -42.5zM225 58q0 -39 -23.5 -59.5t-52.5 -21.5t-53.5 17t-27.5 57q-3 40 21 60.5t54.5 22t56 -17.5t25.5 -58z" />
    <glyph glyph-name="semicolon" unicode=";" horiz-adv-x="368" 
d="M308 362q0 -25 -11 -42.5t-28 -27t-37 -10t-37.5 7t-30 24t-14.5 41.5q-2 24 9 41t28.5 25.5t38.5 9.5t39.5 -6.5t30.5 -23t12 -39.5zM175 131q12 20 30 27t36 3.5t31.5 -17.5t15.5 -37q2 -16 -5.5 -30t-13.5 -28q-15 -33 -30.5 -66.5t-33.5 -64.5q-11 -19 -29 -25.5
t-36 -2.5t-31.5 18t-14.5 36q-1 15 8.5 39.5t22 51.5t26 51.5t20.5 38.5z" />
    <glyph glyph-name="less" unicode="&#x3c;" horiz-adv-x="425" 
d="M382 74q12 -18 12 -37.5t-10 -34t-27.5 -21.5t-40.5 -1q-18 5 -33 17t-30 23q-35 26 -69 52t-69 52q-10 8 -24.5 17t-27.5 20.5t-21 25.5t-6 31q4 26 21.5 40.5t37.5 29.5q34 26 67.5 53t67.5 54q20 16 40.5 35t46.5 26q21 5 37 -2t25 -21t10.5 -32t-7.5 -35
q-5 -10 -14.5 -19.5t-21 -18t-22 -15.5t-17.5 -12q-28 -22 -55.5 -43t-54.5 -43q47 -32 91.5 -67t89.5 -69z" />
    <glyph glyph-name="equal" unicode="=" horiz-adv-x="481" 
d="M461 302q0 -35 -22 -52.5t-54 -17.5h-264q-15 0 -30.5 4.5t-27 13.5t-17.5 22t-4 31q4 31 28.5 42.5t52.5 11.5h264q11 0 24 -3.5t24 -10t18.5 -17t7.5 -24.5zM463 122q0 -37 -19 -59t-58 -22h-266q-31 0 -51.5 15.5t-25.5 36t5.5 40.5t40.5 29q15 4 33 4h266q22 0 43 -8
t30 -30z" />
    <glyph glyph-name="greater" unicode="&#x3e;" horiz-adv-x="440" 
d="M67 82q45 33 88.5 67t88.5 66q-27 22 -54 43t-55 42q-7 5 -17.5 12t-21.5 15.5t-21 17.5t-15 19q-9 17 -8 35t9.5 32.5t24.5 22t37 2.5q18 -4 34 -17.5t30 -24.5l46 -36t46 -37q15 -12 21.5 -17t12 -9.5t13.5 -10.5t24 -19q19 -14 34.5 -27.5t20.5 -37.5q3 -17 -5 -31.5
t-20.5 -26t-27.5 -20.5t-25 -17q-35 -26 -69 -52t-69 -52q-15 -11 -30 -23.5t-33 -17.5q-25 -7 -43 0t-27 22t-8 35.5t14 40.5z" />
    <glyph glyph-name="question" unicode="?" horiz-adv-x="447" 
d="M254 246q13 -6 23.5 -14t18.5 -21q7 -13 5 -27.5t-9.5 -26.5t-20 -20t-26.5 -9q-24 -2 -46 8t-40 26q-21 18 -29 44q-10 32 -6 57.5t17.5 47t34.5 40t43 36.5q11 8 22.5 17t22 19t18 22t8.5 27q-6 25 -21 32.5t-33 4t-37 -15t-34 -23.5q-9 -7 -16.5 -16.5t-15.5 -18.5
t-17.5 -16t-21.5 -9q-20 -3 -37 5.5t-26.5 23.5t-9 33.5t14.5 35.5q25 30 54.5 54.5t62.5 41t70 23t77 -0.5q25 -5 44.5 -20.5t33.5 -37t22.5 -45.5t11.5 -46q2 -23 -5 -46.5t-20 -44.5t-30 -39t-35 -30q-13 -9 -28.5 -20t-27 -21.5t-16.5 -18.5t4 -11zM141 7
q4 36 27.5 54.5t50.5 19t49.5 -17.5t23.5 -54q1 -23 -9 -40t-25.5 -26.5t-35 -11t-36.5 6t-29.5 24.5t-15.5 45z" />
    <glyph glyph-name="at" unicode="@" horiz-adv-x="779" 
d="M251 358q11 24 24.5 43.5t33.5 38.5q12 12 25.5 21t28.5 17q14 7 28.5 9.5t29.5 4.5q42 2 69.5 -19.5t43.5 -54.5t20.5 -73t-0.5 -75q28 3 39 24t11.5 49.5t-6.5 59t-16 51.5q-17 42 -51 64.5t-74.5 28t-83 -5t-77.5 -33.5q-32 -21 -58.5 -52.5t-42.5 -65.5
q-12 -25 -17.5 -53.5t-5.5 -56.5q0 -26 2 -44.5t10 -42.5q21 -57 56.5 -91t77.5 -47t86 -7.5t81 26.5q21 12 49 26.5t56 18.5q24 2 43 -7.5t28 -25.5t6 -34.5t-22 -33.5q-27 -22 -61 -34.5t-67 -21.5q-37 -9 -77.5 -16t-81.5 -6.5t-80 10.5t-73 33q-23 16 -40.5 29.5
t-35.5 35.5q-44 52 -63 117.5t-15 132.5t30 130.5t72 111.5q29 30 65.5 56.5t78.5 37.5q55 14 112 15.5t109.5 -14t96.5 -48.5t73 -88q20 -37 29 -88t3 -100.5t-30.5 -91t-72.5 -59.5q-14 -5 -32 -7.5t-33 -3.5q-26 -1 -53 5q-25 -28 -56.5 -41.5t-63 -12t-60.5 19t-50 50.5
q-27 43 -29.5 92t11.5 96zM377 350q-8 -9 -13.5 -28t-5.5 -38.5t6 -36.5t20 -23q9 -1 20 2q15 12 24.5 32t12.5 41.5t-1 42t-16 32.5q-6 6 -13.5 4t-14.5 -7.5t-12 -12t-7 -8.5z" />
    <glyph glyph-name="A" unicode="A" horiz-adv-x="604" 
d="M577 29q-3 -22 -15 -37.5t-27.5 -21.5t-33 -1.5t-32.5 23.5q-13 16 -14.5 35.5t-5.5 38.5q-10 55 -29 113q-62 -1 -123 -1t-122 -1q-9 -26 -15.5 -53t-12.5 -53q-5 -20 -9 -41.5t-18 -37.5q-17 -20 -36.5 -22.5t-35 6.5t-25 27.5t-6.5 42.5q3 31 12 61t17 60
q45 172 116 333q6 14 12.5 27t12.5 26q7 14 14 30t16.5 29.5t22.5 23t32 9.5q25 0 42 -16q68 -68 112 -153.5t79 -174.5q21 1 41 0t36 -18q14 -14 16.5 -30t-3 -31t-18 -26t-30.5 -15q10 -35 17.5 -71.5t12.5 -73.5v-7zM373 301q-19 45 -40.5 89.5t-48.5 84.5
q-20 -44 -37.5 -87.5t-32.5 -88.5q47 1 82.5 1t76.5 1z" />
    <glyph glyph-name="B" unicode="B" horiz-adv-x="536" 
d="M134 -24q-43 5 -52.5 28.5t-0.5 51.5v406q-16 0 -28.5 8.5t-20 21.5t-7.5 28.5t9 28.5q20 30 51.5 47t65.5 28q53 17 106.5 19t105.5 -22q47 -22 74 -57t34 -74.5t-7 -81t-50 -77.5q47 -30 67 -71.5t16.5 -85.5t-28 -85t-66.5 -71q-25 -18 -58.5 -27.5t-69 -13.5
t-70.5 -4t-64 2zM347 230q-18 12 -35 18t-34.5 8t-35.5 1t-39 -2v-160q22 0 47 1.5t48 8t43 18.5t32 33q3 24 -1 41.5t-25 32.5zM203 384h36t35.5 3.5t34 11.5t29.5 23q19 21 13.5 44.5t-28.5 37.5q-26 17 -59 17.5t-61 -7.5v-130z" />
    <glyph glyph-name="C" unicode="C" horiz-adv-x="551" 
d="M417 176q16 16 36.5 18.5t37.5 -5.5t26.5 -25.5t4.5 -41.5q-6 -24 -23 -44.5t-34 -37.5q-39 -41 -86.5 -60.5t-96 -18.5t-95 23t-83.5 66q-22 26 -37 55t-23 61q-12 47 -11 98t16 99t42.5 90.5t67.5 72.5q29 22 58.5 38t62.5 30q19 8 39 15.5t41 11.5t42 3t41 -9
q14 -6 28 -16.5t26 -24t21 -28.5t13 -29q3 -13 1.5 -26.5t-8 -24.5t-17.5 -18.5t-25 -9.5q-23 -3 -35.5 5t-20 20t-14.5 23.5t-20 16.5q-8 0 -12 -1q-34 -9 -68.5 -24.5t-64 -37.5t-51.5 -51t-32 -65q-12 -43 -9 -87t24 -83q12 -23 32 -40t44 -25.5t49 -6t48 17.5
q20 14 36 34.5t29 41.5z" />
    <glyph glyph-name="D" unicode="D" horiz-adv-x="596" 
d="M134 -38q-26 5 -44.5 24t-18.5 47v421q-18 -3 -35 4.5t-27 20t-11.5 29t10.5 31.5q13 17 31 28.5t38 19t41.5 12.5t41.5 9q56 9 112 4.5t106 -24.5t91.5 -56t67.5 -90q16 -33 23 -68.5t8 -71.5q1 -47 -11 -91t-36 -82.5t-58 -68.5t-76 -50q-37 -17 -78.5 -25t-81.5 -14
q-20 -3 -42.5 -6.5t-43.5 -3.5zM242 493q-13 0 -24.5 -1t-24.5 -3v-401q6 0 10 1t8 1t7 1q14 2 23 3t17 2.5t16.5 3.5t19.5 5q58 15 91.5 47.5t50.5 89.5q11 33 10 67t-12.5 65t-33.5 56.5t-54 40.5q-26 12 -51.5 16t-52.5 6z" />
    <glyph glyph-name="E" unicode="E" horiz-adv-x="515" 
d="M411 124q18 -1 31.5 -9.5t22 -20.5t10 -27.5t-6.5 -31.5q-3 -7 -12.5 -16.5t-17.5 -11.5q-64 -19 -131.5 -23.5t-133.5 2.5q-19 2 -41.5 4t-39.5 13q-31 20 -31 57v426q-11 8 -18 20t-8.5 25.5t3.5 26t17 21.5q20 16 46 21.5t51 9.5q52 8 104 8t106 1q16 0 37 2.5
t37 -3.5q19 -7 30 -22t13 -32t-6.5 -33t-29.5 -25q-25 -10 -53.5 -9t-54.5 1q-38 0 -76 -1t-76 -6v-139q36 -2 72 0t72 5q16 1 32 3t33 0q22 -3 34 -18t14.5 -33.5t-6.5 -36.5t-29 -26q-17 -7 -46 -10.5t-61 -5t-63 -1.5t-52 1v-123q55 -7 111 -2t110 19h7z" />
    <glyph glyph-name="F" unicode="F" horiz-adv-x="473" 
d="M169 23q-3 -22 -16 -38t-30 -22t-35 0t-30 27q-5 8 -8 17t-3 18v236q-13 8 -19.5 21t-6.5 27.5t7 27.5t19 22q-1 19 -0.5 32t0.5 25v24.5t-2 29.5q-1 14 -6.5 27.5t-9.5 27t-3 27.5t12 27q15 18 36.5 21.5t43.5 5.5q46 3 91.5 3t91.5 2q13 0 28 2.5t30 4t30 0t27 -8.5
q15 -9 22 -23t6.5 -29t-8.5 -29t-23 -22q-26 -14 -57 -14.5t-59 -1.5q-33 -1 -66 -0.5t-66 -1.5q2 -19 3 -45t1 -76q32 0 65 1t65 6q17 2 36 7.5t36 3.5q20 -2 35 -15t20.5 -29.5t-0.5 -34t-27 -29.5q-25 -14 -53.5 -20.5t-58.5 -9t-60 -2t-58 0.5v-223v0z" />
    <glyph glyph-name="G" unicode="G" horiz-adv-x="621" 
d="M542 356q20 -6 34 -19.5t18.5 -30t-2 -33t-27.5 -29.5q-2 -3 -1 -24.5t1.5 -49.5t-1.5 -56.5t-9 -44.5q-7 -13 -17 -23t-21 -19q-37 -31 -79 -47.5t-86 -19.5t-88.5 9t-85.5 38q-52 33 -87.5 85t-51.5 112q-10 38 -11.5 79.5t6.5 82t26 77.5t45 67q32 35 73.5 58t85.5 40
q34 14 70 21t73 5q28 -2 60.5 -9.5t55.5 -26.5q11 -9 18.5 -22t9 -26.5t-3.5 -26t-18 -22.5t-27.5 -11.5t-29.5 2t-30 9.5t-28 10q-11 4 -23.5 3.5t-24.5 -2.5q-35 -10 -70.5 -24.5t-65.5 -35.5t-51.5 -50t-27.5 -70q-8 -51 5 -101.5t48 -88.5q23 -25 53.5 -40.5t63.5 -18.5
t65 7t57 35v108q-20 -1 -41.5 -3.5t-43 -3t-42 3t-38.5 13.5q-17 10 -23.5 26.5t-3.5 33t14 30.5t30 19q9 2 22.5 2.5t27 0.5t24.5 -0.5t17 -0.5q39 0 77.5 1t78.5 1z" />
    <glyph glyph-name="H" unicode="H" horiz-adv-x="583" 
d="M526 341q24 -7 36 -25.5t11.5 -38.5t-12.5 -37.5t-35 -22.5v-174q0 -25 -12.5 -44.5t-30.5 -27.5t-38 -3.5t-36 26.5q-7 10 -9.5 23t-2.5 24v173h-233v-170q0 -11 -2 -22.5t-7 -20.5q-13 -24 -33 -31t-39 0.5t-32.5 26t-13.5 45.5v517q0 26 15.5 45t35.5 26.5t40.5 1
t30.5 -31.5q3 -8 4 -14.5t1 -14.5v-226h233v214q0 20 9 38q11 22 31.5 31t40 5t34 -19.5t14.5 -42.5v-230z" />
    <glyph glyph-name="I" unicode="I" horiz-adv-x="421" 
d="M309 105q26 -1 43 -15.5t22 -33.5t-3 -37.5t-33 -28.5q-18 -7 -42.5 -9t-49 -1.5t-45.5 2t-32 1.5h-59q-21 0 -36 11.5t-21.5 27.5t-3 34t18.5 33q14 14 37 16t46 0v396q-23 0 -43 0.5t-40 14.5q-15 11 -20 25.5t-1.5 29t13.5 27.5t25 19q14 6 29 6q51 0 102.5 0.5
t103.5 -0.5q5 0 9.5 -3t9.5 -5q23 -13 31 -37t-6 -47q-7 -12 -17.5 -18.5t-23 -9t-25.5 -2.5h-25v-398q8 0 14.5 0.5t14.5 1.5h7z" />
    <glyph glyph-name="J" unicode="J" horiz-adv-x="518" 
d="M461 622q20 0 35 -10t22.5 -25.5t5.5 -33t-16 -32.5q-9 -10 -22 -15t-27 -6t-28.5 -0.5t-26.5 0.5q0 -3 2 -28.5t4 -65t3 -88t-1 -95.5t-8.5 -88t-18.5 -66q-18 -37 -51 -64.5t-73 -41.5t-82.5 -13t-79.5 22q-32 18 -57.5 50t-42.5 65q-11 16 -11 33.5t7.5 32t22.5 23.5
t36 6t33.5 -14t22 -25t18 -29t20.5 -25.5t29.5 -14.5t45.5 4q15 4 29 15q15 12 21.5 27.5t9 32.5t2.5 35t1 35q3 69 0 137.5t-4 137.5q-34 -1 -67.5 -1h-67.5q-23 0 -50 -2.5t-50 6.5q-22 8 -31 27t-7 38.5t16 35t39 16.5q16 1 32 0.5t33 -0.5q83 1 165.5 1.5t166.5 2.5z
" />
    <glyph glyph-name="K" unicode="K" horiz-adv-x="549" 
d="M158 36q-3 -22 -17 -38.5t-32 -22.5t-36 0t-28 29q-5 11 -7 39.5t-3 59.5t-0.5 57.5t0.5 32.5v209q0 3 -0.5 30t0 59.5t3 63t9.5 41.5q9 15 22 21.5t26.5 5.5t27 -8t22.5 -21q4 -5 7.5 -12t3.5 -13q1 -48 0 -94.5t-1 -94.5q36 21 66.5 47.5t59.5 60.5q7 9 20 27t28 37
t30 35.5t26 21.5q22 11 42 8t33 -15.5t16.5 -32t-7.5 -40.5q-4 -9 -8.5 -15t-9 -11t-9.5 -11t-10 -14q-13 -21 -31 -42.5t-38 -42t-41 -39.5t-40 -36l50 -54t51 -54q6 -6 26 -25.5t42.5 -43t41 -46.5t21.5 -36q5 -20 -2 -37.5t-21.5 -28.5t-33 -12t-36.5 12q-8 6 -16.5 14.5
t-16 17.5t-14.5 17.5t-12 13.5q-47 51 -93 100t-93 99q-5 -2 -11 -4.5t-11 -4.5q0 -51 1 -101.5t3 -101.5v-7z" />
    <glyph glyph-name="L" unicode="L" horiz-adv-x="489" 
d="M425 97q23 -11 35 -28t11.5 -34.5t-13 -33t-38.5 -23.5q-10 -3 -28 -3.5t-50 -0.5h-81t-121 -1q-18 -1 -37 -1t-33 13q-12 10 -17.5 30.5t-7 43t-1 45t0.5 37.5q0 30 0.5 69t1 79.5t0.5 79.5v69q0 53 1 85.5t4.5 51t11.5 27t22 14.5q12 5 26.5 3.5t27 -8t21 -18
t8.5 -25.5q2 -120 0 -238t-2 -236q63 0 125.5 1.5t126.5 3.5z" />
    <glyph glyph-name="M" unicode="M" horiz-adv-x="769" 
d="M756 26q-3 -22 -16 -37.5t-30 -21.5t-35 -0.5t-30 26.5q-10 17 -11.5 35.5t-3.5 38.5q-2 22 -4.5 38.5t-5.5 38.5q-9 60 -20 118.5t-25 117.5q-20 -50 -38 -99t-36 -99q-14 -37 -27.5 -74.5t-31.5 -72.5q-6 -12 -20 -19.5t-30 -8.5t-30 4.5t-21 18.5q-43 83 -85 165
t-84 165q-5 -51 -9 -102.5t-9 -102.5q-1 -16 -2 -39t-3.5 -46.5t-6 -45t-11.5 -33.5q-12 -20 -31.5 -26t-38 -1t-31 20.5t-11.5 39.5q2 41 7 81t9 81q8 89 16.5 177t16.5 178q2 26 10.5 48t36.5 31q11 4 23 3t22 -7q22 -14 34.5 -38.5t23.5 -46.5q19 -36 37 -72.5t36 -72.5
q22 -46 44.5 -90.5t46.5 -89.5q6 15 11.5 30t11.5 30q11 26 20.5 52.5t19.5 52.5q14 34 26.5 67t24.5 67q10 25 19 54t29 49q14 15 30.5 18t31 -2.5t26 -18.5t16.5 -30q6 -23 14 -52t14 -52q11 -42 20 -82.5t17 -82.5q14 -69 24.5 -136.5t18.5 -136.5v-7z" />
    <glyph glyph-name="N" unicode="N" horiz-adv-x="614" 
d="M450 593q6 20 19.5 33t29.5 17t32.5 -2t28.5 -24q4 -5 7.5 -12t3.5 -13q2 -143 -1.5 -285.5t-11.5 -285.5q0 -23 -14.5 -36t-33 -16.5t-37.5 4t-28 25.5q-1 1 -1 2v-2q-65 107 -137 205.5t-150 195.5v-226v-77t-1 -50.5t-2.5 -30.5t-4.5 -19q-9 -24 -27.5 -32t-37.5 -4
t-33 20t-14 40v44v68v81.5v85.5t-0.5 78.5t-0.5 61.5q0 34 -1 67.5t0 67.5q0 17 8.5 29t21.5 18.5t28 7.5t29 -4q12 -4 24.5 -16.5t24.5 -27t22.5 -29t17.5 -23.5q26 -32 60 -73.5t63 -78.5q29 -38 56.5 -76t53.5 -76q3 91 4 181t1 181z" />
    <glyph glyph-name="O" unicode="O" horiz-adv-x="677" 
d="M626 255q-17 -56 -43.5 -109.5t-64.5 -95.5t-88.5 -68t-115.5 -26q-42 2 -66.5 7.5t-47.5 16.5q-41 12 -70.5 38.5t-49.5 61.5t-30.5 74.5t-13.5 76.5q-5 65 11 132t51 123.5t88 97t121 53.5q35 6 71 4t70 -14q28 -10 52 -23t46 -33q29 -26 49 -60t29 -71q11 -47 10 -93
t-8 -92zM367 86q30 13 52.5 34.5t39.5 47.5t28.5 55.5t20.5 59.5q6 38 6.5 78t-16.5 76q-14 30 -42.5 51.5t-62.5 30t-68.5 3.5t-61.5 -27q-38 -32 -61.5 -71.5t-35.5 -87.5q-10 -38 -11 -80t13 -80q11 -28 32.5 -51t48.5 -36t57.5 -14.5t60.5 11.5z" />
    <glyph glyph-name="P" unicode="P" horiz-adv-x="544" 
d="M51 563q3 11 10 21.5t16.5 18.5t21 11.5t23.5 -0.5q37 15 75.5 25t77 11.5t76 -7t72.5 -31.5q28 -18 49.5 -45t35.5 -57q24 -54 22 -107.5t-25 -99.5t-64.5 -81t-97.5 -51q-42 -12 -85.5 -11.5t-85.5 5.5v-97q0 -11 1 -23t0.5 -24t-3 -23.5t-9.5 -21.5q-12 -20 -31 -24.5
t-36.5 2t-30 22t-12.5 37.5v180q-19 10 -28 25t-8 30.5t10 29.5t25 23v256zM342 519q-42 17 -85.5 10t-84.5 -26v-218q47 -8 96 -4t90 30q29 19 40 48t8 59t-20 57.5t-44 43.5z" />
    <glyph glyph-name="Q" unicode="Q" horiz-adv-x="708" 
d="M650 17q19 -12 28 -30.5t7.5 -37t-14.5 -32.5t-39 -15q-19 -1 -44 8t-50 22.5t-47 28.5t-36 26q-25 -13 -52 -24t-59 -13q-21 -5 -42 -1.5t-38 7.5q-56 11 -101.5 38.5t-75.5 77.5q-33 54 -44.5 121t-4 134.5t34 130t71.5 108.5q47 48 111 69.5t129 15.5t122.5 -39.5
t89.5 -96.5q26 -51 35 -110t2 -119t-28.5 -116.5t-56.5 -100.5q24 -16 49.5 -28.5t52.5 -23.5zM376 240q21 -11 41.5 -38t38.5 -50q23 34 35.5 71t21.5 79v41t-2.5 42t-8 41t-17.5 37q-19 29 -49.5 46t-64.5 22t-67 -4t-59 -33q-45 -42 -67.5 -101.5t-21.5 -119.5
q0 -35 8.5 -69.5t26.5 -62.5t46 -47t67 -22q25 -3 53 3q-20 22 -40.5 49.5t-23.5 52.5q-3 17 4 31.5t19 24t28 12.5t32 -5z" />
    <glyph glyph-name="R" unicode="R" horiz-adv-x="585" 
d="M176 25q-3 -25 -21 -41t-39 -20.5t-38.5 4.5t-18.5 36q-5 115 -5 238.5v245.5q-16 6 -24 18t-9.5 26.5t3.5 29.5t15 26q11 12 30 22t41.5 18.5t44.5 14.5t37 9q63 13 127 -0.5t112.5 -48.5t72.5 -91t5 -128q-6 -20 -15 -40t-21 -37q-17 -26 -40 -46t-50 -37
q19 -20 36 -42t38 -40q8 -7 23.5 -22t30 -32t25.5 -33.5t10 -27.5q-1 -19 -10.5 -34.5t-23 -24t-29.5 -8.5t-32 11q-18 14 -34 33t-31 35q-33 36 -64.5 72.5t-64.5 71.5q-20 -4 -40.5 -5.5t-40.5 -3.5v-142v-7zM355 509q-40 24 -87.5 27t-91.5 -13v-226q45 3 88.5 11.5
t80.5 37.5q20 16 32.5 37.5t15 44t-6 44t-31.5 37.5z" />
    <glyph glyph-name="S" unicode="S" horiz-adv-x="552" 
d="M59 70q-7 19 -4.5 38t13 32.5t27.5 19t38 -3.5q19 -8 32.5 -23.5t32.5 -24.5q26 -13 53 -19q19 -5 38 -6.5t39 -1.5q15 4 26 8t24 17q15 13 19.5 31t0 35.5t-17 32t-30.5 19.5q-35 12 -70 18.5t-68 15.5t-62.5 25.5t-54.5 47.5q-14 17 -18 30t-9 33q-9 48 7.5 81t41.5 60
q32 35 72.5 53.5t85 24t90 -2t86.5 -25.5q24 -10 30.5 -31t0.5 -41t-23 -33t-40 -9q-24 5 -45 10.5t-42 9.5q-16 3 -34.5 1t-35 -6.5t-30.5 -10t-21 -11.5q-8 -7 -15.5 -18t-8.5 -25q-2 -17 13 -28t32 -16q33 -7 68 -13.5t69 -18t63.5 -29.5t50.5 -48q23 -26 33 -59t7.5 -66
t-15.5 -63.5t-36 -53.5q-16 -16 -33.5 -27.5t-37.5 -22.5q-40 -21 -86 -21t-92 13.5t-87 38t-70 53.5z" />
    <glyph glyph-name="T" unicode="T" horiz-adv-x="535" 
d="M480 615q19 -8 31.5 -25.5t15 -36t-7 -33.5t-33.5 -20q-46 -8 -86.5 -7t-70.5 1q0 -120 1 -236t-1 -245q0 -28 -19 -40.5t-41.5 -10.5t-41.5 18t-19 44q-1 118 -1 235v235q-9 0 -30.5 -1t-47 -0.5t-52.5 4t-47 13.5q-16 8 -21 23.5t-0.5 31.5t16.5 30t30 19
q84 5 162.5 3.5t159.5 -1.5q24 0 48 0.5t49 0.5z" />
    <glyph glyph-name="U" unicode="U" horiz-adv-x="615" 
d="M454 573q6 20 19.5 33t29.5 17t32.5 -2t28.5 -24q4 -5 7.5 -12t3.5 -13q0 -11 -1 -37t-1.5 -53t-1.5 -48t-1 -22q-2 -54 -7 -107.5t-14 -107.5q-8 -42 -19 -77.5t-30 -63t-48 -47.5t-72 -32q-17 -5 -35.5 -7t-35.5 -2q-50 0 -102 19q-59 23 -89 76t-42 118.5t-11.5 132.5
t0.5 118q0 21 0.5 42.5t1.5 42.5q0 15 1 31.5t6 31.5t15.5 26t29.5 15q11 2 23.5 -2t22.5 -11.5t17 -18t7 -22.5v-25.5v-17t-0.5 -15.5t-0.5 -21q-2 -66 -2 -131.5t8 -130.5q3 -27 9 -56t24 -50q16 -19 41.5 -26.5t52 -4.5t50 15t36.5 32t20 47t10.5 56t5 57.5t2.5 52.5
q2 28 3 48t2 48q1 21 1 42t1 42z" />
    <glyph glyph-name="V" unicode="V" horiz-adv-x="605" 
d="M469 597q12 20 31 27t37.5 3t32 -19t12.5 -39q-1 -23 -13 -42.5t-23 -38.5q-27 -52 -51.5 -105t-47.5 -107q-23 -53 -43 -105.5t-40 -106.5q-7 -16 -14 -37.5t-18 -37.5t-26.5 -22t-31 -3t-29 13.5t-19.5 27.5q-11 28 -21 55t-21 54q-11 28 -21 55t-21 54
q-21 55 -42 109.5t-41 109.5q-13 34 -23.5 60t-18.5 60q-7 23 6.5 40t34 23.5t42 0t31.5 -29.5q42 -100 78.5 -202t74.5 -205q6 15 9.5 23.5t5.5 14t3 8.5t3 6q10 40 28.5 77.5t34.5 75.5q43 102 97 197z" />
    <glyph glyph-name="W" unicode="W" horiz-adv-x="914" 
d="M759 580q8 30 29 42t43 8t37 -22.5t11 -48.5q-6 -38 -15.5 -76t-20.5 -75q-15 -48 -33.5 -94t-34.5 -94q-16 -45 -32.5 -89.5t-34.5 -89.5q-6 -15 -12.5 -31.5t-16.5 -28.5q-15 -20 -41 -24t-46 13q-16 14 -23 34.5t-15 39.5q-9 24 -20.5 53t-19.5 52q-17 45 -32.5 90.5
t-32.5 90.5q-14 -42 -29.5 -81.5t-29.5 -80.5q-11 -27 -21 -54t-21 -53q-7 -18 -11.5 -27.5t-14.5 -29.5q-7 -16 -21 -28.5t-29.5 -17t-31.5 0.5t-28 24q-17 26 -23.5 61t-15.5 64q-6 18 -11.5 36t-11.5 35q-6 18 -12.5 36t-12.5 35q-20 58 -41.5 114.5t-43.5 113.5
q-4 12 -11 24.5t-13 26t-9.5 27t-2.5 26.5q2 17 12.5 29t24.5 17.5t30 4t29 -12.5q27 -23 40.5 -61t25.5 -70q14 -35 26 -70.5t26 -70.5q14 -38 27 -75t25 -75q4 9 7 18.5t7 19.5q20 50 37.5 99t32.5 100q5 14 8.5 28.5t7.5 28.5q7 24 9 37.5t12 29.5q9 14 24 20.5t31 6
t29.5 -8.5t20.5 -24q3 -6 8 -18.5t10 -27t10 -27t7 -18.5q12 -32 23 -63t22 -63q14 -41 28.5 -80.5t29.5 -78.5q9 26 17 53t18 53q27 72 51.5 144t37.5 147z" />
    <glyph glyph-name="X" unicode="X" horiz-adv-x="613" 
d="M503 620q18 18 39 19t38 -9t25.5 -29.5t-0.5 -43.5q-7 -17 -17.5 -32t-20.5 -29q-33 -50 -68.5 -96t-72.5 -91q9 -10 24.5 -29t34 -42.5t37.5 -50t36 -51t29.5 -46t17.5 -35.5q8 -23 0.5 -42.5t-23 -31t-36 -11.5t-39.5 17q-16 14 -28 39t-24 43q-25 38 -52 73.5
t-56 70.5q-28 -35 -57.5 -68.5t-58.5 -66.5q-8 -9 -19.5 -24t-24.5 -30.5t-26 -28.5t-24 -17q-19 -8 -37 -3.5t-30 16.5t-16.5 30t3.5 37q8 20 23.5 34.5t29.5 30.5q40 47 80 93.5t80 94.5q-35 45 -71.5 88.5t-77.5 83.5q-4 4 -12.5 10.5t-17.5 15t-17 17t-13 16.5
q-10 19 -7 39t15.5 34.5t31.5 18.5t40 -8q17 -11 31 -24.5t28 -27.5q40 -39 76 -80.5t71 -85.5q14 17 28 33.5t27 33.5q27 36 52 71.5t49 73.5z" />
    <glyph glyph-name="Y" unicode="Y" horiz-adv-x="551" 
d="M318 33q-3 -25 -18.5 -41t-35 -20t-37.5 5t-26 35q-5 17 -6.5 37t-1 39.5t1.5 37.5t1 30q0 29 -0.5 57t-0.5 57q-49 47 -89.5 99.5t-72.5 112.5q-10 18 -19 39.5t-10 42.5q-5 19 4 34.5t24.5 24t34 8t33.5 -12.5q11 -9 18 -21t12 -25.5t9.5 -27.5t11.5 -26
q21 -38 46.5 -70.5t54.5 -64.5q26 35 56 65.5t55 65.5q5 8 15 24.5t21 34.5t23 33.5t21 20.5q16 10 32.5 9t30 -10t21.5 -24.5t6 -33.5q-2 -19 -17.5 -46t-36 -55t-41.5 -53t-33 -40q-10 -12 -19.5 -23.5t-19.5 -22.5q-13 -15 -25 -30l-24 -30v-114t1 -114v-7z" />
    <glyph glyph-name="Z" unicode="Z" horiz-adv-x="614" 
d="M96 -23q-16 0 -31 8.5t-24 21.5t-10.5 29t9.5 30q3 11 12 25.5t19 29t20 27t14 19.5q57 80 120.5 152.5t130.5 144.5q-29 -1 -57 -1.5t-57 -0.5q-40 0 -84 -3t-83 9q-22 7 -31.5 23t-8 34t13 34t31.5 23q9 3 29 3.5t41.5 0t40 -1.5t25.5 -1q45 0 90.5 1t91.5 2
q15 0 30 0.5t31 0.5h33.5t35 -4.5t29 -15.5t14.5 -32q2 -15 -2 -26t-11.5 -20t-17.5 -17t-20 -17q-23 -20 -45 -40.5t-42 -42.5q-58 -63 -114 -129.5t-107 -136.5q35 -1 70.5 -2.5t70.5 -2.5q32 -1 65 -0.5t65 6.5q20 3 40.5 8t40.5 -5q14 -7 22.5 -19t10.5 -26t-2 -27.5
t-16 -24.5q-17 -15 -38.5 -19.5t-41.5 -8.5q-50 -9 -100.5 -8t-101 4t-101 4t-100.5 -8z" />
    <glyph glyph-name="bracketleft" unicode="[" horiz-adv-x="321" 
d="M249 -35q16 -8 28 -19.5t17 -25.5t1 -29.5t-20 -29.5q-10 -9 -21.5 -12t-24 -4t-25 0t-24.5 1q-16 0 -34 -0.5t-34 2.5t-29 12t-20 28q-4 9 -4 22v742q0 21 11.5 33.5t29 19t39 8t42 1t37.5 -2t25 -1.5t19 -6.5t16 -12.5q13 -13 15.5 -30.5t-3 -33.5t-19 -27.5
t-33.5 -11.5h-57v-621h62z" />
    <glyph glyph-name="backslash" unicode="\" horiz-adv-x="510" 
d="M46 646q-5 11 -2 24t11 24t20.5 18.5t26.5 8.5t29 -6.5t28 -27.5q17 -25 27 -53.5t22 -55.5q23 -52 46 -103.5t46 -103.5t46 -103.5t46 -102.5l24 -56t26 -56q7 -16 15.5 -34.5t11 -36t-4 -33.5t-29.5 -27q-21 -11 -37 -6t-28 18t-20.5 30.5t-14.5 32.5q-11 23 -21 46
l-20 46z" />
    <glyph glyph-name="bracketright" unicode="]" horiz-adv-x="310" 
d="M82 -33h56v621q-16 0 -31.5 -2t-30.5 3q-17 5 -29.5 16t-18.5 25t-3.5 29.5t15.5 30.5q7 8 19 14t23 6t40 2.5t59.5 -0.5t54.5 -15.5t24 -42.5q1 -187 0.5 -371.5t-0.5 -371.5q0 -14 -6 -27q-7 -17 -20 -25t-28.5 -11t-32.5 -2.5t-32 0.5q-26 0 -49.5 -0.5t-46.5 14.5
q-11 7 -16 18.5t-5.5 23.5t4 24t12.5 21q5 6 13 10t16 7z" />
    <glyph glyph-name="asciicircum" unicode="^" horiz-adv-x="477" 
d="M417 573q1 -23 -9 -37.5t-25.5 -20.5t-34.5 -3.5t-36 14.5q-8 6 -20.5 20t-23.5 28q-13 17 -27 37q-15 -17 -29.5 -33.5t-29.5 -33.5q-15 -18 -36.5 -26.5t-40.5 -5.5t-32 19t-12 46q0 9 8 21t19.5 25t24.5 25.5t23 22.5q12 12 25.5 26t27.5 24q25 17 45 19.5t38 -5.5
t34.5 -23.5t33.5 -34.5q10 -11 23 -24.5t25 -28t20.5 -28t8.5 -23.5z" />
    <glyph glyph-name="underscore" unicode="_" horiz-adv-x="615" 
d="M43 -124q-31 4 -44.5 23t-11.5 41t19.5 39.5t48.5 17.5q134 0 267 0.5t267 -0.5q6 0 13 -3.5t12 -7.5q20 -14 25.5 -33t0 -36t-20 -29.5t-35.5 -12.5h-534z" />
    <glyph glyph-name="grave" unicode="`" horiz-adv-x="307" 
d="M44 589q-15 18 -18 38.5t5.5 37t26.5 25t43 2.5q17 -5 29 -17t25 -23q29 -23 58.5 -48t55.5 -52q17 -17 17.5 -37t-9.5 -35.5t-29 -24t-41 -2.5q-12 3 -34.5 21t-47 40t-46.5 42.5t-31 28.5z" />
    <glyph glyph-name="a" unicode="a" 
d="M480 44q8 -29 -3 -48t-30.5 -25.5t-42.5 1.5t-40 32q-28 -21 -54.5 -29.5t-60.5 -9.5q-51 -2 -91 11.5t-67.5 40.5t-40.5 67.5t-9 93.5q2 22 7.5 43t12.5 41q8 22 22.5 47t29.5 43q54 66 135 95q14 5 38 9t48.5 3.5t47 -6.5t33.5 -21q9 -12 13 -21t4.5 -19t0 -21.5
t-0.5 -28.5q0 -28 -0.5 -54.5t0.5 -53.5v-23.5t1 -30.5t2.5 -30.5t4.5 -23.5zM268 89q11 7 25 15.5t25 19.5q-9 53 -10.5 106t0.5 107q-45 -8 -81 -39t-50 -73q-6 -17 -10 -35t-3 -35q1 -23 12 -38.5t26.5 -23.5t33 -9t32.5 5z" />
    <glyph glyph-name="b" unicode="b" horiz-adv-x="526" 
d="M251 -26q-29 -1 -55.5 4t-52.5 17q-13 -7 -25.5 -7t-23 4t-18 9.5t-10.5 8.5q-11 16 -13 36t13 38v514q0 23 16 38.5t37 19.5t40.5 -7t26.5 -40q4 -18 6.5 -35.5t3 -40.5t0 -53t-2.5 -74q9 5 18.5 9.5t19.5 9.5q28 13 60 16t62.5 -3.5t57 -24t43.5 -45.5
q24 -40 32.5 -93.5t0 -106t-35 -97.5t-74.5 -67q-30 -14 -61.5 -21.5t-64.5 -8.5zM188 230v-120q2 -2 4 -3t4 -3q90 -30 156 41q15 40 14.5 75.5t-13.5 76.5q-5 12 -16.5 15.5t-20.5 8.5q-16 3 -34.5 -6t-35.5 -22.5t-31 -29.5t-22 -27z" />
    <glyph glyph-name="c" unicode="c" horiz-adv-x="466" 
d="M316 125q25 16 47.5 14t37 -15.5t16 -36t-15.5 -47.5q-11 -17 -31.5 -31t-39.5 -22q-44 -20 -89 -18t-83.5 22t-66.5 55.5t-38 82.5q-20 90 8 173q11 30 26.5 58t37.5 51t49 40.5t59 23.5q22 4 56 -0.5t66.5 -17.5t57 -34t27.5 -50q2 -16 -4 -29.5t-17 -22.5t-25.5 -12.5
t-29.5 0.5q-18 5 -28.5 13.5t-27.5 22.5q-8 2 -15 6.5t-15 3.5l-27 -3q-7 -4 -13 -7l-12 -6q-34 -34 -50 -75.5t-8 -89.5q5 -31 19.5 -51t34 -27.5t43 -1.5t46.5 27z" />
    <glyph glyph-name="d" unicode="d" horiz-adv-x="543" 
d="M480 80q17 -29 11.5 -52t-22.5 -34.5t-41.5 -9t-47.5 25.5q-24 -17 -50 -26.5t-55 -16.5q-45 -10 -86.5 1.5t-73.5 37.5t-52 64.5t-22 83.5q-3 50 7.5 96t33.5 84t60.5 65t88.5 38q30 6 60.5 6t60.5 -5q-1 22 -1.5 50.5t-0.5 55.5t2 48.5t5 30.5q7 18 21.5 27.5t30.5 10
t31.5 -8t24.5 -25.5q2 -5 5 -9.5t3 -9.5q1 -131 0.5 -259t-0.5 -259q4 -6 7 -10zM341 135q2 3 7.5 6t5.5 8v82.5t-1 82.5q-24 5 -50 6t-50.5 -5t-45 -20t-32.5 -40q-6 -19 -11 -38t-5.5 -37t4.5 -35.5t17 -33.5q4 -4 9.5 -8t21.5 -14q37 -3 70.5 7t59.5 39z" />
    <glyph glyph-name="e" unicode="e" horiz-adv-x="496" 
d="M406 134q24 6 42.5 0.5t28.5 -18.5t9 -32t-17 -40q-13 -17 -36 -29t-43 -19q-49 -18 -93 -25t-82.5 0t-72 29t-62.5 62q-20 27 -29.5 61.5t-10.5 70.5t6 71t20 63q17 35 54 64t82 46t92 19.5t83 -14.5q30 -14 51.5 -40.5t29.5 -57.5t1.5 -62.5t-32.5 -57.5
q-25 -25 -55 -40.5t-62 -27t-65.5 -19.5t-64.5 -18q21 -24 48 -30.5t56.5 -2.5t59.5 16.5t56 27.5zM204 306q-23 -13 -34 -32.5t-16 -54.5q26 8 58.5 17t61.5 19t49 22t20 26q0 8 -2.5 15.5t-10.5 10.5q-28 10 -58 4t-50 -17z" />
    <glyph glyph-name="f" unicode="f" horiz-adv-x="411" 
d="M241 26q-3 -22 -16 -38t-30 -22t-35 0t-30 27q-5 8 -8 17t-3 18v263q-19 0 -34.5 10.5t-23 26t-5.5 33t16 32.5q10 11 21.5 14.5t24.5 4.5q-1 31 -1.5 61t4.5 60q6 47 28 80t54.5 51t72.5 21t83 -12q18 -6 34.5 -15t29.5 -23q9 -10 13 -23.5t1.5 -27t-10 -25t-21.5 -17.5
q-19 -8 -37.5 -4t-36.5 13q-11 4 -21 8t-21 6t-20 -3t-15.5 -13.5t-10 -19t-3.5 -20.5q-1 -23 -0.5 -46.5t0.5 -46.5q15 1 32 2t33.5 1t30.5 -1t22 -4q16 -6 26 -18.5t13 -27t-2.5 -29.5t-19.5 -26q-13 -10 -30 -14t-36 -5.5t-37 -1t-32 0.5v-267v0z" />
    <glyph glyph-name="g" unicode="g" horiz-adv-x="497" 
d="M74 -209q-17 21 -18 43.5t10 38.5t31.5 22t45.5 -6q11 -8 20 -12t25 -12q15 -7 34 -10.5t36 -1.5q34 2 52.5 11.5t26.5 25t9.5 38t1.5 50.5q-32 -11 -64 -16.5t-66 -1.5q-66 8 -108.5 47t-62 93t-16 115.5t28.5 113.5q15 30 41 55.5t58.5 42t68 21.5t68.5 -6
q19 -7 37 -14t35 -18q19 17 44.5 17t43.5 -24l9 -13.5t5 -14.5q1 -107 0.5 -213.5t-0.5 -213.5q0 -43 -11.5 -80t-34.5 -65.5t-57 -46.5t-79 -23q-23 -2 -45 -2t-45 5q-32 6 -61.5 20t-58.5 31zM192 96q44 -21 81 -13.5t75 33.5v159q-29 29 -56.5 40.5t-65.5 6.5
q-7 -4 -13.5 -7t-13.5 -6q-21 -24 -32 -46.5t-13 -46t3.5 -48t16.5 -53.5q3 -5 9 -10t9 -9z" />
    <glyph glyph-name="h" unicode="h" horiz-adv-x="512" 
d="M176 27q-6 -33 -26 -47.5t-41.5 -13.5t-38 17.5t-16.5 45.5v556q0 23 18 39t40 20t41 -7t21 -41q4 -52 3.5 -101.5t-1.5 -99.5q37 25 77 33.5t77 -0.5t69 -36t52 -75q14 -32 19 -68.5t5.5 -74t-1 -74.5t-1.5 -70q0 -21 -11 -38t-27.5 -25t-35 -5t-33.5 22
q-15 20 -18.5 47t-2 57.5t4.5 62.5t1.5 61.5t-11.5 54.5t-35 41q-20 3 -36 -2.5t-29 -16.5t-24.5 -25t-23.5 -28q-3 -5 -7 -9.5t-9 -9.5v-190v0z" />
    <glyph glyph-name="i" unicode="i" horiz-adv-x="246" 
d="M180 28q-2 -20 -14 -35.5t-27.5 -22.5t-33.5 -3t-32 22q-8 10 -11.5 22.5t-4.5 26t-0.5 27t0.5 24.5q-1 59 -0.5 117t-0.5 117q0 24 -3 48.5t3 48.5q5 18 17.5 31t28 18t32 1t28.5 -21q16 -20 16 -39.5v-47.5v-68t1 -67q1 -48 1 -96v-96v-7zM48 597q4 37 25.5 54.5
t45.5 17t44.5 -18.5t21.5 -51q2 -34 -17.5 -52.5t-44.5 -21t-47 13.5t-27 51z" />
    <glyph glyph-name="j" unicode="j" horiz-adv-x="371" 
d="M9 -85q-7 19 -4.5 38t13 32.5t27.5 19t38 -3.5q15 -6 24.5 -18t20.5 -23q13 -10 15.5 -9.5t1.5 1.5q14 -4 20.5 10t9 35t2.5 44v37v200v67q0 17 -1 33t0 33q0 14 7.5 26.5t19 20.5t26 11t27.5 -2q14 -5 28 -20.5t14 -30.5q0 -2 0.5 -29t1 -69.5t0 -95.5t-2 -106
t-4.5 -101.5t-8 -81.5q-5 -32 -26 -55.5t-50.5 -35.5t-63 -11.5t-63.5 16.5q-21 11 -37.5 28t-32.5 34zM160 608q4 37 25.5 54.5t45.5 17t44.5 -18.5t21.5 -51q2 -34 -17.5 -52.5t-44.5 -21t-47 13.5t-27 51z" />
    <glyph glyph-name="k" unicode="k" horiz-adv-x="498" 
d="M178 32q-6 -33 -26 -47.5t-41.5 -13.5t-38 17.5t-16.5 45.5v570q0 15 8.5 27.5t21.5 20.5t28.5 10.5t28.5 -1t22.5 -15t10.5 -31.5q3 -78 3 -140t-1 -125q23 17 43.5 35.5t40.5 38.5q18 19 35 42.5t43 32.5q19 6 35.5 2t28 -15.5t15.5 -28t-2 -35.5q-5 -14 -22.5 -35
t-39 -43t-42.5 -40.5t-34 -28.5q35 -38 69 -77t69 -78q15 -17 28.5 -30.5t23.5 -32.5q8 -16 5 -33t-13.5 -29.5t-26 -18.5t-33.5 -1q-17 5 -33 18.5t-30.5 29.5t-27.5 33t-24 29q-27 31 -53.5 61.5t-54.5 59.5v-174v0z" />
    <glyph glyph-name="l" unicode="l" horiz-adv-x="292" 
d="M193 62q11 -10 18.5 -25.5t8 -31t-7 -29t-26.5 -20.5q-15 -5 -33 -2t-35.5 12t-31 21.5t-19.5 27.5q-2 5 -3 11.5t-1 11.5v555q0 23 17.5 39t38.5 19q10 1 21.5 -3t21.5 -11.5t16.5 -17.5t6.5 -21v-69t0.5 -94t0.5 -105.5t-0.5 -104.5t-0.5 -91.5t-1 -66.5z" />
    <glyph glyph-name="m" unicode="m" horiz-adv-x="687" 
d="M288 286v14q-9 23 -29 32.5t-43 11.5q-13 -4 -21 -9t-14 -11t-11 -13.5t-12 -15.5v-262q0 -31 -18.5 -48.5t-41 -20t-41.5 11t-20 45.5q-2 77 -1.5 175t0.5 219q0 21 12.5 35t30 19t36 -0.5t30.5 -22.5q56 28 111.5 17.5t100.5 -52.5q20 20 43 36t50 21q31 5 62.5 -2.5
t58.5 -24.5t47.5 -42t30.5 -54q5 -20 5 -36v-272q0 -12 -3 -23q-9 -26 -28.5 -36.5t-40 -7.5t-35.5 19t-15 43v269q-9 24 -26 35t-35 10t-34.5 -13t-26.5 -33v-262q0 -27 -17.5 -45t-38.5 -23t-39.5 4t-21.5 36z" />
    <glyph glyph-name="n" unicode="n" horiz-adv-x="482" 
d="M444 26q-3 -25 -18.5 -41t-35 -20t-37.5 5t-26 35q-9 28 -7 58.5t2 56.5q0 54 0.5 107.5t-4.5 107.5q-1 2 -2 3.5t-4 4.5q-23 6 -49 -3t-44 -23q-16 -13 -31.5 -35.5t-15.5 -43.5v-138q0 -16 1 -35t-1.5 -37t-11.5 -33t-29 -22q-11 -4 -20.5 -3t-20.5 5q-18 6 -26 20.5
t-11 31t-2.5 32t0.5 24.5q0 23 -0.5 66.5t-0.5 91.5v91.5v66.5q0 22 13 36.5t30.5 19t37 -2t32.5 -26.5q40 26 88 35t90.5 -3t71 -45t29.5 -91q0 -2 1 -12t1 -28v-256z" />
    <glyph glyph-name="o" unicode="o" horiz-adv-x="461" 
d="M28 239q7 29 19.5 57t30.5 53.5t40.5 46.5t48.5 34q46 24 92.5 24.5t86.5 -18.5t68 -56.5t37 -89.5q5 -34 5.5 -64.5t-6.5 -63.5q-10 -47 -40.5 -93.5t-73 -78t-93 -41.5t-101.5 16q-23 11 -41.5 25.5t-33.5 34.5q-17 22 -26.5 46t-15.5 50q-7 28 -5 56.5t7 55.5z
M148 218q-3 -16 -5 -31.5t0 -31.5q3 -23 12.5 -42t25 -30t35.5 -11.5t43 12.5q29 17 50 52.5t26 74t-8 73t-51 49.5q-25 0 -46 -9.5t-36.5 -25t-27 -36.5t-18.5 -44z" />
    <glyph glyph-name="p" unicode="p" horiz-adv-x="498" 
d="M53 411q7 24 22.5 36.5t33 14.5t33.5 -6t25 -25q11 6 22 11t25 9q64 17 113.5 -2.5t82.5 -60t47 -95t6.5 -109t-38.5 -102t-89 -73.5q-38 -17 -79.5 -21.5t-82.5 -1.5q0 -1 0.5 -16t0.5 -38v-50t-1.5 -52t-4 -44.5t-7.5 -26.5q-13 -19 -32 -24t-36 1.5t-29.5 22
t-12.5 37.5v609zM181 281q-3 -5 -3 -4.5t-4 -3.5v-165q20 -3 40 -3t42 6q45 11 71 43.5t20 80.5q-3 20 -11.5 41.5t-22.5 36.5t-33 21t-43 -4q-17 -7 -30.5 -21t-25.5 -28z" />
    <glyph glyph-name="q" unicode="q" horiz-adv-x="487" 
d="M444 -210q-4 -21 -14.5 -35.5t-24.5 -20.5t-31.5 -2.5t-36.5 19.5q-5 5 -7.5 21.5t-3.5 40t-1 50.5v52t-0.5 45.5t-2.5 30.5q-31 -8 -62 -10.5t-63 2.5q-50 9 -83.5 35t-52.5 63t-24.5 82t1.5 92t28.5 83t53 61.5t70.5 40t82 17.5q20 2 44.5 -1.5t44.5 -13.5q20 8 39 1.5
t33 -25.5q3 -5 7 -11.5t4 -12.5q1 -150 0.5 -299t-0.5 -299v-6zM157 152q6 -27 26.5 -38t45.5 -12t50.5 5t42.5 13v206q-12 4 -23.5 6t-23.5 2q-44 0 -69.5 -16t-37.5 -42t-13.5 -58.5t2.5 -65.5z" />
    <glyph glyph-name="r" unicode="r" horiz-adv-x="416" 
d="M72 306q0 -4 1 2.5t-1 23.5q-16 9 -25 23t-10.5 30t6 30.5t24.5 24.5q23 13 50.5 5t47.5 -24q25 19 52 32t55 17.5t57 -1.5t57 -25q14 -9 26 -22.5t15 -30.5q5 -25 -4 -43.5t-25 -27t-36 -5t-38 21.5q-6 4 -8.5 6.5t-10.5 6.5q-16 4 -31.5 -2t-30 -16.5t-27 -23
l-22.5 -22.5v-255q0 -15 -6 -29q-9 -23 -28.5 -32t-39 -5t-34 20t-14.5 41v280v0z" />
    <glyph glyph-name="s" unicode="s" horiz-adv-x="410" 
d="M21 67q-6 17 -5 33.5t8.5 30t21.5 21t34 5.5q11 -1 20 -6t16.5 -12t15 -15t15.5 -14q17 -13 36 -19t40 -9q14 0 22.5 7t11.5 17t1.5 21.5t-7.5 18.5q-17 17 -41.5 22t-45.5 12q-30 10 -59 25.5t-47 42.5q-19 28 -22.5 59.5t5 61.5t28.5 55t48 41q21 12 46 15.5t50.5 1.5
t50.5 -9.5t46 -16.5q24 -11 36 -31t11.5 -40.5t-14 -35.5t-39.5 -15q-16 0 -29 5.5t-27 10.5q-18 7 -39 9.5t-34 -2.5q-4 -1 -9 -6.5t-7.5 -13.5t-1 -16t10.5 -13q24 -13 51 -20t53 -16t48.5 -23t37.5 -40q22 -38 22.5 -79.5t-16.5 -77.5t-50 -61.5t-77 -30.5
q-31 -3 -61 3.5t-58 21t-52 34.5t-42 42z" />
    <glyph glyph-name="t" unicode="t" horiz-adv-x="434" 
d="M120 333q-20 5 -34.5 17t-20 28t0 33t24.5 31q16 12 36 12h39q0 7 -1 30.5t-0.5 51.5t3.5 53.5t11 35.5q20 28 49.5 26.5t48.5 -28.5q4 -5 7.5 -12t3.5 -13q1 -36 0.5 -72t-0.5 -72h79q18 0 31 -12t18.5 -28t3 -33t-15.5 -28q-23 -19 -53.5 -20t-62.5 -1q0 -55 -0.5 -110
t0.5 -110q0 -24 2.5 -49t-3.5 -48q-5 -18 -17 -28.5t-27 -13t-31 2t-30 16.5q-7 7 -10.5 24t-4.5 36q-1 22 0 47v52t-0.5 66.5t-0.5 65.5v49z" />
    <glyph glyph-name="u" unicode="u" horiz-adv-x="498" 
d="M476 78q9 -13 10.5 -30.5t-4 -33t-18 -25.5t-32.5 -9q-26 2 -42 18t-30 36q-39 -32 -80.5 -44.5t-81.5 -5.5t-75 33.5t-59 71.5q-22 42 -24.5 93t-1.5 97q0 16 1 31.5t2 32.5q1 13 1 25.5t1.5 23.5t6 22t13.5 21q12 13 29 15.5t32.5 -3.5t27 -18.5t12.5 -30.5
q2 -51 -2.5 -103t0.5 -102q2 -24 12.5 -49t33.5 -36q23 -10 46.5 1.5t38.5 27.5q7 8 13.5 17.5t14.5 16.5q-4 35 -5 70t0 70q0 19 1.5 41.5t8 43t19.5 36t37 19.5q11 2 21.5 -2t18.5 -11q14 -12 19 -27t5 -32t-2.5 -34.5t-3.5 -32.5q-2 -28 -3 -59t2 -62t11.5 -60t25.5 -53z
" />
    <glyph glyph-name="v" unicode="v" horiz-adv-x="441" 
d="M309 432q15 20 34.5 27.5t36.5 3t29 -20.5t13 -43q0 -7 -2.5 -18t-6.5 -22.5t-7 -21t-4 -12.5q-17 -54 -39.5 -116.5t-41.5 -116.5q-8 -23 -16.5 -43.5t-17.5 -42.5q-7 -18 -20.5 -29t-29 -14t-31.5 3t-28 22q-8 11 -13.5 28t-8.5 25q-11 29 -22 57l-22 56q-15 38 -31 75
t-33 73q-10 22 -22 43t-18 44q-6 21 1.5 37.5t22 25.5t33 10t35.5 -10q13 -8 24 -25t20 -37t16.5 -39.5t13.5 -32.5q14 -32 27.5 -64t26.5 -64q21 59 40.5 117.5t36.5 118.5z" />
    <glyph glyph-name="w" unicode="w" horiz-adv-x="672" 
d="M559 432q15 20 34.5 27.5t36.5 3t29 -20.5t13 -43q1 -15 -12.5 -54t-32.5 -102q-1 -4 -3.5 -10t-7 -20t-13 -39t-23.5 -67q-7 -21 -17.5 -50t-26.5 -51.5t-38 -31t-53 12.5q-10 7 -22 28.5t-23 46.5t-19.5 47.5t-11.5 29.5q-7 16 -16 35.5t-17 39.5l-6 -15l-26 -66
t-26 -65q-7 -17 -13 -37t-17 -35q-9 -13 -22.5 -18.5t-27.5 -4.5t-26.5 7.5t-21.5 18.5q-14 20 -22 46t-16 48q-11 31 -20 63.5t-19 62.5q-5 16 -13 42t-15.5 53.5t-12 53.5t-3.5 43t11.5 30.5t25.5 20t31.5 4.5t29.5 -15q19 -20 23 -42.5t9 -48.5q8 -40 18.5 -79t22.5 -78
q4 9 9 22t16 39q9 22 17.5 43t16.5 42q6 15 12 29.5t12 28.5q7 15 20.5 24.5t29.5 12t31 -3t24 -20.5q13 -20 20 -44.5t15 -46.5q14 -36 27.5 -72.5t28.5 -71.5q22 60 39 120.5t37 120.5z" />
    <glyph glyph-name="x" unicode="x" horiz-adv-x="524" 
d="M391 457q20 13 40.5 13.5t36 -8.5t22 -27t-1.5 -43q-8 -20 -27 -37t-33 -31q-22 -23 -43 -45t-42 -45q31 -36 60 -73.5t55 -77.5l20 -30t12 -33q3 -22 -9 -38.5t-30 -24t-37.5 -3.5t-32.5 23q-29 42 -57.5 83t-60.5 80q-23 -28 -44 -57t-41 -59q-7 -11 -13 -22t-15 -19
q-18 -18 -40.5 -21t-40 6t-25.5 27.5t1 42.5q9 23 26 49.5t36.5 52.5t39.5 50.5t35 42.5q-13 14 -21.5 23t-15 16t-13.5 14.5t-19 19.5q-9 9 -20 18.5t-21 20.5t-18.5 23t-12.5 25q-5 18 1 33.5t18.5 26t29.5 13.5t33 -5q9 -5 14.5 -9t12.5 -11q6 -7 19.5 -19.5t29.5 -28
t33 -33t31 -33.5q29 33 60 64t63 62z" />
    <glyph glyph-name="y" unicode="y" 
d="M376 441q12 20 30 27.5t35.5 3.5t31 -18t16.5 -37q2 -17 -6.5 -48t-21 -64t-25.5 -63t-21 -47q-34 -75 -74 -147t-82 -143q-6 -11 -14 -27l-16.5 -33t-17.5 -32t-17 -22q-18 -17 -37 -20t-34.5 5t-25 25t-7.5 41q1 9 8 23.5t16 30t18 29.5t14 23q20 33 38.5 66t37.5 66
q-66 55 -114.5 122.5t-74.5 148.5l-10 28t-3 29q2 17 9.5 30.5t19.5 22t27.5 9.5t31.5 -7q13 -7 20.5 -19.5t12.5 -27t8.5 -29.5t8.5 -27q40 -99 121 -169q29 60 52 120.5t41 123.5z" />
    <glyph glyph-name="z" unicode="z" horiz-adv-x="504" 
d="M442 91q22 -10 34.5 -27t13 -34.5t-11.5 -33t-39 -22.5q-20 -5 -44 -0.5t-44 6.5q-51 4 -100.5 3t-100.5 -3q-14 -1 -30 -3t-32 -1t-30.5 6t-24.5 19q-12 17 -11.5 34.5t8.5 34t20 32t22 28.5q42 57 88.5 108.5t94.5 104.5q-21 -1 -42.5 -1.5t-43.5 -1.5q-26 -2 -54.5 -6
t-54.5 4q-23 7 -33 22.5t-9 32.5t12 33.5t30 25.5q9 5 19 5t20 1q44 3 85 4.5t86 2.5q14 0 44 2.5t60.5 -0.5t54 -15.5t25.5 -42.5q1 -17 -6 -32t-18.5 -28t-24.5 -24.5t-23 -22.5q-46 -49 -91.5 -98t-87.5 -101q59 1 116.5 -1.5t116.5 -8.5z" />
    <glyph glyph-name="braceleft" unicode="{" horiz-adv-x="351" 
d="M275 -57q13 -6 23.5 -14t18.5 -21q7 -14 5 -28t-9.5 -26t-20 -20t-26.5 -9q-27 -2 -50 9t-44 26q-14 10 -24.5 30t-15.5 36q-9 28 -9.5 57t1.5 58t6 59.5t10 59.5q-29 16 -57.5 40t-43.5 51.5t-10 58t43 58.5q14 11 29.5 21.5t32.5 18.5q-11 33 -19 69t-8.5 72t8.5 70.5
t30 65.5q9 14 24 26.5t32.5 20t36.5 9.5t37 -5q28 -12 38.5 -33t5.5 -41t-24 -33.5t-49 -10.5q-14 -19 -17.5 -41.5t-0.5 -46.5t10 -47t14 -44q6 -18 11 -35t4.5 -32t-9.5 -28t-31 -24q-15 -9 -30 -16.5t-29 -17.5q20 -12 44 -24.5t41 -29.5q9 -9 12 -21.5t3 -23.5
q0 -20 -5.5 -42.5t-9.5 -42.5q-8 -38 -11.5 -77t11.5 -75z" />
    <glyph glyph-name="bar" unicode="|" horiz-adv-x="268" 
d="M74 692q6 20 19.5 33t29.5 17t32.5 -2t28.5 -24q4 -5 7.5 -12t3.5 -13q1 -184 0.5 -365.5t-0.5 -365.5q0 -33 -19 -50t-42 -17t-42 15.5t-19 47.5v730z" />
    <glyph glyph-name="braceright" unicode="}" horiz-adv-x="358" 
d="M104 -51q10 19 12 41.5t0.5 45t-6 44.5t-8.5 42q-4 22 -8 42t-2 37.5t13.5 32t37.5 24.5q12 7 24 13.5t23 14.5q-14 10 -29 17.5t-30 16.5q-21 10 -29.5 23t-9.5 28t3.5 31.5t9.5 33.5q8 23 14.5 46t9 46.5t-1 46t-16.5 43.5q-28 -5 -47 9t-24.5 34.5t4.5 42t38 31.5
q23 8 45 5t41.5 -14.5t35 -28.5t25.5 -37q15 -29 20 -61t2.5 -64.5t-10 -64.5t-17.5 -62q18 -10 39.5 -22.5t35.5 -28.5q29 -32 30 -61t-14.5 -54t-42.5 -46t-56 -36q2 -12 4.5 -23.5t4.5 -19.5q6 -38 10 -77.5t-1 -77.5q-2 -17 -8 -36t-15 -34q-6 -10 -11.5 -17t-11.5 -12
t-13 -10t-16 -11q-23 -15 -44.5 -17t-38.5 5.5t-28 21t-12 30t10 32.5t36 28z" />
    <glyph glyph-name="asciitilde" unicode="~" horiz-adv-x="618" 
d="M465 595q13 13 30 17t33 0.5t28 -15.5t15 -31q4 -25 -11 -42.5t-32 -31.5q-18 -15 -40 -27t-45.5 -18.5t-47.5 -5.5t-47 12q-12 6 -25 15t-26.5 17.5t-27.5 14t-28 3.5q-18 -3 -36 -17t-36 -26.5t-37 -16.5t-38 13q-8 7 -14 15t-8 19q-3 12 0.5 22t10 18.5t15.5 16
t17 14.5q20 17 44.5 29.5t50.5 18.5t53 3.5t51 -14.5q22 -11 42.5 -26t45.5 -19q10 -2 19 2t17 11t14.5 15t12.5 14z" />
    <glyph glyph-name="DEL" horiz-adv-x="500" 
 />
    <glyph glyph-name="Adieresis" unicode="&#xc4;" horiz-adv-x="604" 
d="M577 29q-3 -22 -15 -37.5t-27.5 -21.5t-33 -1.5t-32.5 23.5q-13 16 -14.5 35.5t-5.5 38.5q-10 55 -29 113q-62 -1 -123 -1t-122 -1q-9 -26 -15.5 -53t-12.5 -53q-5 -20 -9 -41.5t-18 -37.5q-17 -20 -36.5 -22.5t-35 6.5t-25 27.5t-6.5 42.5q3 31 12 61t17 60
q45 172 116 333q6 14 12.5 27t12.5 26q7 14 14 30t16.5 29.5t22.5 23t32 9.5q25 0 42 -16q68 -68 112 -153.5t79 -174.5q21 1 41 0t36 -18q14 -14 16.5 -30t-3 -31t-18 -26t-30.5 -15q10 -35 17.5 -71.5t12.5 -73.5v-7zM373 301q-19 45 -40.5 89.5t-48.5 84.5
q-20 -44 -37.5 -87.5t-32.5 -88.5q47 1 82.5 1t76.5 1zM475 770q0 -20 -10.5 -35t-24.5 -26q-19 -13 -30 -15.5t-31 3.5q-18 6 -28 21.5t-12.5 33.5t4.5 35t24 25q14 13 33 17t35.5 -1t28 -19.5t11.5 -38.5zM239 775q0 -16 -9.5 -31t-23.5 -25.5t-31.5 -14t-32.5 2.5
q-19 7 -29.5 20.5t-12.5 29.5t5 31.5t23 27.5q11 9 23 13q14 7 29.5 6t28.5 -9t21.5 -21t8.5 -30z" />
    <glyph glyph-name="Aring" unicode="&#xc5;" horiz-adv-x="604" 
d="M567 29q-3 -22 -15 -37.5t-27.5 -21.5t-33 -1.5t-32.5 23.5q-13 16 -14.5 35.5t-5.5 38.5q-10 55 -29 113q-62 -1 -123 -1t-122 -1q-9 -26 -15.5 -53t-12.5 -53q-5 -20 -9 -41.5t-18 -37.5q-17 -20 -36.5 -22.5t-35 6.5t-25 27.5t-6.5 42.5q5 41 18 84t24 83
q26 91 59.5 177t72.5 171q-5 3 -8 7t-7 8q-23 26 -31 57.5t-1.5 62t26 56t51.5 39.5q33 15 63.5 11t55 -19.5t41 -41t21.5 -54.5t-3.5 -59t-34.5 -56q48 -59 81 -130t60 -141q21 1 41 0t36 -18q14 -14 16.5 -30t-3 -31t-18 -26t-30.5 -15q10 -35 17.5 -71.5t12.5 -73.5v-7z
M363 301q-19 45 -40.5 89.5t-48.5 84.5q-20 -44 -37.5 -87.5t-32.5 -88.5q40 0 79.5 0.5t79.5 1.5zM304 669v10.5t-2 6.5t-7 6.5t-14 9.5q-11 2 -18.5 0t-17.5 -7q-12 -16 -11.5 -28t6 -19t12.5 -10.5t8 -3.5h19q11 3 18 13t7 22z" />
    <glyph glyph-name="Ccedilla" unicode="&#xc7;" horiz-adv-x="551" 
d="M426 -140q0 -70 -39.5 -100.5t-105.5 -35.5q-15 -1 -34 0t-35.5 7t-28 17.5t-12.5 31.5q-2 17 8.5 24t26.5 13q14 5 28 1.5t28 -3.5q8 -1 18.5 -1.5t20 2.5t16 11t5.5 24q-9 5 -24 7t-31.5 3.5t-32.5 4.5t-27 9.5t-15 19t4 33.5q5 11 9.5 22.5t8.5 22.5
q-47 14 -82.5 46.5t-59 75t-34 91t-6.5 94.5q3 35 13 69.5t26 66.5q35 70 95 114.5t132 71.5q21 8 43.5 14t45 7.5t44 -4t40.5 -21.5q9 -8 19.5 -18t19.5 -22t15.5 -24.5t7.5 -25.5q2 -17 -3.5 -31t-16 -23t-24.5 -13t-30 -1q-15 3 -23 11.5t-14 18.5t-12.5 19.5t-17.5 13.5
q-8 0 -12 -1q-45 -12 -86 -33t-71.5 -51.5t-49 -71t-19.5 -91.5q0 -32 9 -63.5t29 -57.5q9 -11 15 -17t18 -14q38 -24 77.5 -20.5t71.5 36.5q12 12 23.5 29t25 30t30 18t38.5 -6q17 -9 24 -22t7 -27.5t-6 -29.5t-15 -27q-37 -51 -79.5 -81t-101.5 -40v-11.5t-1 -11.5
q19 -4 38 -10.5t34 -16.5t24.5 -23.5t10.5 -29.5z" />
    <glyph glyph-name="Eacute" unicode="&#xc9;" horiz-adv-x="515" 
d="M439 124q18 -1 31.5 -9.5t22 -20.5t10 -27.5t-6.5 -31.5q-3 -7 -12.5 -16.5t-17.5 -11.5q-64 -19 -131.5 -23.5t-133.5 2.5q-19 2 -41.5 4t-39.5 13q-31 20 -31 57v426q-11 8 -18 20t-8.5 25.5t3.5 26t17 21.5q20 16 46 21.5t51 9.5q52 8 104 8t106 1q16 0 37 2.5
t37 -3.5q19 -7 30 -22t13 -32t-6.5 -33t-29.5 -25q-25 -10 -53.5 -9t-54.5 1q-38 0 -76 -1t-76 -6v-139q36 -2 72 0t72 5q16 1 32 3t33 0q22 -3 34 -18t14.5 -33.5t-6.5 -36.5t-29 -26q-17 -7 -46 -10.5t-61 -5t-63 -1.5t-52 1v-123q55 -7 111 -2t110 19h7zM359 894
q22 11 41.5 7.5t32 -16.5t16 -33t-7.5 -41q-7 -14 -21.5 -24t-26.5 -19q-27 -21 -54.5 -42t-56.5 -39q-20 -12 -40.5 -10t-35.5 14t-20 31t7 41q7 12 15.5 19.5t19.5 15.5q23 18 38 29t28.5 20.5t28 20t36.5 26.5z" />
    <glyph glyph-name="Ntilde" unicode="&#xd1;" horiz-adv-x="620" 
d="M460 593q6 20 19.5 33t29.5 17t32.5 -2t28.5 -24q4 -5 7.5 -12t3.5 -13q2 -143 -1.5 -285.5t-11.5 -285.5q0 -23 -14.5 -36t-33 -16.5t-37.5 4t-28 25.5q-1 1 -1 2v-2q-65 107 -137 205.5t-150 195.5v-226v-77t-1 -50.5t-2.5 -30.5t-4.5 -19q-9 -24 -27.5 -32t-37.5 -4
t-33 20t-14 40v44v68v81.5v85.5t-0.5 78.5t-0.5 61.5q0 34 -1 67.5t0 67.5q0 17 8.5 29t21.5 18.5t28 7.5t29 -4q12 -4 24.5 -16.5t24.5 -27t22.5 -29t17.5 -23.5q26 -32 60 -73.5t63 -78.5q29 -38 56.5 -76t53.5 -76q3 91 4 181t1 181zM554 810q0 -25 -17.5 -37.5
t-35.5 -26.5q-11 -9 -22 -17t-24 -15q-34 -17 -55.5 -17.5t-40.5 8.5t-39 22.5t-50 23.5q-3 0 -5 -1q-7 -4 -17 -12t-20.5 -16.5t-19.5 -15.5t-15 -9q-16 -4 -34.5 0t-32 14.5t-19 25.5t3.5 33q6 12 25 28.5t42 32t47 26.5t41 13q16 2 32 -3.5t31.5 -14t29.5 -18.5t26 -18
q1 -1 1.5 -1t1.5 -1q19 8 30.5 16.5t16.5 11.5l3 3q4 4 10 7q13 10 31.5 12t35 -3t28 -18t11.5 -33z" />
    <glyph glyph-name="Odieresis" unicode="&#xd6;" horiz-adv-x="677" 
d="M636 255q-17 -56 -43.5 -109.5t-64.5 -95.5t-88.5 -68t-115.5 -26q-42 2 -66.5 7.5t-47.5 16.5q-41 12 -70.5 38.5t-49.5 61.5t-30.5 74.5t-13.5 76.5q-5 65 11 132t51 123.5t88 97t121 53.5q35 6 71 4t70 -14q28 -10 52 -23t46 -33q29 -26 49 -60t29 -71q11 -47 10 -93
t-8 -92zM377 86q30 13 52.5 34.5t39.5 47.5t28.5 55.5t20.5 59.5q6 38 6.5 78t-16.5 76q-14 30 -42.5 51.5t-62.5 30t-68.5 3.5t-61.5 -27q-38 -32 -61.5 -71.5t-35.5 -87.5q-10 -38 -11 -80t13 -80q11 -28 32.5 -51t48.5 -36t57.5 -14.5t60.5 11.5zM566 769
q0 -20 -10.5 -35t-24.5 -26q-19 -13 -30 -15.5t-31 3.5q-18 6 -28 21.5t-12.5 33.5t4.5 35t24 25q14 13 33 17t35.5 -1t28 -19.5t11.5 -38.5zM330 774q0 -16 -9.5 -31t-23.5 -25.5t-31.5 -14t-32.5 2.5q-19 7 -29.5 20.5t-12.5 29.5t5 31.5t23 27.5q11 9 23 13q14 7 29.5 6
t28.5 -9t21.5 -21t8.5 -30z" />
    <glyph glyph-name="Udieresis" unicode="&#xdc;" horiz-adv-x="615" 
d="M464 573q6 20 19.5 33t29.5 17t32.5 -2t28.5 -24q4 -5 7.5 -12t3.5 -13q0 -11 -1 -37t-1.5 -53t-1.5 -48t-1 -22q-2 -54 -7 -107.5t-14 -107.5q-8 -42 -19 -77.5t-30 -63t-48 -47.5t-72 -32q-17 -5 -35.5 -7t-35.5 -2q-50 0 -102 19q-59 23 -89 76t-42 118.5t-11.5 132.5
t0.5 118q0 21 0.5 42.5t1.5 42.5q0 15 1 31.5t6 31.5t15.5 26t29.5 15q11 2 23.5 -2t22.5 -11.5t17 -18t7 -22.5v-25.5v-17t-0.5 -15.5t-0.5 -21q-2 -66 -2 -131.5t8 -130.5q3 -27 9 -56t24 -50q16 -19 41.5 -26.5t52 -4.5t50 15t36.5 32t20 47t10.5 56t5 57.5t2.5 52.5
q2 28 3 48t2 48q1 21 1 42t1 42zM539 749q0 -20 -10.5 -35t-24.5 -26q-19 -13 -30 -15.5t-31 3.5q-18 6 -28 21.5t-12.5 33.5t4.5 35t24 25q14 13 33 17t35.5 -1t28 -19.5t11.5 -38.5zM303 754q0 -16 -9.5 -31t-23.5 -25.5t-31.5 -14t-32.5 2.5q-19 7 -29.5 20.5t-12.5 29.5
t5 31.5t23 27.5q11 9 23 13q14 7 29.5 6t28.5 -9t21.5 -21t8.5 -30z" />
    <glyph glyph-name="aacute" unicode="&#xe1;" 
d="M491 44q8 -29 -3 -48t-30.5 -25.5t-42.5 1.5t-40 32q-28 -21 -54.5 -29.5t-60.5 -9.5q-51 -2 -91 11.5t-67.5 40.5t-40.5 67.5t-9 93.5q2 22 7.5 43t12.5 41q8 22 22.5 47t29.5 43q54 66 135 95q14 5 38 9t48.5 3.5t47 -6.5t33.5 -21q9 -12 13 -21t4.5 -19t0 -21.5
t-0.5 -28.5q0 -28 -0.5 -54.5t0.5 -53.5v-23.5t1 -30.5t2.5 -30.5t4.5 -23.5zM279 89q11 7 25 15.5t25 19.5q-9 53 -10.5 106t0.5 107q-45 -8 -81 -39t-50 -73q-6 -17 -10 -35t-3 -35q1 -23 12 -38.5t26.5 -23.5t33 -9t32.5 5zM311 729q22 11 41.5 7.5t32 -16.5t16 -33
t-7.5 -41q-7 -14 -21.5 -24t-26.5 -19q-27 -21 -54.5 -42t-56.5 -39q-20 -12 -40.5 -10t-35.5 14t-20 31t7 41q7 12 15.5 19.5t19.5 15.5q23 18 38 29t28.5 20.5t28 20t36.5 26.5z" />
    <glyph glyph-name="agrave" unicode="&#xe0;" 
d="M486 44q8 -29 -3 -48t-30.5 -25.5t-42.5 1.5t-40 32q-28 -21 -54.5 -29.5t-60.5 -9.5q-51 -2 -91 11.5t-67.5 40.5t-40.5 67.5t-9 93.5q2 22 7.5 43t12.5 41q8 22 22.5 47t29.5 43q54 66 135 95q14 5 38 9t48.5 3.5t47 -6.5t33.5 -21q9 -12 13 -21t4.5 -19t0 -21.5
t-0.5 -28.5q0 -28 -0.5 -54.5t0.5 -53.5v-23.5t1 -30.5t2.5 -30.5t4.5 -23.5zM274 89q11 7 25 15.5t25 19.5q-9 53 -10.5 106t0.5 107q-45 -8 -81 -39t-50 -73q-6 -17 -10 -35t-3 -35q1 -23 12 -38.5t26.5 -23.5t33 -9t32.5 5zM117 661q-15 18 -18 38.5t5.5 37t26.5 25
t43 2.5q17 -5 29 -17t25 -23q29 -23 58.5 -48t55.5 -52q17 -17 17.5 -37t-9.5 -35.5t-29 -24t-41 -2.5q-12 3 -34.5 21t-47 40t-46.5 42.5t-31 28.5z" />
    <glyph glyph-name="acircumflex" unicode="&#xe2;" 
d="M488 44q8 -29 -3 -48t-30.5 -25.5t-42.5 1.5t-40 32q-28 -21 -54.5 -29.5t-60.5 -9.5q-51 -2 -91 11.5t-67.5 40.5t-40.5 67.5t-9 93.5q2 22 7.5 43t12.5 41q8 22 22.5 47t29.5 43q54 66 135 95q14 5 38 9t48.5 3.5t47 -6.5t33.5 -21q9 -12 13 -21t4.5 -19t0 -21.5
t-0.5 -28.5q0 -28 -0.5 -54.5t0.5 -53.5v-23.5t1 -30.5t2.5 -30.5t4.5 -23.5zM276 89q11 7 25 15.5t25 19.5q-9 53 -10.5 106t0.5 107q-45 -8 -81 -39t-50 -73q-6 -17 -10 -35t-3 -35q1 -23 12 -38.5t26.5 -23.5t33 -9t32.5 5zM209 548q-14 -10 -32 -13t-33.5 1t-25 16
t-6.5 33q4 27 22.5 43t38.5 32q19 16 38 31.5t39 31.5q14 12 29.5 10t30 -10.5t27.5 -19.5t22 -19q10 -8 22.5 -17t24.5 -18.5t21 -20t12 -22.5q7 -28 -3 -42t-27 -18t-37 1t-34 15q-15 11 -29 22.5t-28 22.5q-18 -15 -36 -29.5t-36 -29.5z" />
    <glyph glyph-name="adieresis" unicode="&#xe4;" 
d="M490 44q8 -29 -3 -48t-30.5 -25.5t-42.5 1.5t-40 32q-28 -21 -54.5 -29.5t-60.5 -9.5q-51 -2 -91 11.5t-67.5 40.5t-40.5 67.5t-9 93.5q2 22 7.5 43t12.5 41q8 22 22.5 47t29.5 43q54 66 135 95q14 5 38 9t48.5 3.5t47 -6.5t33.5 -21q9 -12 13 -21t4.5 -19t0 -21.5
t-0.5 -28.5q0 -28 -0.5 -54.5t0.5 -53.5v-23.5t1 -30.5t2.5 -30.5t4.5 -23.5zM278 89q11 7 25 15.5t25 19.5q-9 53 -10.5 106t0.5 107q-45 -8 -81 -39t-50 -73q-6 -17 -10 -35t-3 -35q1 -23 12 -38.5t26.5 -23.5t33 -9t32.5 5zM463 621q0 -20 -10.5 -35t-24.5 -26
q-19 -13 -30 -15.5t-31 3.5q-18 6 -28 21.5t-12.5 33.5t4.5 35t24 25q14 13 33 17t35.5 -1t28 -19.5t11.5 -38.5zM227 626q0 -16 -9.5 -31t-23.5 -25.5t-31.5 -14t-32.5 2.5q-19 7 -29.5 20.5t-12.5 29.5t5 31.5t23 27.5q11 9 23 13q14 7 29.5 6t28.5 -9t21.5 -21t8.5 -30z
" />
    <glyph glyph-name="atilde" unicode="&#xe3;" 
d="M486 44q8 -29 -3 -48t-30.5 -25.5t-42.5 1.5t-40 32q-28 -21 -54.5 -29.5t-60.5 -9.5q-51 -2 -91 11.5t-67.5 40.5t-40.5 67.5t-9 93.5q2 22 7.5 43t12.5 41q8 22 22.5 47t29.5 43q54 66 135 95q14 5 38 9t48.5 3.5t47 -6.5t33.5 -21q9 -12 13 -21t4.5 -19t0 -21.5
t-0.5 -28.5q0 -28 -0.5 -54.5t0.5 -53.5v-23.5t1 -30.5t2.5 -30.5t4.5 -23.5zM274 89q11 7 25 15.5t25 19.5q-9 53 -10.5 106t0.5 107q-45 -8 -81 -39t-50 -73q-6 -17 -10 -35t-3 -35q1 -23 12 -38.5t26.5 -23.5t33 -9t32.5 5zM490 649q0 -25 -17.5 -37.5t-35.5 -26.5
q-11 -9 -22 -17t-24 -15q-34 -17 -55.5 -17.5t-40.5 8.5t-39 22.5t-50 23.5q-3 0 -5 -1q-7 -4 -17 -12t-20.5 -16.5t-19.5 -15.5t-15 -9q-16 -4 -34.5 0t-32 14.5t-19 25.5t3.5 33q6 12 25 28.5t42 32t47 26.5t41 13q16 2 32 -3.5t31.5 -14t29.5 -18.5t26 -18q1 -1 1.5 -1
t1.5 -1q19 8 30.5 16.5t16.5 11.5l3 3q4 4 10 7q13 10 31.5 12t35 -3t28 -18t11.5 -33z" />
    <glyph glyph-name="aring" unicode="&#xe5;" 
d="M491 44q8 -29 -3 -48t-30.5 -25.5t-42.5 1.5t-40 32q-28 -21 -54.5 -29.5t-60.5 -9.5q-51 -2 -91 11.5t-67.5 40.5t-40.5 67.5t-9 93.5q2 22 7.5 43t12.5 41q8 22 22.5 47t29.5 43q54 66 135 95q14 5 38 9t48.5 3.5t47 -6.5t33.5 -21q9 -12 13 -21t4.5 -19t0 -21.5
t-0.5 -28.5q0 -28 -0.5 -54.5t0.5 -53.5v-23.5t1 -30.5t2.5 -30.5t4.5 -23.5zM279 89q11 7 25 15.5t25 19.5q-9 53 -10.5 106t0.5 107q-45 -8 -81 -39t-50 -73q-6 -17 -10 -35t-3 -35q1 -23 12 -38.5t26.5 -23.5t33 -9t32.5 5zM436 651q0 -43 -19 -72.5t-47.5 -45
t-62.5 -16.5t-63.5 12t-50 41t-22.5 70q-3 47 16 77.5t48.5 46t64.5 16t65 -14t50.5 -43t20.5 -71.5zM339 649q0 8 -5.5 16t-14.5 13t-19.5 5t-20.5 -8q-7 -9 -8.5 -21t2 -22.5t12.5 -16t24 -2.5q14 4 22 13t8 23z" />
    <glyph glyph-name="ccedilla" unicode="&#xe7;" horiz-adv-x="466" 
d="M395 -135q0 -70 -39.5 -100.5t-105.5 -35.5q-15 -1 -34 0t-35.5 7t-28 17.5t-12.5 31.5q-2 17 8.5 23.5t26.5 12.5q17 6 29.5 2t26.5 -4q8 -1 18.5 -1t20 3.5t16 11.5t5.5 23q-15 9 -41 9.5t-49 5t-35 18.5t1 48q5 11 8.5 21.5t7.5 21.5q-43 15 -72 43.5t-45 65t-19.5 80
t2.5 88.5q5 32 18 61t29 56q11 18 28 37t34 30q29 19 54 26.5t60 10.5q19 1 46.5 -7t54 -22.5t45.5 -34t22 -41.5q2 -16 -4 -29.5t-17 -22.5t-25.5 -12.5t-29.5 0.5q-18 5 -28.5 13.5t-27.5 22.5q-7 7 -18 8.5t-23 -0.5t-23 -6t-18 -8q-20 -20 -33.5 -40.5t-20.5 -47.5
q-9 -36 -4.5 -75t30.5 -67q18 -18 34 -20.5t31 3t29.5 16.5t29 19.5t30.5 12.5t34 -5q11 -5 18.5 -14.5t10.5 -21t2 -23.5t-7 -22q-9 -15 -22.5 -29t-29.5 -24.5t-34 -17.5t-35 -9q1 -5 0.5 -9t-1.5 -9q19 -4 37.5 -10.5t33.5 -17t24.5 -26t11.5 -37.5z" />
    <glyph glyph-name="eacute" unicode="&#xe9;" horiz-adv-x="496" 
d="M427 134q24 6 42.5 0.5t28.5 -18.5t9 -32t-17 -40q-13 -17 -36 -29t-43 -19q-49 -18 -93 -25t-82.5 0t-72 29t-62.5 62q-20 27 -29.5 61.5t-10.5 70.5t6 71t20 63q17 35 54 64t82 46t92 19.5t83 -14.5q30 -14 51.5 -40.5t29.5 -57.5t1.5 -62.5t-32.5 -57.5
q-25 -25 -55 -40.5t-62 -27t-65.5 -19.5t-64.5 -18q21 -24 48 -30.5t56.5 -2.5t59.5 16.5t56 27.5zM225 306q-23 -13 -34 -32.5t-16 -54.5q26 8 58.5 17t61.5 19t49 22t20 26q0 8 -2.5 15.5t-10.5 10.5q-28 10 -58 4t-50 -17zM340 738q22 11 41.5 7.5t32 -16.5t16 -33
t-7.5 -41q-7 -14 -21.5 -24t-26.5 -19q-27 -21 -54.5 -42t-56.5 -39q-20 -12 -40.5 -10t-35.5 14t-20 31t7 41q7 12 15.5 19.5t19.5 15.5q23 18 38 29t28.5 20.5t28 20t36.5 26.5z" />
    <glyph glyph-name="egrave" unicode="&#xe8;" horiz-adv-x="496" 
d="M424 134q24 6 42.5 0.5t28.5 -18.5t9 -32t-17 -40q-13 -17 -36 -29t-43 -19q-49 -18 -93 -25t-82.5 0t-72 29t-62.5 62q-20 27 -29.5 61.5t-10.5 70.5t6 71t20 63q17 35 54 64t82 46t92 19.5t83 -14.5q30 -14 51.5 -40.5t29.5 -57.5t1.5 -62.5t-32.5 -57.5
q-25 -25 -55 -40.5t-62 -27t-65.5 -19.5t-64.5 -18q21 -24 48 -30.5t56.5 -2.5t59.5 16.5t56 27.5zM222 306q-23 -13 -34 -32.5t-16 -54.5q26 8 58.5 17t61.5 19t49 22t20 26q0 8 -2.5 15.5t-10.5 10.5q-28 10 -58 4t-50 -17zM167 659q-15 18 -18 38.5t5.5 37t26.5 25
t43 2.5q17 -5 29 -17t25 -23q29 -23 58.5 -48t55.5 -52q17 -17 17.5 -37t-9.5 -35.5t-29 -24t-41 -2.5q-12 3 -34.5 21t-47 40t-46.5 42.5t-31 28.5z" />
    <glyph glyph-name="ecircumflex" unicode="&#xea;" horiz-adv-x="496" 
d="M424 134q24 6 42.5 0.5t28.5 -18.5t9 -32t-17 -40q-13 -17 -36 -29t-43 -19q-49 -18 -93 -25t-82.5 0t-72 29t-62.5 62q-20 27 -29.5 61.5t-10.5 70.5t6 71t20 63q17 35 54 64t82 46t92 19.5t83 -14.5q30 -14 51.5 -40.5t29.5 -57.5t1.5 -62.5t-32.5 -57.5
q-25 -25 -55 -40.5t-62 -27t-65.5 -19.5t-64.5 -18q21 -24 48 -30.5t56.5 -2.5t59.5 16.5t56 27.5zM222 306q-23 -13 -34 -32.5t-16 -54.5q26 8 58.5 17t61.5 19t49 22t20 26q0 8 -2.5 15.5t-10.5 10.5q-28 10 -58 4t-50 -17zM246 544q-14 -10 -32 -13t-33.5 1t-25 16
t-6.5 33q4 27 22.5 43t38.5 32q19 16 38 31.5t39 31.5q14 12 29.5 10t30 -10.5t27.5 -19.5t22 -19q10 -8 22.5 -17t24.5 -18.5t21 -20t12 -22.5q7 -28 -3 -42t-27 -18t-37 1t-34 15q-15 11 -29 22.5t-28 22.5q-18 -15 -36 -29.5t-36 -29.5z" />
    <glyph glyph-name="edieresis" unicode="&#xeb;" horiz-adv-x="496" 
d="M409 134q24 6 42.5 0.5t28.5 -18.5t9 -32t-17 -40q-13 -17 -36 -29t-43 -19q-49 -18 -93 -25t-82.5 0t-72 29t-62.5 62q-20 27 -29.5 61.5t-10.5 70.5t6 71t20 63q17 35 54 64t82 46t92 19.5t83 -14.5q30 -14 51.5 -40.5t29.5 -57.5t1.5 -62.5t-32.5 -57.5
q-25 -25 -55 -40.5t-62 -27t-65.5 -19.5t-64.5 -18q21 -24 48 -30.5t56.5 -2.5t59.5 16.5t56 27.5zM207 306q-23 -13 -34 -32.5t-16 -54.5q26 8 58.5 17t61.5 19t49 22t20 26q0 8 -2.5 15.5t-10.5 10.5q-28 10 -58 4t-50 -17zM469 613q0 -20 -10.5 -35t-24.5 -26
q-19 -13 -30 -15.5t-31 3.5q-18 6 -28 21.5t-12.5 33.5t4.5 35t24 25q14 13 33 17t35.5 -1t28 -19.5t11.5 -38.5zM233 618q0 -16 -9.5 -31t-23.5 -25.5t-31.5 -14t-32.5 2.5q-19 7 -29.5 20.5t-12.5 29.5t5 31.5t23 27.5q11 9 23 13q14 7 29.5 6t28.5 -9t21.5 -21t8.5 -30z
" />
    <glyph glyph-name="iacute" unicode="&#xed;" horiz-adv-x="264" 
d="M67 445q5 17 16.5 30t26 19t30.5 3t29 -18q17 -19 22 -45t4.5 -53.5t-4 -53t-3.5 -43.5v-80.5t1 -78.5q0 -12 1 -28t1 -32.5t-2.5 -33t-10.5 -28.5q-10 -15 -25.5 -21.5t-31.5 -4t-29.5 12.5t-18.5 27q-9 29 -7 62.5t2 60.5q0 25 -0.5 49.5t-0.5 50.5v99t-1 100zM195 761
q22 11 41.5 7.5t32 -16.5t16 -33t-7.5 -41q-7 -14 -21.5 -24t-26.5 -19q-27 -21 -54.5 -42t-56.5 -39q-20 -12 -40.5 -10t-35.5 14t-20 31t7 41q7 12 15.5 19.5t19.5 15.5q23 18 38 29t28.5 20.5t28 20t36.5 26.5z" />
    <glyph glyph-name="igrave" unicode="&#xec;" horiz-adv-x="259" 
d="M62 445q5 17 16.5 30t26 19t30.5 3t29 -18q17 -19 22 -45t4.5 -53.5t-4 -53t-3.5 -43.5v-80.5t1 -78.5q0 -12 1 -28t1 -32.5t-2.5 -33t-10.5 -28.5q-10 -15 -25.5 -21.5t-31.5 -4t-29.5 12.5t-18.5 27q-9 29 -7 62.5t2 60.5q0 25 -0.5 49.5t-0.5 50.5v99t-1 100zM28 670
q-15 18 -18 38.5t5.5 37t26.5 25t43 2.5q17 -5 29 -17t25 -23q29 -23 58.5 -48t55.5 -52q17 -17 17.5 -37t-9.5 -35.5t-29 -24t-41 -2.5q-12 3 -34.5 21t-47 40t-46.5 42.5t-31 28.5z" />
    <glyph glyph-name="icircumflex" unicode="&#xee;" horiz-adv-x="303" 
d="M90 445q5 17 16.5 30t26 19t30.5 3t29 -18q17 -19 22 -45t4.5 -53.5t-4 -53t-3.5 -43.5v-80.5t1 -78.5q0 -12 1 -28t1 -32.5t-2.5 -33t-10.5 -28.5q-10 -15 -25.5 -21.5t-31.5 -4t-29.5 12.5t-18.5 27q-9 29 -7 62.5t2 60.5q0 25 -0.5 49.5t-0.5 50.5v99t-1 100zM91 560
q-14 -10 -32 -13t-33.5 1t-25 16t-6.5 33q4 27 22.5 43t38.5 32q19 16 38 31.5t39 31.5q14 12 29.5 10t30 -10.5t27.5 -19.5t22 -19q10 -8 22.5 -17t24.5 -18.5t21 -20t12 -22.5q7 -28 -3 -42t-27 -18t-37 1t-34 15q-15 11 -29 22.5t-28 22.5q-18 -15 -36 -29.5t-36 -29.5z
" />
    <glyph glyph-name="idieresis" unicode="&#xef;" horiz-adv-x="313" 
d="M85 442q5 17 16.5 30t26 19t30.5 3t29 -18q17 -19 22 -45t4.5 -53.5t-4 -53t-3.5 -43.5v-80.5t1 -78.5q0 -12 1 -28t1 -32.5t-2.5 -33t-10.5 -28.5q-10 -15 -25.5 -21.5t-31.5 -4t-29.5 12.5t-18.5 27q-9 29 -7 62.5t2 60.5q0 25 -0.5 49.5t-0.5 50.5v99t-1 100zM353 611
q0 -20 -10.5 -35t-24.5 -26q-19 -13 -30 -15.5t-31 3.5q-18 6 -28 21.5t-12.5 33.5t4.5 35t24 25q14 13 33 17t35.5 -1t28 -19.5t11.5 -38.5zM117 616q0 -16 -9.5 -31t-23.5 -25.5t-31.5 -14t-32.5 2.5q-19 7 -29.5 20.5t-12.5 29.5t5 31.5t23 27.5q11 9 23 13q14 7 29.5 6
t28.5 -9t21.5 -21t8.5 -30z" />
    <glyph glyph-name="ntilde" unicode="&#xf1;" horiz-adv-x="482" 
d="M453 26q-3 -25 -18.5 -41t-35 -20t-37.5 5t-26 35q-9 28 -7 58.5t2 56.5q0 54 0.5 107.5t-4.5 107.5q-1 2 -2 3.5t-4 4.5q-23 6 -49 -3t-44 -23q-16 -13 -31.5 -35.5t-15.5 -43.5v-138q0 -16 1 -35t-1.5 -37t-11.5 -33t-29 -22q-11 -4 -20.5 -3t-20.5 5q-18 6 -26 20.5
t-11 31t-2.5 32t0.5 24.5q0 23 -0.5 66.5t-0.5 91.5v91.5v66.5q0 22 13 36.5t30.5 19t37 -2t32.5 -26.5q40 26 88 35t90.5 -3t71 -45t29.5 -91q0 -2 1 -12t1 -28v-256zM498 644q0 -25 -17.5 -37.5t-35.5 -26.5q-11 -9 -22 -17t-24 -15q-34 -17 -55.5 -17.5t-40.5 8.5
t-39 22.5t-50 23.5q-3 0 -5 -1q-7 -4 -17 -12t-20.5 -16.5t-19.5 -15.5t-15 -9q-16 -4 -34.5 0t-32 14.5t-19 25.5t3.5 33q6 12 25 28.5t42 32t47 26.5t41 13q16 2 32 -3.5t31.5 -14t29.5 -18.5t26 -18q1 -1 1.5 -1t1.5 -1q19 8 30.5 16.5t16.5 11.5l3 3q4 4 10 7
q13 10 31.5 12t35 -3t28 -18t11.5 -33z" />
    <glyph glyph-name="oacute" unicode="&#xf3;" horiz-adv-x="520" 
d="M84 239q7 29 19.5 57t30.5 53.5t40.5 46.5t48.5 34q46 24 92.5 24.5t86.5 -18.5t68 -56.5t37 -89.5q5 -34 5.5 -64.5t-6.5 -63.5q-10 -47 -40.5 -93.5t-73 -78t-93 -41.5t-101.5 16q-23 11 -41.5 25.5t-33.5 34.5q-17 22 -26.5 46t-15.5 50q-7 28 -5 56.5t7 55.5z
M204 218q-3 -16 -5 -31.5t0 -31.5q3 -23 12.5 -42t25 -30t35.5 -11.5t43 12.5q29 17 50 52.5t26 74t-8 73t-51 49.5q-25 0 -46 -9.5t-36.5 -25t-27 -36.5t-18.5 -44zM342 724q22 11 41.5 7.5t32 -16.5t16 -33t-7.5 -41q-7 -14 -21.5 -24t-26.5 -19q-27 -21 -54.5 -42
t-56.5 -39q-20 -12 -40.5 -10t-35.5 14t-20 31t7 41q7 12 15.5 19.5t19.5 15.5q23 18 38 29t28.5 20.5t28 20t36.5 26.5z" />
    <glyph glyph-name="ograve" unicode="&#xf2;" horiz-adv-x="520" 
d="M84 239q7 29 19.5 57t30.5 53.5t40.5 46.5t48.5 34q46 24 92.5 24.5t86.5 -18.5t68 -56.5t37 -89.5q5 -34 5.5 -64.5t-6.5 -63.5q-10 -47 -40.5 -93.5t-73 -78t-93 -41.5t-101.5 16q-23 11 -41.5 25.5t-33.5 34.5q-17 22 -26.5 46t-15.5 50q-7 28 -5 56.5t7 55.5z
M204 218q-3 -16 -5 -31.5t0 -31.5q3 -23 12.5 -42t25 -30t35.5 -11.5t43 12.5q29 17 50 52.5t26 74t-8 73t-51 49.5q-25 0 -46 -9.5t-36.5 -25t-27 -36.5t-18.5 -44zM183 646q-15 18 -18 38.5t5.5 37t26.5 25t43 2.5q17 -5 29 -17t25 -23q29 -23 58.5 -48t55.5 -52
q17 -17 17.5 -37t-9.5 -35.5t-29 -24t-41 -2.5q-12 3 -34.5 21t-47 40t-46.5 42.5t-31 28.5z" />
    <glyph glyph-name="ocircumflex" unicode="&#xf4;" horiz-adv-x="504" 
d="M73 239q7 29 19.5 57t30.5 53.5t40.5 46.5t48.5 34q46 24 92.5 24.5t86.5 -18.5t68 -56.5t37 -89.5q5 -34 5.5 -64.5t-6.5 -63.5q-10 -47 -40.5 -93.5t-73 -78t-93 -41.5t-101.5 16q-23 11 -41.5 25.5t-33.5 34.5q-17 22 -26.5 46t-15.5 50q-7 28 -5 56.5t7 55.5z
M193 218q-3 -16 -5 -31.5t0 -31.5q3 -23 12.5 -42t25 -30t35.5 -11.5t43 12.5q29 17 50 52.5t26 74t-8 73t-51 49.5q-25 0 -46 -9.5t-36.5 -25t-27 -36.5t-18.5 -44zM238 538q-14 -10 -32 -13t-33.5 1t-25 16t-6.5 33q4 27 22.5 43t38.5 32q19 16 38 31.5t39 31.5
q14 12 29.5 10t30 -10.5t27.5 -19.5t22 -19q10 -8 22.5 -17t24.5 -18.5t21 -20t12 -22.5q7 -28 -3 -42t-27 -18t-37 1t-34 15q-15 11 -29 22.5t-28 22.5q-18 -15 -36 -29.5t-36 -29.5z" />
    <glyph glyph-name="odieresis" unicode="&#xf6;" horiz-adv-x="520" 
d="M73 239q7 29 19.5 57t30.5 53.5t40.5 46.5t48.5 34q46 24 92.5 24.5t86.5 -18.5t68 -56.5t37 -89.5q5 -34 5.5 -64.5t-6.5 -63.5q-10 -47 -40.5 -93.5t-73 -78t-93 -41.5t-101.5 16q-23 11 -41.5 25.5t-33.5 34.5q-17 22 -26.5 46t-15.5 50q-7 28 -5 56.5t7 55.5z
M193 218q-3 -16 -5 -31.5t0 -31.5q3 -23 12.5 -42t25 -30t35.5 -11.5t43 12.5q29 17 50 52.5t26 74t-8 73t-51 49.5q-25 0 -46 -9.5t-36.5 -25t-27 -36.5t-18.5 -44zM493 600q0 -20 -10.5 -35t-24.5 -26q-19 -13 -30 -15.5t-31 3.5q-18 6 -28 21.5t-12.5 33.5t4.5 35t24 25
q14 13 33 17t35.5 -1t28 -19.5t11.5 -38.5zM257 605q0 -16 -9.5 -31t-23.5 -25.5t-31.5 -14t-32.5 2.5q-19 7 -29.5 20.5t-12.5 29.5t5 31.5t23 27.5q11 9 23 13q14 7 29.5 6t28.5 -9t21.5 -21t8.5 -30z" />
    <glyph glyph-name="otilde" unicode="&#xf5;" horiz-adv-x="540" 
d="M83 239q7 29 19.5 57t30.5 53.5t40.5 46.5t48.5 34q46 24 92.5 24.5t86.5 -18.5t68 -56.5t37 -89.5q5 -34 5.5 -64.5t-6.5 -63.5q-10 -47 -40.5 -93.5t-73 -78t-93 -41.5t-101.5 16q-23 11 -41.5 25.5t-33.5 34.5q-17 22 -26.5 46t-15.5 50q-7 28 -5 56.5t7 55.5z
M203 218q-3 -16 -5 -31.5t0 -31.5q3 -23 12.5 -42t25 -30t35.5 -11.5t43 12.5q29 17 50 52.5t26 74t-8 73t-51 49.5q-25 0 -46 -9.5t-36.5 -25t-27 -36.5t-18.5 -44zM545 647q0 -25 -17.5 -37.5t-35.5 -26.5q-11 -9 -22 -17t-24 -15q-34 -17 -55.5 -17.5t-40.5 8.5t-39 22.5
t-50 23.5q-3 0 -5 -1q-7 -4 -17 -12t-20.5 -16.5t-19.5 -15.5t-15 -9q-16 -4 -34.5 0t-32 14.5t-19 25.5t3.5 33q6 12 25 28.5t42 32t47 26.5t41 13q16 2 32 -3.5t31.5 -14t29.5 -18.5t26 -18q1 -1 1.5 -1t1.5 -1q19 8 30.5 16.5t16.5 11.5l3 3q4 4 10 7q13 10 31.5 12
t35 -3t28 -18t11.5 -33z" />
    <glyph glyph-name="uacute" unicode="&#xfa;" horiz-adv-x="559" 
d="M540 78q9 -13 10.5 -30.5t-4 -33t-18 -25.5t-32.5 -9q-26 2 -42 18t-30 36q-39 -32 -80.5 -44.5t-81.5 -5.5t-75 33.5t-59 71.5q-22 42 -24.5 93t-1.5 97q0 16 1 31.5t2 32.5q1 13 1 25.5t1.5 23.5t6 22t13.5 21q12 13 29 15.5t32.5 -3.5t27 -18.5t12.5 -30.5
q2 -51 -2.5 -103t0.5 -102q2 -24 12.5 -49t33.5 -36q23 -10 46.5 1.5t38.5 27.5q7 8 13.5 17.5t14.5 16.5q-4 35 -5 70t0 70q0 19 1.5 41.5t8 43t19.5 36t37 19.5q11 2 21.5 -2t18.5 -11q14 -12 19 -27t5 -32t-2.5 -34.5t-3.5 -32.5q-2 -28 -3 -59t2 -62t11.5 -60t25.5 -53z
M362 716q22 11 41.5 7.5t32 -16.5t16 -33t-7.5 -41q-7 -14 -21.5 -24t-26.5 -19q-27 -21 -54.5 -42t-56.5 -39q-20 -12 -40.5 -10t-35.5 14t-20 31t7 41q7 12 15.5 19.5t19.5 15.5q23 18 38 29t28.5 20.5t28 20t36.5 26.5z" />
    <glyph glyph-name="ugrave" unicode="&#xf9;" horiz-adv-x="559" 
d="M534 78q9 -13 10.5 -30.5t-4 -33t-18 -25.5t-32.5 -9q-26 2 -42 18t-30 36q-39 -32 -80.5 -44.5t-81.5 -5.5t-75 33.5t-59 71.5q-22 42 -24.5 93t-1.5 97q0 16 1 31.5t2 32.5q1 13 1 25.5t1.5 23.5t6 22t13.5 21q12 13 29 15.5t32.5 -3.5t27 -18.5t12.5 -30.5
q2 -51 -2.5 -103t0.5 -102q2 -24 12.5 -49t33.5 -36q23 -10 46.5 1.5t38.5 27.5q7 8 13.5 17.5t14.5 16.5q-4 35 -5 70t0 70q0 19 1.5 41.5t8 43t19.5 36t37 19.5q11 2 21.5 -2t18.5 -11q14 -12 19 -27t5 -32t-2.5 -34.5t-3.5 -32.5q-2 -28 -3 -59t2 -62t11.5 -60t25.5 -53z
M205 629q-15 18 -18 38.5t5.5 37t26.5 25t43 2.5q17 -5 29 -17t25 -23q29 -23 58.5 -48t55.5 -52q17 -17 17.5 -37t-9.5 -35.5t-29 -24t-41 -2.5q-12 3 -34.5 21t-47 40t-46.5 42.5t-31 28.5z" />
    <glyph glyph-name="ucircumflex" unicode="&#xfb;" horiz-adv-x="559" 
d="M512 78q9 -13 10.5 -30.5t-4 -33t-18 -25.5t-32.5 -9q-26 2 -42 18t-30 36q-39 -32 -80.5 -44.5t-81.5 -5.5t-75 33.5t-59 71.5q-22 42 -24.5 93t-1.5 97q0 16 1 31.5t2 32.5q1 13 1 25.5t1.5 23.5t6 22t13.5 21q12 13 29 15.5t32.5 -3.5t27 -18.5t12.5 -30.5
q2 -51 -2.5 -103t0.5 -102q2 -24 12.5 -49t33.5 -36q23 -10 46.5 1.5t38.5 27.5q7 8 13.5 17.5t14.5 16.5q-4 35 -5 70t0 70q0 19 1.5 41.5t8 43t19.5 36t37 19.5q11 2 21.5 -2t18.5 -11q14 -12 19 -27t5 -32t-2.5 -34.5t-3.5 -32.5q-2 -28 -3 -59t2 -62t11.5 -60t25.5 -53z
M223 539q-14 -10 -32 -13t-33.5 1t-25 16t-6.5 33q4 27 22.5 43t38.5 32q19 16 38 31.5t39 31.5q14 12 29.5 10t30 -10.5t27.5 -19.5t22 -19q10 -8 22.5 -17t24.5 -18.5t21 -20t12 -22.5q7 -28 -3 -42t-27 -18t-37 1t-34 15q-15 11 -29 22.5t-28 22.5q-18 -15 -36 -29.5
t-36 -29.5z" />
    <glyph glyph-name="udieresis" unicode="&#xfc;" horiz-adv-x="559" 
d="M492 78q9 -13 10.5 -30.5t-4 -33t-18 -25.5t-32.5 -9q-26 2 -42 18t-30 36q-39 -32 -80.5 -44.5t-81.5 -5.5t-75 33.5t-59 71.5q-22 42 -24.5 93t-1.5 97q0 16 1 31.5t2 32.5q1 13 1 25.5t1.5 23.5t6 22t13.5 21q12 13 29 15.5t32.5 -3.5t27 -18.5t12.5 -30.5
q2 -51 -2.5 -103t0.5 -102q2 -24 12.5 -49t33.5 -36q23 -10 46.5 1.5t38.5 27.5q7 8 13.5 17.5t14.5 16.5q-4 35 -5 70t0 70q0 19 1.5 41.5t8 43t19.5 36t37 19.5q11 2 21.5 -2t18.5 -11q14 -12 19 -27t5 -32t-2.5 -34.5t-3.5 -32.5q-2 -28 -3 -59t2 -62t11.5 -60t25.5 -53z
M466 603q0 -20 -10.5 -35t-24.5 -26q-19 -13 -30 -15.5t-31 3.5q-18 6 -28 21.5t-12.5 33.5t4.5 35t24 25q14 13 33 17t35.5 -1t28 -19.5t11.5 -38.5zM230 608q0 -16 -9.5 -31t-23.5 -25.5t-31.5 -14t-32.5 2.5q-19 7 -29.5 20.5t-12.5 29.5t5 31.5t23 27.5q11 9 23 13
q14 7 29.5 6t28.5 -9t21.5 -21t8.5 -30z" />
    <glyph glyph-name="dagger" unicode="&#x2020;" horiz-adv-x="440" 
d="M93 427q-20 5 -34.5 17t-20 28t0 33t24.5 31q10 8 23.5 10.5t28 3t28 -0.5t23.5 -1q0 17 -1 32.5t0 30.5t5.5 29t16.5 27t29 15.5t33 -3t27.5 -18.5t11.5 -31v-82h79q18 0 31 -11.5t18.5 -27.5t3 -33t-15.5 -29q-12 -11 -26 -16t-28.5 -6t-30 0t-31.5 1v-103
q0 -40 -0.5 -75t-0.5 -43q0 -30 -19 -43.5t-41.5 -12.5t-41.5 15.5t-19 39.5v222h-66z" />
    <glyph glyph-name="degree" unicode="&#xb0;" horiz-adv-x="399" 
d="M338 560q0 -43 -19 -72.5t-47.5 -45t-62.5 -16.5t-63.5 12t-50 41t-22.5 70q-3 48 22 82.5t62 49t78.5 6t71.5 -46.5q14 -17 22.5 -37t8.5 -43zM241 556q0 11 -5.5 18t-12 11.5t-11 6.5t-2.5 1q-20 5 -29.5 -6t-13.5 -26q-4 -20 7 -30t26 -11t28 8t13 28z" />
    <glyph glyph-name="cent" unicode="&#xa2;" horiz-adv-x="483" 
d="M200 592q7 23 21.5 36.5t31.5 16.5t33.5 -5.5t27.5 -29.5q5 -9 6.5 -22t1.5 -28t-1 -30.5t-1 -28.5q23 -4 48.5 -14.5t37.5 -32.5q13 -23 9 -42.5t-18 -31t-35 -13.5t-43 8q-1 -38 -0.5 -75.5t0.5 -75.5q14 11 31 21t33 12q20 2 34 -6.5t21 -23.5t5.5 -33t-11.5 -34
q-17 -28 -50 -45.5t-63 -25.5v-21.5t-0.5 -25t-2 -24t-5.5 -19.5q-8 -15 -21 -23t-28 -8.5t-29.5 6.5t-24.5 21q-9 13 -10 38.5t-1 47.5q-42 6 -75.5 29.5t-54 57t-27 73.5t5.5 79q17 55 58.5 98.5t93.5 65.5zM200 349q-23 -15 -36 -35t-14 -40t11 -37.5t39 -28.5v141z" />
    <glyph glyph-name="sterling" unicode="&#xa3;" horiz-adv-x="605" 
d="M422 384q22 0 38.5 -11t23.5 -27t2.5 -34.5t-24.5 -32.5q-14 -10 -34.5 -15t-42.5 -6.5t-43 -1t-38 0.5q-10 -19 -17.5 -39.5t-15.5 -40.5q-6 -14 -13 -27.5t-15 -27.5q24 -13 50.5 -25.5t52.5 -17t50 2t44 31.5q7 24 25.5 35.5t38.5 11t36.5 -14t19.5 -38.5
q2 -18 -3.5 -34.5t-16 -31.5t-24 -27t-26.5 -21q-38 -26 -78 -33t-80.5 -0.5t-79.5 23.5t-76 39q-11 -16 -24.5 -31t-31.5 -23q-17 -7 -32.5 -3.5t-26.5 14t-16.5 26t-2.5 31.5q2 14 9 25.5t16 22t18.5 20.5t16.5 21q20 29 36.5 60.5t30.5 64.5q-12 0 -24 -1t-24 4t-22.5 15
t-16 23t-4 26.5t11.5 25.5q11 13 26.5 19.5t32.5 9t34.5 2.5h33.5q16 39 33 77t37 76q14 26 28.5 51t38.5 42q12 9 26 14.5t29 9.5q17 4 33.5 5t33.5 -6q15 -6 23.5 -18.5t10.5 -26.5t-3 -28t-17 -25q-14 -12 -29.5 -15t-32.5 -5q-1 -1 -2 -1q-29 -29 -44.5 -68t-30.5 -77
q16 0 32 1.5t32 3.5h7z" />
    <glyph glyph-name="section" unicode="&#xa7;" horiz-adv-x="472" 
d="M142 -156q-16 8 -25.5 22.5t-10.5 30.5t6.5 31t25.5 24q11 6 21 6t20 -2t20 -3.5t21 0.5q14 2 31 6.5t20 21.5q-2 13 -10.5 23.5t-20.5 19t-25 15.5t-23 13q-21 13 -45.5 28.5t-46.5 34.5t-37 42.5t-18 51.5q-2 20 0.5 41t15.5 38q14 20 33.5 37t42.5 27l-4.5 4.5
l-4.5 4.5q-12 11 -23 26.5t-17.5 33.5t-8 36.5t4.5 34.5q11 28 30 48.5t42.5 35.5t50 26.5t52.5 21.5q11 4 20 7.5t21 1.5q16 -2 29.5 -11t20.5 -22t7 -28t-11 -30q-12 -16 -32.5 -25t-42 -16t-40 -16t-27.5 -26q20 -25 47.5 -40t55.5 -29t53.5 -33t41.5 -53
q13 -28 12.5 -58t-12.5 -56.5t-33.5 -47.5t-49.5 -32q31 -22 50 -51q33 -54 22 -101.5t-48 -79t-90.5 -43t-104.5 5.5zM164 231q10 -20 30 -38t40 -31q2 15 9 25.5t17 19.5t19.5 18t15.5 20q-2 10 -15.5 21.5t-20.5 16.5q-9 -11 -21.5 -16.5t-26 -10t-26 -9.5t-21.5 -16z
" />
    <glyph glyph-name="bullet" unicode="&#x2022;" horiz-adv-x="445" 
d="M25 285q2 25 6.5 48.5t18.5 45.5q28 44 66 68.5t79 31.5t81 -2.5t72 -34.5t53 -64t23 -91q2 -50 -21 -92.5t-61 -70t-85.5 -37t-94.5 6.5q-64 22 -98 74t-39 117z" />
    <glyph glyph-name="paragraph" unicode="&#xb6;" horiz-adv-x="579" 
d="M470 -36q-4 -32 -23.5 -47t-41.5 -14t-39.5 17t-17.5 46v559q-27 0 -57.5 0.5t-56.5 -5t-44 -20.5t-21 -47q-2 -22 11.5 -41t36.5 -26q11 -3 25 -6.5t26.5 -10t21 -17t8.5 -27.5v-162q0 -32 0.5 -64.5t-1.5 -66.5q-2 -27 -21 -37.5t-41 -7t-40 20t-18 42.5v109.5
t-1 109.5q-51 15 -83 50t-43 79.5t0 92t46 86.5q24 27 57.5 42t68.5 22q54 10 107 10.5t107 -1.5q17 -1 35 -1.5t34 -6.5q27 -10 35 -31.5t1.5 -42.5t-25.5 -34.5t-46 -9.5v-560z" />
    <glyph glyph-name="germandbls" unicode="&#xdf;" horiz-adv-x="605" 
d="M255 46q-7 17 -4.5 36t12 33.5t25 20.5t35.5 -3q9 -4 17.5 -12t17 -15.5t17.5 -14t19 -7.5q26 -3 44 18q-2 23 -20.5 37.5t-36.5 25.5t-40 22t-42 25.5t-36.5 32t-22.5 40.5q-12 40 -2 79.5t38 70.5q10 11 24.5 23t18.5 29q4 18 -5.5 26.5t-25.5 10.5t-33 -2.5t-28 -12.5
q-17 -14 -29 -33t-12 -41q-1 -157 -0.5 -312.5t0.5 -313.5q0 -18 -9 -33.5t-23 -24.5t-31 -9.5t-34 11.5q-13 9 -18.5 23t-7 29.5t-1 31.5t0.5 29q-1 75 -1 150v150v79.5t1.5 104t5.5 100.5t12 69q9 24 26.5 45.5t40.5 39t49.5 29.5t52.5 15q29 4 60.5 -4.5t59 -25.5
t47 -42.5t23.5 -55.5q9 -70 -34 -124q-12 -16 -28 -29.5t-22 -33.5q3 -13 13.5 -22.5t24 -17t28 -13t23.5 -11.5q25 -15 48.5 -35t40 -45t24 -53t1.5 -60q-7 -33 -29.5 -57.5t-52.5 -39t-64 -17.5t-64 6q-29 9 -51 29t-40 43z" />
    <glyph glyph-name="registered" unicode="&#xae;" horiz-adv-x="830" 
d="M59 303q4 50 17.5 102t42.5 94q25 35 54.5 66.5t67.5 51.5q64 34 130 42t126.5 -6t113.5 -47.5t92.5 -82.5t61.5 -111.5t21 -134.5q-1 -53 -19.5 -101.5t-50.5 -89.5t-74.5 -72.5t-91 -51t-100.5 -25t-103 6.5q-63 14 -115.5 48t-91 81.5t-60 106.5t-21.5 123zM586 158
q2 -17 -1.5 -28t-17.5 -26q6 5 15.5 14t14.5 14q32 33 48 75t16.5 86.5t-14.5 88.5t-46 81q-27 32 -63 50t-75.5 23.5t-79.5 -1t-76 -23.5q-44 -22 -73.5 -62t-42.5 -87t-7.5 -97t31.5 -92q10 -17 22.5 -32t25.5 -26q3 -2 12 -9.5t26 -19.5q-11 8 -17 22t-8.5 29.5t-3 31
t0.5 26.5q-14 10 -22 25.5t-8.5 32t7.5 30.5t24 21q0 20 -1.5 34t6.5 31q-3 2 -5.5 4t-4.5 5q-12 20 -10.5 36.5t11.5 30t25.5 23.5t31.5 17q39 17 81.5 22.5t82.5 -13.5q28 -13 48 -34.5t29 -47t6 -53.5t-21 -55q-9 -14 -20.5 -26t-25.5 -23q13 -10 26.5 -22.5t24.5 -25.5
t19 -26t9 -24zM526 82l7 3.5l11 5.5t11 6t7 4q-23 -9 -46.5 -4.5t-34.5 13.5q-20 16 -39 32t-40 36q0 -22 -2 -41t-12 -33q-8 -11 -23.5 -19.5t-32.5 -9.5q3 -1 11.5 -4t11.5 -4q27 -7 56 -9t58.5 5t56.5 19zM395 394q3 -6 4.5 -15.5t2 -19.5t0 -19t-0.5 -15q20 5 37.5 16
t19.5 39q-8 10 -24.5 14t-33.5 0h-5z" />
    <glyph glyph-name="copyright" unicode="&#xa9;" horiz-adv-x="852" 
d="M71 310q3 42 12.5 83t29.5 78q29 55 71 94t92 62.5t104.5 31t109 -1.5t106 -35t95.5 -69q55 -54 81 -127.5t25 -148.5q-1 -53 -19.5 -101.5t-50.5 -89.5t-74.5 -72.5t-91 -51t-100.5 -25t-103 6.5q-50 12 -96 37t-83 60.5t-63.5 80.5t-37.5 96q-5 23 -6 46t-1 46z
M333 522q-65 -29 -100 -86t-42 -125q-2 -31 5.5 -62t22.5 -59t36 -52t45 -41q48 -34 107 -37.5t113 17.5t94.5 63.5t52.5 101.5q12 58 0.5 112t-42.5 96t-78.5 67.5t-109.5 25.5q-26 0 -53.5 -5t-50.5 -16zM573 415q0 -18 -8 -32t-20.5 -22.5t-28.5 -10.5t-33 4
q-11 4 -19.5 13.5t-14.5 18.5q-22 -9 -35 -23.5t-19.5 -32.5t-7.5 -39t2 -43q3 -10 7.5 -24.5t17.5 -13.5q10 6 18 14.5t16 17.5t17 17t19 12q20 9 38 3.5t30 -19.5t16 -33t-5 -38q-5 -12 -13 -22t-16 -19q-32 -33 -70 -45t-74 -5.5t-66.5 30.5t-47.5 64q-18 41 -21.5 87
t8.5 88.5t38.5 77t68.5 52.5q44 19 90.5 14.5t88.5 -37.5q11 -9 17.5 -24.5t6.5 -29.5z" />
    <glyph glyph-name="trademark" unicode="&#x2122;" horiz-adv-x="666" 
d="M642 468q0 -20 -17 -33t-37.5 -16t-37.5 6t-17 32t-0.5 45t-5.5 45q-4 -5 -7 -9t-7 -9q-21 -24 -36.5 -33.5t-29 -6.5t-26.5 16.5t-29 35.5q-1 -17 -1.5 -34.5t-0.5 -34.5q-1 -19 -13.5 -30.5t-29 -14.5t-31.5 3.5t-20 24.5q-1 4 -5 28.5t-5.5 57.5t1 68.5t13 62.5
t30.5 39t54 -3q14 -6 25 -17t20.5 -24t18.5 -27t19 -26q6 10 19.5 27.5t29.5 34.5t33 28.5t31 8.5t23.5 -21t15.5 -40.5t10 -44t5 -32.5q2 -15 4 -27t3.5 -23.5t1.5 -25t-1 -31.5zM297 682q0 -19 -7 -31.5t-19 -20t-27 -12.5t-31 -10q0 -43 2.5 -85.5t-2.5 -84.5
q-2 -13 -13.5 -22.5t-26.5 -13t-30 -0.5t-23 14q-11 15 -14 39.5t-2 49.5t3.5 46t2.5 29q-34 -7 -54.5 4.5t-25.5 30t7 38t42 28.5q36 10 74.5 25t77.5 17q11 3 22.5 1.5t21.5 -7t16 -14.5t6 -21z" />
    <glyph glyph-name="acute" unicode="&#xb4;" horiz-adv-x="343" 
d="M218 671q22 11 41.5 7.5t32 -16.5t16 -33t-7.5 -41q-7 -14 -21.5 -24t-26.5 -19q-27 -21 -54.5 -42t-56.5 -39q-20 -12 -40.5 -10t-35.5 14t-20 31t7 41q7 12 15.5 19.5t19.5 15.5q23 18 38 29t28.5 20.5t28 20t36.5 26.5z" />
    <glyph glyph-name="dieresis" unicode="&#xa8;" horiz-adv-x="456" 
d="M414 693q0 -20 -10.5 -35t-24.5 -26q-19 -13 -30 -15.5t-31 3.5q-18 6 -28 21.5t-12.5 33.5t4.5 35t24 25q14 13 33 17t35.5 -1t28 -19.5t11.5 -38.5zM178 698q0 -16 -9.5 -31t-23.5 -25.5t-31.5 -14t-32.5 2.5q-19 7 -29.5 20.5t-12.5 29.5t5 31.5t23 27.5q11 9 23 13
q14 7 29.5 6t28.5 -9t21.5 -21t8.5 -30z" />
    <glyph glyph-name="notequal" unicode="&#x2260;" horiz-adv-x="522" 
d="M282 515q12 20 28.5 27.5t33 5t30 -15t19.5 -33.5q4 -13 2 -27.5t-7.5 -29t-11.5 -28.5t-9 -26q8 0 20 1t25 1t25.5 -1.5t22.5 -7.5q18 -11 26.5 -26t7 -30.5t-12.5 -29t-32 -21.5q-13 -4 -31.5 -5.5t-36.5 -0.5t-32 2t-19 1q-2 -7 -5 -18l-6 -22t-6 -21.5l-5 -17.5
q19 0 39 2.5t39.5 2.5t38.5 -4t35 -16t20.5 -29.5t-1 -33t-19.5 -27t-35 -11.5h-154q-3 -10 -7 -26.5t-9.5 -34t-13 -34.5t-18.5 -27q-11 -11 -26 -14t-29.5 0.5t-25.5 13.5t-15 26q-6 24 0.5 47.5t14.5 46.5q-21 -1 -42.5 2t-36.5 15q-14 12 -19 27t-1.5 29.5t14.5 26
t29 16.5q23 5 46.5 5t47.5 -2l5 17.5t6 21.5t6 21.5l5 17.5q-12 0 -28 -1t-32.5 -1t-32.5 3t-29 10q-18 11 -24.5 26t-3 30t15 28t29.5 19q34 11 71 7t73 -4q10 30 19 60.5t18 60.5z" />
    <glyph glyph-name="AE" unicode="&#xc6;" horiz-adv-x="829" 
d="M388 53q0 23 0.5 46.5t0.5 46.5h-199q-20 -62 -29 -122q-4 -19 -4.5 -30t-10.5 -25q-10 -16 -26 -23t-32 -5.5t-29.5 12t-19.5 29.5q-4 15 -2.5 36t6 43t10 42.5t9.5 35.5q44 159 138 294q36 54 81 102q2 3 9 10.5t16 17t19 18.5t18 13q24 13 46.5 7t34.5 -26
q23 11 55 16.5t65 8t64.5 2.5h54.5q3 0 16.5 0.5t29.5 0t31.5 -1.5t22.5 -4q20 -8 32 -23.5t14.5 -32t-6.5 -32.5t-31 -26q-13 -6 -28.5 -7t-32 0t-32.5 2.5t-29 1.5q-35 1 -69.5 -2t-69.5 -8v-143q37 -2 75 0.5t75 6.5q17 2 33 4t33 0q22 -3 34 -18t14.5 -33.5t-6.5 -36.5
t-29 -26q-18 -7 -49 -11.5t-64.5 -6.5t-64.5 -2t-51 1v-119q36 -3 71.5 -3.5t71.5 3.5q23 2 46 9.5t46 4.5q24 -3 36.5 -16.5t14.5 -31t-6 -35t-26 -29.5q-8 -6 -20.5 -9.5t-25.5 -5.5t-26 -2.5t-22 -1.5q-42 -3 -83.5 -3t-83.5 2q-24 1 -45 3.5t-36.5 11t-25 25t-9.5 45.5z
M389 268v203q-44 -46 -81 -96t-67 -107h148z" />
    <glyph glyph-name="Oslash" unicode="&#xd8;" horiz-adv-x="697" 
d="M448 676q10 16 25.5 24t31.5 8t30.5 -9.5t21.5 -27.5q8 -22 0 -45t-18 -42q56 -43 81.5 -106.5t25 -133t-24.5 -139t-66.5 -125t-101.5 -90t-129 -34.5q-13 -3 -28.5 -0.5t-26.5 5.5q-4 -10 -5.5 -13l-2.5 -5t-2 -5.5t-6 -12.5q-6 -16 -19.5 -24t-28.5 -9.5t-30 4.5
t-24 19q-16 23 -10.5 46t15.5 46q-28 18 -48 44t-33 56t-20 62.5t-9 64.5q-4 53 7 107t34 103t57 90t78 68t96 37t110 -3zM165 261q2 -40 11 -73t32 -62q44 100 85.5 198t86.5 198q-52 4 -91.5 -19.5t-66.5 -62t-41 -86.5t-16 -93zM389 92q51 32 81 79t46 104q4 24 6.5 49.5
t0.5 50.5t-9.5 48.5t-24.5 43.5q-43 -98 -85.5 -195t-84.5 -196q23 0 39.5 4t30.5 12z" />
    <glyph glyph-name="infinity" unicode="&#x221e;" horiz-adv-x="792" 
d="M604 456l27 -9t38 -15.5t38 -22t27 -29.5q18 -35 18.5 -75.5t-13 -80.5t-39 -76t-58 -62t-70.5 -38t-78 -5q-45 8 -76.5 34.5t-60.5 59.5q-16 -16 -34 -31t-38 -27t-42 -19t-46 -7q-62 0 -96.5 30.5t-46.5 75t-3 96t34 93t64.5 65t89.5 13.5q20 -5 37 -14t34 -21
q15 -11 28.5 -25.5t24.5 -30.5q24 32 47.5 55t50.5 38t60.5 22.5t76.5 7.5zM631 308q-11 19 -33.5 23.5t-43.5 3.5q-39 -17 -65 -44t-53 -59q17 -20 35.5 -40.5t44.5 -26.5q51 15 83 51.5t32 91.5zM182 176q32 2 58.5 18.5t46.5 39.5q-14 21 -32 41.5t-42 28.5
q-12 -4 -20 -14.5t-13 -23.5t-7.5 -27t-2.5 -26q0 -4 1 -11t2.5 -13t3.5 -10t5 -3z" />
    <glyph glyph-name="plusminus" unicode="&#xb1;" horiz-adv-x="542" 
d="M119 245q-19 5 -34 18t-21 29t-0.5 32.5t25.5 29.5q13 8 30.5 11t35.5 3t35 -1t28 -1q0 9 -1 31.5t-0.5 48t3.5 48.5t11 32q11 14 29.5 19.5t36 3t30.5 -14.5t13 -35q1 -34 0.5 -67t-0.5 -66q28 0 55.5 0.5t55.5 -0.5q18 0 31 -11.5t19 -27t3.5 -32t-15.5 -28.5
q-15 -13 -33.5 -18.5t-38 -6.5t-39.5 0.5t-38 1.5q0 -9 1 -27t1 -39t-2.5 -41.5t-9.5 -34.5q-10 -21 -29 -26.5t-37.5 -0.5t-32 20.5t-13.5 36.5v112h-92zM107 -88q-30 7 -44 27t-12 41t19.5 37t48.5 16q80 0 168.5 0.5t169.5 -0.5q6 0 13 -3.5t12 -7.5q17 -12 22 -30.5
t0.5 -36t-18 -30.5t-33.5 -13q-95 -2 -175.5 -1.5t-163.5 0.5z" />
    <glyph glyph-name="lessequal" unicode="&#x2264;" horiz-adv-x="451" 
d="M85 -83q-20 3 -34 15.5t-19.5 29.5t-0.5 34.5t24 29.5q18 12 42 12q70 0 139.5 0.5t140.5 -0.5q6 0 13 -3.5t12 -7.5q17 -12 24 -29.5t4.5 -34.5t-14 -29.5t-31.5 -14.5q-77 -8 -148 -5.5t-145 2.5zM379 185q10 -15 11.5 -33t-5 -32.5t-20.5 -23.5t-35 -8q-23 2 -39 14
t-35 26l-99 75q-11 8 -26 18t-28 22t-21.5 27t-7.5 33q1 14 7.5 24.5t15.5 19t19.5 16.5t20.5 16q11 9 33.5 30.5t48 43.5t50 39.5t38.5 20.5q15 2 28 -2.5t23 -14.5t14.5 -23t2.5 -28q-4 -23 -18 -36t-31 -27q-24 -21 -47.5 -41.5t-48.5 -40.5q37 -28 73 -55.5t72 -54.5z
" />
    <glyph glyph-name="greaterequal" unicode="&#x2265;" horiz-adv-x="466" 
d="M367 -90q-74 0 -149 -2t-145 5q-28 3 -38.5 21.5t-7 40.5t19 39.5t39.5 17.5h280q32 0 47 -18.5t15 -41t-15.5 -42t-45.5 -20.5zM227 294q-24 20 -47.5 40.5t-47.5 40.5q-17 14 -30.5 27t-18.5 35q-3 14 1.5 28t14.5 24t23 15.5t28 2.5t37 -18.5t45.5 -36t44.5 -40
t33 -30.5q9 -8 21 -16.5t23 -18.5t19.5 -22t9.5 -26q2 -19 -6.5 -33.5t-21 -26.5t-27.5 -22t-27 -19q-47 -36 -76.5 -59t-49 -36t-32 -17.5t-25.5 -3.5q-21 1 -32.5 12t-16 26t-1 32t12.5 31z" />
    <glyph glyph-name="yen" unicode="&#xa5;" horiz-adv-x="539" 
d="M145 154q-24 -8 -44.5 -5t-32 14.5t-10.5 28t19 35.5q10 10 28 18.5t37 15t35 11t22 6.5v18q-60 38 -97.5 92.5t-58.5 121.5q-4 13 -7.5 23.5t-2.5 23.5q1 15 7.5 28t17 22t24.5 12t29 -3q16 -6 25 -17t14 -24.5t8.5 -28t8.5 -28.5q25 -70 83 -109q26 32 50.5 63.5
t47.5 66.5q12 18 23 40t26 39q16 17 35.5 18.5t36 -8t26 -27.5t4.5 -39q-6 -24 -22 -47t-28 -42q-24 -38 -50.5 -76t-57.5 -72q28 11 56 17t51 -2q18 -7 27 -21.5t8.5 -30t-10 -30t-28.5 -20.5q-31 -11 -62.5 -17t-63.5 -16v-59q12 5 27 9t30 7t29 4.5t23 1.5q17 0 30.5 -8
t20.5 -20t4.5 -26.5t-17.5 -28.5q-10 -9 -29 -17t-40 -14.5t-41.5 -12t-35.5 -10.5v-52.5t-20 -46.5q-18 -18 -36 -18.5t-33 10t-24 28.5t-9 39q-22 -8 -45 -13.5t-46 -0.5q-14 3 -24 11.5t-14.5 19.5t-2.5 23t11 24t23 21t30.5 15.5t34 11t33.5 8.5v57q-13 -4 -26.5 -6.5
t-26.5 -7.5z" />
    <glyph glyph-name="mu" unicode="&#xb5;" horiz-adv-x="639" 
d="M481 406q8 28 27 40.5t39 11.5t36 -14.5t19 -38.5q2 -25 -8.5 -62.5t-26.5 -77.5t-34 -77t-30 -60q-1 -13 0 -27t13 -22q20 -13 34.5 -26.5t13.5 -39.5q0 -17 -9.5 -29t-23 -18t-29.5 -7t-30 4q-18 6 -34 19.5t-27 28.5q-57 -41 -108 -41t-97 59q-6 -17 -12 -31t-14 -34
q-4 -11 -9.5 -25t-11.5 -28t-12.5 -27t-14.5 -22q-9 -12 -22 -18.5t-26.5 -7t-26.5 5t-22 18.5q-10 14 -11 28t3 27.5t10.5 27t12.5 26.5t11.5 25.5t10.5 25.5q32 78 57 157.5t45 160.5q3 12 6 30t7.5 37t10 35.5t14.5 25.5q10 11 23.5 15.5t27.5 3t26 -9t19 -21.5
q6 -11 7 -25.5t-1 -26.5q-3 -14 -8 -34t-9 -46q-8 -38 -13 -77.5t-1 -77.5q1 -9 2.5 -20t5 -21.5t9.5 -19t15 -13.5q26 12 46 36t36 53.5t28 59.5t22 54t21.5 51t11.5 53z" />
    <glyph glyph-name="partialdiff" unicode="&#x2202;" horiz-adv-x="516" 
d="M103 338q38 45 83.5 73.5t106.5 33.5q8 0 12 1q-27 37 -71 60q-12 6 -25.5 11t-26 11.5t-23 15.5t-15.5 23q-5 15 -2 29.5t11.5 25.5t22 17t29.5 6q32 -2 64 -17.5t59 -32.5q20 -13 38 -32t32 -39q58 -83 65.5 -177t-24.5 -188q-12 -34 -28.5 -68t-43.5 -58
q-13 -12 -20.5 -18.5t-15 -11.5t-17 -9t-25.5 -11q-28 -12 -56.5 -8.5t-54.5 16.5t-48 33t-36 42q-21 32 -30.5 67t-8 70.5t13.5 70t34 64.5zM338 251q6 36 6 72q-38 2 -74 -8.5t-62 -39.5q-18 -20 -25 -45.5t-4 -50t17 -46t39 -33.5q26 3 43.5 19t29.5 37.5t19 47t11 47.5z
" />
    <glyph glyph-name="summation" unicode="&#x2211;" horiz-adv-x="588" 
d="M440 74q11 6 23 12.5t26 5.5q17 -1 29 -10t18 -22.5t5.5 -28.5t-7.5 -29q-10 -20 -30 -32t-40 -20q-21 -8 -48.5 -11t-56.5 -3.5t-56 0.5t-47 1h-147q-11 0 -27 7q-12 6 -21 17t-12.5 24t-1.5 27t13 25q35 38 71.5 72t73.5 67l74 66t73 69q-42 40 -86 77.5t-87 75.5
q-13 12 -32 26.5t-34.5 31.5t-23 37t1.5 43q7 17 21.5 25t32.5 10.5t36 1.5t33 -1h100q21 0 44.5 1.5t46.5 2.5t44 -0.5t38 -7.5q25 -9 34 -28t5.5 -39t-18.5 -35.5t-39 -15.5q-42 0 -82.5 0.5t-82.5 -0.5q45 -41 90.5 -81t90.5 -81q6 -5 9.5 -13.5t5.5 -15.5q6 -18 -1 -34
t-19.5 -29.5t-27 -25.5t-25.5 -21q-21 -20 -42 -38.5t-42 -37.5q-25 -23 -44 -41t-42 -38q39 -1 78.5 -1h78.5q14 8 18.5 10.5t7.5 4.5z" />
    <glyph glyph-name="product" unicode="&#x220f;" horiz-adv-x="635" 
d="M491 28q-3 -30 -20.5 -45.5t-37.5 -16t-38.5 13.5t-24.5 43q-2 1 -2.5 26t-0.5 66v92.5t0.5 105t1 105.5t0.5 92q-27 0 -54.5 -0.5t-55.5 -0.5q-2 -82 -2 -163.5v-163.5v-107q0 -3 0.5 -16t0.5 -28.5t-0.5 -32t-3.5 -26.5q-5 -19 -19 -30.5t-30.5 -14t-33 4t-26.5 23.5
q-7 13 -9.5 27.5t-2.5 30t1 30.5t1 28q0 48 0.5 94.5t0.5 94.5v124.5t2 124.5q-19 0 -38.5 1t-35.5 14t-20.5 30t0.5 33t18 28t32 15q21 3 47.5 3.5t55.5 0t59 -1.5t58 -1q31 0 61.5 0.5t62.5 0.5q12 0 28.5 0.5t33.5 -1t33 -5.5t27 -14q14 -13 18.5 -28t1 -29.5t-15 -27
t-28.5 -18.5q-12 -4 -21.5 -3t-23.5 2v-473v-7z" />
    <glyph glyph-name="pi" unicode="&#x3c0;" horiz-adv-x="596" 
d="M483 18q-3 -25 -18.5 -41t-35 -20t-37.5 5t-26 35q-2 1 -3 18t-1.5 44.5t-0.5 63v72v71.5v63q-29 -5 -56.5 -11t-56.5 -11v-320q0 -26 -16.5 -44t-37.5 -23t-39.5 4t-23.5 36q-4 25 -5.5 63.5t-1.5 82.5t1 90t1 86q-30 -6 -50.5 6.5t-27.5 32t1.5 41.5t37.5 35
q11 5 28.5 7.5t28.5 5.5q68 14 131.5 25.5t132.5 25.5q2 0 13 2.5t25 5.5t28.5 6t22.5 3q14 0 26 -4q15 -6 24.5 -17t13 -24.5t0.5 -27.5t-14 -26q-13 -14 -30 -19t-34 -8v-334v0z" />
    <glyph glyph-name="integral" unicode="&#x222b;" horiz-adv-x="542" 
d="M68 -80q-16 16 -18.5 35t5 35.5t24.5 26.5t39 8q12 -1 22 -7t20 -12.5t21 -12.5t25 -7q16 8 25.5 26t14 41t5 48t-1 47.5t-3 39.5t-1.5 24q0 4 -1 24.5t-1.5 50t-0.5 64t1.5 68t5 61.5t9.5 43q18 45 59 74.5t88 36.5q15 2 31 -0.5t29 -10t20.5 -20.5t5.5 -32
q-3 -24 -18 -35t-34.5 -18.5t-39 -15.5t-29.5 -26q-6 -58 -5.5 -118.5t2 -120.5t1.5 -118.5t-9 -111.5q-5 -32 -22 -61t-42 -49.5t-57 -30t-67 -2.5q-29 6 -51 22.5t-48 29.5z" />
    <glyph glyph-name="ordfeminine" unicode="&#xaa;" horiz-adv-x="540" 
d="M381 640q17 -25 17 -56.5t-2.5 -66t-0.5 -69t23 -66.5q8 -10 13 -19.5t8 -22.5q5 -27 -8.5 -42.5t-34.5 -19.5t-42.5 3.5t-31.5 27.5q-17 -14 -36 -19t-39 -7q-56 -4 -102 21t-63 82q-12 38 -6 77t24.5 74.5t46.5 64t61 46.5q18 10 41.5 17.5t48 9t47 -6t36.5 -28.5z
M133 120q-30 8 -44 26.5t-12 37.5t19.5 34t48.5 15q66 0 132 0.5t133 -0.5q6 0 13 -3.5t12 -7.5q17 -12 24 -28t4.5 -31.5t-14 -27t-31.5 -13.5q-39 -4 -74 -5t-69 -0.5t-67 1.5t-68 1zM273 436q-4 20 -6 43.5t3 43.5v19q-15 -5 -28.5 -15t-24 -23t-17 -28.5t-7.5 -31.5
q0 -19 9 -29t21 -11t25 6t20 21z" />
    <glyph glyph-name="ordmasculine" unicode="&#xba;" horiz-adv-x="515" 
d="M73 482q6 25 19 50t31 46.5t41 37.5t49 23q48 12 90 1t71 -39t43 -69t6 -90q-6 -35 -23 -66.5t-42.5 -56t-58 -39t-68.5 -15.5q-43 -1 -77 18.5t-55 50.5t-28.5 70t2.5 78zM121 115q-21 5 -36 18t-19.5 28.5t2.5 31.5t29 28q10 6 24.5 7.5t34.5 1.5t47.5 -1t63.5 -1
q19 0 40.5 0.5t42.5 0t38.5 -2t28.5 -5.5q24 -9 31.5 -27t2.5 -35.5t-20.5 -31t-37.5 -13.5h-265zM193 463q0 -9 -1.5 -19.5t-0.5 -20.5t6.5 -19t18.5 -15q12 -2 23 -0.5t22 8.5q20 12 30 30.5t11 36.5t-5 34t-18.5 23t-29 2.5t-36.5 -26.5q-14 -15 -20 -36v2z" />
    <glyph glyph-name="ae" unicode="&#xe6;" horiz-adv-x="762" 
d="M615 124q18 9 37.5 6.5t33.5 -13.5t19 -28.5t-5 -38.5q-11 -22 -28.5 -36t-37.5 -25q-72 -40 -132.5 -31t-120.5 63q-23 -27 -53 -42.5t-65 -19.5q-80 -8 -136.5 28t-79.5 115q-13 46 -7.5 95t26 95t53 86t73.5 67.5t88 39.5t96 1q22 5 39.5 -11t23.5 -36q18 11 38 20.5
t41 16.5t43 9.5t44 -1.5q31 -5 53 -23.5t34.5 -44.5t15.5 -55.5t-4 -57.5q-16 -60 -57 -98.5t-101 -54.5q-20 -5 -43 -12t-45 -5q14 -32 32.5 -43.5t38.5 -9.5t42 15t44 29zM321 255q-3 28 -2 56t1 57q-11 -3 -22.5 -7.5t-22.5 -6.5q-25 -12 -46.5 -31t-37 -42.5
t-23.5 -50.5t-8 -55q0 -31 13 -56t33.5 -37t45.5 -6.5t49 36.5q8 14 25 24q-3 29 -4 59t-1 60zM585 364q-24 2 -48.5 -6.5t-44.5 -25.5t-33 -41.5t-15 -54.5q14 7 29.5 11.5t32 9.5t32 10.5t28.5 13.5q8 5 14 15.5t9.5 23t2.5 24.5t-7 20z" />
    <glyph glyph-name="oslash" unicode="&#xf8;" horiz-adv-x="481" 
d="M318 506q17 28 40.5 32.5t42 -7.5t26.5 -36.5t-7 -53.5q-2 -11 -8 -20.5t-8 -20.5q36 -38 50.5 -88t10.5 -102t-24.5 -101.5t-54 -86.5t-79 -57.5t-98.5 -14.5q-6 -12 -11 -26.5t-11.5 -28t-16 -24.5t-23.5 -16q-18 -7 -35.5 -1.5t-29 18.5t-15 31t5.5 36q3 16 11.5 31
t14.5 30q-38 38 -54 88t-13 102t23.5 101.5t55 87t81 59t101.5 17.5q8 20 13.5 30t7.5 15zM148 230q-7 -22 -3 -49.5t10 -47.5q20 49 40.5 96.5t41.5 95.5q-33 -11 -58 -37t-31 -58zM352 184q4 16 1.5 38.5t-10.5 38.5q-19 -45 -38 -89t-38 -89q41 15 59 42t26 59z" />
    <glyph glyph-name="questiondown" unicode="&#xbf;" horiz-adv-x="520" 
d="M228 215q-26 3 -39.5 16t-16 29.5t4 33.5t20 28.5t33.5 14t43 -9.5q32 -8 61.5 -25.5t46.5 -45.5q24 -39 22.5 -71t-19 -58t-46.5 -48.5t-60 -42.5q-20 -13 -41 -27t-33 -35q-4 -6 -2 -13t7.5 -14t12.5 -12.5t12 -6.5q56 -5 95 43q9 11 18 22.5t20.5 21t25 14.5t29.5 2
t26.5 -12t15.5 -21.5t5 -27.5t-6 -28q-6 -15 -23 -33t-37.5 -35t-42 -31t-36.5 -21q-46 -20 -95.5 -12.5t-87 35t-55 71t0.5 96.5q10 29 32 52.5t49 44t56 40t53 40.5q-8 11 -18.5 18t-23.5 7zM169 477q4 36 27.5 54.5t50 19t49 -17.5t23.5 -54q1 -23 -9 -40t-25.5 -26.5
t-34.5 -10.5t-36 6.5t-29.5 24.5t-15.5 44z" />
    <glyph glyph-name="exclamdown" unicode="&#xa1;" horiz-adv-x="368" 
d="M253 489q0 -36 -22 -55.5t-49 -21t-50.5 16t-25.5 53.5q-2 25 8.5 42t26.5 25.5t35.5 9.5t36.5 -6.5t28.5 -23.5t11.5 -40zM128 291q6 21 21 35t33 17.5t35 -4.5t25 -30q6 -15 8 -44t1.5 -74t-1.5 -107t-1 -144q0 -6 1 -18t1 -26t-1.5 -27.5t-6.5 -22.5q-9 -16 -24.5 -25
t-32 -9.5t-30.5 8t-22 28.5q-6 14 -7.5 32.5t-1 36.5t1.5 34t1 26v314z" />
    <glyph glyph-name="logicalnot" unicode="&#xac;" horiz-adv-x="507" 
d="M461 43q-3 -22 -16 -38t-30 -22t-35 0t-30 27q-9 15 -11.5 35.5t-2.5 41t1.5 39t1.5 30.5h-230q-27 0 -43 15t-19 35.5t7.5 40t36.5 28.5q11 3 23 3q73 0 146.5 0.5t147.5 -0.5q8 0 17 -5.5t14 -10.5q20 -18 27 -38t7 -39t-3 -35.5t-3 -26.5z" />
    <glyph glyph-name="radical" unicode="&#x221a;" horiz-adv-x="728" 
d="M583 668q12 20 30 27.5t35.5 3.5t31 -18t16.5 -37q1 -10 -1.5 -21.5t-7 -22.5t-9 -20.5t-7.5 -17.5q-32 -84 -62 -167t-59 -168q-1 -4 -8 -24.5t-14.5 -43.5t-14 -43t-7.5 -24q-11 -34 -20.5 -68t-19.5 -68q-4 -13 -13 -23.5t-20.5 -17t-25 -7.5t-26.5 6q-28 16 -53 38
t-47.5 47t-44 50.5t-44.5 48.5q-15 -14 -29.5 -28t-29.5 -28t-33 -15t-33.5 7t-25.5 24t-8 35q2 15 14 32.5t27.5 33.5t31.5 29.5t25 21.5q20 18 43.5 28.5t49.5 -4.5q20 -12 37 -32t33 -37q20 -20 41 -40t41 -40q46 146 97 290t106 287z" />
    <glyph glyph-name="florin" unicode="&#x192;" horiz-adv-x="595" 
d="M492 435q30 1 44.5 -17t14.5 -40.5t-13 -42t-38 -21.5q-28 -1 -49.5 -1h-41h-38h-39.5q-20 -60 -41 -119t-41 -119q-20 -55 -38 -109.5t-37 -109.5q-4 -9 -8.5 -17.5t-11.5 -15.5q-16 -16 -34.5 -16.5t-33 9t-23.5 26.5t-8 37q1 12 5.5 26.5t10 29.5t11.5 29t9 24
q28 81 53.5 161.5t54.5 161.5q-19 0 -36 -0.5t-36 5.5q-21 7 -29 25t-4.5 37.5t17 35.5t33.5 18q23 2 49.5 2t50.5 2q7 17 10.5 27.5l6.5 19.5l1 2.5t2.5 6.5t2.5 6.5l1 2.5q12 25 24 47t27.5 40t37 30.5t52.5 18.5q18 3 44.5 2.5t50 -8t38.5 -23.5t10 -44
q-4 -24 -17.5 -33.5t-30 -12t-35 -1t-33.5 -1.5q-13 -3 -24 -11.5t-19 -20t-13.5 -24.5t-9.5 -25h121v0z" />
    <glyph glyph-name="Delta" unicode="&#x2206;" horiz-adv-x="661" 
d="M228 522q22 22 40.5 27t34.5 -1.5t29 -22.5t25 -36t22.5 -40.5t20.5 -37.5q30 -49 52.5 -86t41.5 -68t36.5 -57.5t35.5 -55.5q5 -8 13 -18t15.5 -21t12.5 -23t3 -24q-4 -25 -16.5 -37t-29.5 -16.5t-37.5 -5t-39.5 -1.5q-71 -5 -140.5 -16.5t-138.5 -22.5q-27 -4 -56 -13
t-57 -11q-32 -2 -50 19.5t-16 51.5q0 8 4 18.5t8.5 20t8 17t4.5 9.5q14 31 27 62.5t24 63.5q19 48 37 95t35 95zM190 80q120 22 247 36q-39 56 -75 112.5t-70 115.5q-48 -133 -102 -264z" />
    <glyph glyph-name="guillemotleft" unicode="&#xab;" horiz-adv-x="600" 
d="M307 178q12 -18 12 -37.5t-10 -34t-27.5 -21.5t-40.5 -1t-43.5 26t-37.5 36q-33 30 -65 62q-9 9 -21 19t-21.5 21.5t-15.5 24t-5 27.5q2 15 12.5 31t25 30.5t30 27t25.5 22.5l29 29t30 29q5 5 12 13t15.5 16t18 15t18.5 10q16 5 32 2.5t28 -11.5t18.5 -23t3.5 -32
q-2 -13 -9 -23.5t-16 -20.5t-18.5 -18.5t-18.5 -16.5q-22 -22 -44.5 -42.5t-44.5 -41.5q30 -29 60.5 -58t63.5 -55zM555 219q10 -15 12.5 -32.5t-3 -31.5t-20 -23.5t-38.5 -9.5q-14 0 -26.5 5.5t-23.5 14t-21.5 18.5t-21.5 18q-10 8 -30 20.5t-39 28t-33 34t-12 39.5
q2 16 11 30t22 26t26.5 22t23.5 19q11 10 25.5 25t31 29.5t33 26t32.5 14.5q13 2 26 -2t23 -13t15.5 -21t3.5 -26q-3 -19 -14.5 -34t-24.5 -28q-18 -20 -38.5 -36t-40.5 -34q24 -18 48.5 -36.5t48.5 -37.5z" />
    <glyph glyph-name="guillemotright" unicode="&#xbb;" horiz-adv-x="600" 
d="M300 178q32 26 61.5 53.5t58.5 56.5q-22 21 -44 41.5t-44 41.5q-17 17 -37 34.5t-25 43.5q-4 18 3 33t20 24.5t30 12t33 -5.5q14 -7 31.5 -22t34.5 -32.5t32.5 -34.5t26.5 -28q10 -10 24 -21.5t27.5 -24.5t23.5 -27t11 -29q2 -16 -4.5 -29.5t-17 -25.5t-22.5 -22t-22 -20
q-29 -29 -61 -58q-17 -15 -37.5 -35.5t-43.5 -27.5q-25 -7 -43 0t-27 22t-8 35.5t14 40.5zM52 219q23 17 45 34.5t45 35.5q-17 14 -33 29t-30 29t-28.5 29.5t-20.5 34.5q-4 15 -0.5 29t13 24.5t23.5 16.5t29 3q16 -3 33 -14.5t33.5 -26t31 -30t26.5 -26.5q10 -9 23 -19
t25.5 -22t22 -25t10.5 -27q2 -23 -9.5 -38t-28.5 -28l-75 -57q-11 -8 -21.5 -17.5t-21.5 -17.5t-23 -14t-26 -8q-23 -3 -37.5 6.5t-20.5 25.5t-3 34.5t13 34.5z" />
    <glyph glyph-name="ellipsis" unicode="&#x2026;" horiz-adv-x="722" 
d="M649 69q0 -33 -23 -55t-51.5 -26.5t-52.5 11t-26 56.5q0 21 6 35.5t21 29.5q8 9 20 14.5t25 8.5q41 7 59.5 -15t21.5 -59zM236 71q0 -33 -21 -54t-47 -24.5t-47.5 11.5t-23.5 52q-1 26 11 48t31 34t40.5 11t39.5 -22q10 -11 12.5 -26.5t4.5 -29.5zM437 71
q0 -26 -9.5 -40.5t-23.5 -25.5q-17 -14 -38 -17t-39 10q-12 8 -18 19t-10 25q-4 15 -1.5 29.5t10 27t18 22.5t21.5 14q18 9 34.5 7t29 -12t19.5 -25.5t7 -33.5z" />
    <glyph glyph-name="nonbreakingspace" unicode="&#xa0;" horiz-adv-x="467" 
 />
    <glyph glyph-name="Agrave" unicode="&#xc0;" horiz-adv-x="604" 
d="M577 29q-3 -22 -15 -37.5t-27.5 -21.5t-33 -1.5t-32.5 23.5q-13 16 -14.5 35.5t-5.5 38.5q-10 55 -29 113q-62 -1 -123 -1t-122 -1q-9 -26 -15.5 -53t-12.5 -53q-5 -20 -9 -41.5t-18 -37.5q-17 -20 -36.5 -22.5t-35 6.5t-25 27.5t-6.5 42.5q3 31 12 61t17 60
q45 172 116 333q6 14 12.5 27t12.5 26q7 14 14 30t16.5 29.5t22.5 23t32 9.5q25 0 42 -16q68 -68 112 -153.5t79 -174.5q21 1 41 0t36 -18q14 -14 16.5 -30t-3 -31t-18 -26t-30.5 -15q10 -35 17.5 -71.5t12.5 -73.5v-7zM373 301q-19 45 -40.5 89.5t-48.5 84.5
q-20 -44 -37.5 -87.5t-32.5 -88.5q47 1 82.5 1t76.5 1zM199 826q-15 18 -18 38.5t5.5 37t26.5 25t43 2.5q17 -5 29 -17t25 -23q29 -23 58.5 -48t55.5 -52q17 -17 17.5 -37t-9.5 -35.5t-29 -24t-41 -2.5q-12 3 -34.5 21t-47 40t-46.5 42.5t-31 28.5z" />
    <glyph glyph-name="Atilde" unicode="&#xc3;" horiz-adv-x="604" 
d="M577 29q-3 -22 -15 -37.5t-27.5 -21.5t-33 -1.5t-32.5 23.5q-13 16 -14.5 35.5t-5.5 38.5q-10 55 -29 113q-62 -1 -123 -1t-122 -1q-9 -26 -15.5 -53t-12.5 -53q-5 -20 -9 -41.5t-18 -37.5q-17 -20 -36.5 -22.5t-35 6.5t-25 27.5t-6.5 42.5q3 31 12 61t17 60
q45 172 116 333q6 14 12.5 27t12.5 26q7 14 14 30t16.5 29.5t22.5 23t32 9.5q25 0 42 -16q68 -68 112 -153.5t79 -174.5q21 1 41 0t36 -18q14 -14 16.5 -30t-3 -31t-18 -26t-30.5 -15q10 -35 17.5 -71.5t12.5 -73.5v-7zM373 301q-19 45 -40.5 89.5t-48.5 84.5
q-20 -44 -37.5 -87.5t-32.5 -88.5q47 1 82.5 1t76.5 1zM539 826q0 -25 -17.5 -37.5t-35.5 -26.5q-11 -9 -22 -17t-24 -15q-34 -17 -55.5 -17.5t-40.5 8.5t-39 22.5t-50 23.5q-3 0 -5 -1q-7 -4 -17 -12t-20.5 -16.5t-19.5 -15.5t-15 -9q-16 -4 -34.5 0t-32 14.5t-19 25.5
t3.5 33q6 12 25 28.5t42 32t47 26.5t41 13q16 2 32 -3.5t31.5 -14t29.5 -18.5t26 -18q1 -1 1.5 -1t1.5 -1q19 8 30.5 16.5t16.5 11.5l3 3q4 4 10 7q13 10 31.5 12t35 -3t28 -18t11.5 -33z" />
    <glyph glyph-name="Otilde" unicode="&#xd5;" horiz-adv-x="677" 
d="M636 255q-17 -56 -43.5 -109.5t-64.5 -95.5t-88.5 -68t-115.5 -26q-42 2 -66.5 7.5t-47.5 16.5q-41 12 -70.5 38.5t-49.5 61.5t-30.5 74.5t-13.5 76.5q-5 65 11 132t51 123.5t88 97t121 53.5q35 6 71 4t70 -14q28 -10 52 -23t46 -33q29 -26 49 -60t29 -71q11 -47 10 -93
t-8 -92zM377 86q30 13 52.5 34.5t39.5 47.5t28.5 55.5t20.5 59.5q6 38 6.5 78t-16.5 76q-14 30 -42.5 51.5t-62.5 30t-68.5 3.5t-61.5 -27q-38 -32 -61.5 -71.5t-35.5 -87.5q-10 -38 -11 -80t13 -80q11 -28 32.5 -51t48.5 -36t57.5 -14.5t60.5 11.5zM609 827
q0 -25 -17.5 -37.5t-35.5 -26.5q-11 -9 -22 -17t-24 -15q-34 -17 -55.5 -17.5t-40.5 8.5t-39 22.5t-50 23.5q-3 0 -5 -1q-7 -4 -17 -12t-20.5 -16.5t-19.5 -15.5t-15 -9q-16 -4 -34.5 0t-32 14.5t-19 25.5t3.5 33q6 12 25 28.5t42 32t47 26.5t41 13q16 2 32 -3.5t31.5 -14
t29.5 -18.5t26 -18q1 -1 1.5 -1t1.5 -1q19 8 30.5 16.5t16.5 11.5l3 3q4 4 10 7q13 10 31.5 12t35 -3t28 -18t11.5 -33z" />
    <glyph glyph-name="OE" unicode="&#x152;" horiz-adv-x="841" 
d="M279 -36q-19 -3 -36.5 -5t-37.5 3q-60 14 -92.5 60.5t-45.5 106.5t-11.5 123t8.5 111q4 26 10.5 54.5t15.5 53.5q8 23 22.5 49t29.5 45q24 30 61.5 53.5t79 33t82 1.5t71.5 -40l16 4t13 4q11 2 31.5 5.5t31.5 5.5q51 6 102 6t103 -2q26 -1 48 -9t32 -35q5 -13 2.5 -27
t-10.5 -25.5t-20.5 -19t-26.5 -7.5q-62 -1 -121 1t-120 -8v-143q37 -2 75 0.5t75 6.5q17 2 33 4t33 0q22 -3 34 -18t14.5 -33.5t-6.5 -36.5t-29 -26q-18 -7 -49 -11.5t-64.5 -6.5t-64.5 -2t-51 1v-119q36 -3 71.5 -3.5t71.5 3.5q23 2 46 9.5t46 4.5q24 -3 36.5 -16.5
t14.5 -31t-6 -35t-26 -29.5q-11 -8 -32 -13t-45 -8t-46.5 -4.5t-35.5 -1.5q-30 -1 -60 1.5t-59 4.5q-41 3 -62.5 13t-29.5 34q-45 -54 -116 -85zM189 368q-6 -28 -10.5 -68.5t-3 -82t12.5 -78.5t36 -59q11 -1 20 2t34 19q21 16 35.5 36.5t25.5 44.5q13 30 25 76t16.5 95.5
t-1 95.5t-27.5 74q-23 16 -46 11.5t-42.5 -20.5t-34 -38t-21.5 -41q-5 -14 -11 -33.5t-8 -33.5z" />
    <glyph glyph-name="oe" unicode="&#x153;" horiz-adv-x="723" 
d="M604 122q18 9 37.5 6.5t33.5 -13.5t19 -28.5t-5 -38.5q-11 -22 -28.5 -35.5t-37.5 -25.5q-34 -19 -71 -26.5t-72 -1.5t-66.5 25.5t-54.5 53.5q-37 -40 -81 -56.5t-86.5 -10t-78.5 36t-57 82.5q-15 38 -18 79t3.5 81.5t23 78.5t40.5 69q30 38 68.5 59.5t79 24t77.5 -15.5
t64 -58q23 19 47.5 34.5t53.5 26.5q44 18 83.5 13.5t68 -26t42.5 -58t7 -83.5q-10 -62 -50 -102.5t-97 -60.5q-19 -7 -49 -15t-56 -5q7 -17 18 -30t28 -20q13 -7 26.5 -4.5t26.5 7.5q17 5 32 16t29 21zM164 242q-7 -36 -4 -73q2 -21 10.5 -40.5t22 -29.5t31.5 -8.5t38 22.5
q19 20 33 53t18.5 69t-3.5 69.5t-32 53.5q-25 9 -44 -1t-33 -29.5t-23 -43.5t-14 -42zM436 269q-2 -5 -2 -19.5v-20.5q13 6 29 10.5t31 9t28.5 9t22.5 8.5q9 5 19.5 16t16 24t4.5 27t-14 26q-18 5 -40 -1.5t-42.5 -20t-35 -31.5t-17.5 -37z" />
    <glyph glyph-name="endash" unicode="&#x2013;" horiz-adv-x="587" 
d="M138 218q-30 8 -44 27.5t-12 40.5t19.5 37t48.5 16q80 0 160 0.5t161 -0.5q6 0 13 -3.5t12 -7.5q17 -12 23.5 -27.5t4 -31t-14 -29t-30.5 -20.5q-85 -8 -167.5 -5.5t-166.5 2.5z" />
    <glyph glyph-name="emdash" unicode="&#x2014;" horiz-adv-x="615" 
d="M30 218q-31 0 -45.5 18.5t-13.5 41.5t17.5 42t46.5 19q137 -1 277.5 0t280.5 0q6 0 13 -3.5t12 -7.5q20 -13 25.5 -32.5t0 -36.5t-20 -29.5t-35.5 -12.5h-551z" />
    <glyph glyph-name="quotedblleft" unicode="&#x201c;" horiz-adv-x="440" 
d="M323 702q8 -14 21.5 -39.5t27 -53.5t22.5 -54t7 -41q-3 -19 -15 -32t-27.5 -17t-31 2t-26.5 24q-17 29 -31 61.5t-29 62.5q-8 14 -17 31t-7 34q2 26 14 40.5t28.5 17.5t33.5 -6t30 -30zM132 670q8 -14 21.5 -39.5t27 -53.5t22.5 -54t7 -41q-3 -19 -15 -32t-27.5 -17
t-31 2t-26.5 24q-17 29 -31 61.5t-29 62.5q-8 14 -17 31t-7 34q2 26 14 40.5t28.5 17.5t33.5 -6t30 -30z" />
    <glyph glyph-name="quotedblright" unicode="&#x201d;" horiz-adv-x="456" 
d="M141 706q12 20 28.5 27t32.5 3.5t27.5 -17.5t13.5 -37q1 -13 -7.5 -37.5t-21.5 -52.5t-27.5 -54.5t-25.5 -44.5q-14 -25 -35 -28.5t-38.5 6t-26.5 29.5t1 43zM332 674q12 20 28.5 27t32.5 3.5t27.5 -17.5t13.5 -37q1 -15 -4.5 -33t-14 -36t-17.5 -34.5t-15 -28.5
q-8 -16 -15.5 -29t-15.5 -28q-15 -27 -36 -31.5t-38.5 5.5t-26.5 30t1 41z" />
    <glyph glyph-name="quoteleft" unicode="&#x2018;" horiz-adv-x="287" 
d="M171 690q7 -13 20.5 -38t26.5 -52t22.5 -51.5t8.5 -38.5q-2 -17 -11 -31t-22.5 -21.5t-29.5 -7t-31 10.5q-9 6 -16 17.5t-12 19.5q-5 9 -17.5 32.5t-25 50t-21.5 51t-8 36.5q2 26 16 40.5t32 17.5t36.5 -6t31.5 -30z" />
    <glyph glyph-name="quoteright" unicode="&#x2019;" horiz-adv-x="276" 
d="M116 706q12 20 30 27t35.5 3.5t31 -17.5t15.5 -37q1 -15 -4.5 -32t-14 -34t-18 -33t-15.5 -28q-8 -16 -14.5 -31.5t-15.5 -30.5q-14 -25 -36.5 -28.5t-42 6t-30 29.5t-0.5 43q5 20 17 41t21 39q10 20 19 39l18 38z" />
    <glyph glyph-name="divide" unicode="&#xf7;" horiz-adv-x="528" 
d="M192 16q2 25 14.5 41t29 24.5t35.5 9t35.5 -7.5t27.5 -24t12 -41t-9.5 -42t-26.5 -26t-35.5 -9.5t-37 7.5t-30 25t-15.5 43zM90 148q-30 8 -44 27.5t-12 40.5t19.5 37t48.5 16q83 0 165.5 0.5t166.5 -0.5q6 0 13 -3.5t12 -7.5q17 -12 23.5 -27.5t4 -31t-14 -29
t-30.5 -20.5q-93 -7 -176 -5t-169 2zM189 401q2 26 14.5 43t30 25.5t37 8.5t36 -8.5t28 -25t12.5 -41.5t-9.5 -43t-27 -27.5t-36.5 -10.5t-38 7t-31 26t-16 46z" />
    <glyph glyph-name="lozenge" unicode="&#x25ca;" horiz-adv-x="765" 
d="M375 582q18 12 33 10.5t29 -10.5t26.5 -22.5t24.5 -24.5q50 -47 98 -95l96 -96q16 -16 32 -35t11 -45q-5 -21 -19.5 -34.5t-29.5 -27.5q-66 -62 -130 -123t-130 -123q-14 -13 -28 -14.5t-27.5 3.5t-26 15t-22.5 20q-14 14 -28 27.5t-28 27.5q-42 42 -84 82.5t-85 82.5
l-33 33t-19 42q-1 17 9.5 33t25.5 29.5t31 24.5t25 18q62 51 124 101t125 101zM377 87q51 47 101.5 93.5t99.5 95.5q-44 44 -87.5 86t-87.5 86q-54 -44 -108 -87.5t-108 -88.5q47 -48 94.5 -93.5t95.5 -91.5z" />
    <glyph glyph-name="ydieresis" unicode="&#xff;" 
d="M386 445q12 20 30 27.5t35.5 3.5t31 -18t16.5 -37q2 -17 -6.5 -48t-21 -64t-25.5 -63t-21 -47q-34 -75 -74 -147t-82 -143q-6 -11 -14 -27l-16.5 -33t-17.5 -32t-17 -22q-18 -17 -37 -20t-34.5 5t-25 25t-7.5 41q1 9 8 23.5t16 30t18 29.5t14 23q20 33 38.5 66t37.5 66
q-66 55 -114.5 122.5t-74.5 148.5l-10 28t-3 29q2 17 9.5 30.5t19.5 22t27.5 9.5t31.5 -7q13 -7 20.5 -19.5t12.5 -27t8.5 -29.5t8.5 -27q40 -99 121 -169q29 60 52 120.5t41 123.5zM465 605q0 -20 -10.5 -35t-24.5 -26q-19 -13 -30 -15.5t-31 3.5q-18 6 -28 21.5
t-12.5 33.5t4.5 35t24 25q14 13 33 17t35.5 -1t28 -19.5t11.5 -38.5zM229 610q0 -16 -9.5 -31t-23.5 -25.5t-31.5 -14t-32.5 2.5q-19 7 -29.5 20.5t-12.5 29.5t5 31.5t23 27.5q11 9 23 13q14 7 29.5 6t28.5 -9t21.5 -21t8.5 -30z" />
    <glyph glyph-name="Ydieresis" unicode="&#x178;" horiz-adv-x="551" 
d="M328 33q-3 -25 -18.5 -41t-35 -20t-37.5 5t-26 35q-5 17 -6.5 37t-1 39.5t1.5 37.5t1 30q0 29 -0.5 57t-0.5 57q-49 47 -89.5 99.5t-72.5 112.5q-10 18 -19 39.5t-10 42.5q-5 19 4 34.5t24.5 24t34 8t33.5 -12.5q11 -9 18 -21t12 -25.5t9.5 -27.5t11.5 -26
q21 -38 46.5 -70.5t54.5 -64.5q26 35 56 65.5t55 65.5q5 8 15 24.5t21 34.5t23 33.5t21 20.5q16 10 32.5 9t30 -10t21.5 -24.5t6 -33.5q-2 -19 -17.5 -46t-36 -55t-41.5 -53t-33 -40q-10 -12 -19.5 -23.5t-19.5 -22.5q-13 -15 -25 -30l-24 -30v-114t1 -114v-7zM487 755
q0 -20 -10.5 -35t-24.5 -26q-19 -13 -30 -15.5t-31 3.5q-18 6 -28 21.5t-12.5 33.5t4.5 35t24 25q14 13 33 17t35.5 -1t28 -19.5t11.5 -38.5zM251 760q0 -16 -9.5 -31t-23.5 -25.5t-31.5 -14t-32.5 2.5q-19 7 -29.5 20.5t-12.5 29.5t5 31.5t23 27.5q11 9 23 13q14 7 29.5 6
t28.5 -9t21.5 -21t8.5 -30z" />
    <glyph glyph-name="fraction" unicode="&#x2044;" horiz-adv-x="555" 
d="M479 639q14 14 31 20.5t33.5 4t29 -14t15.5 -34.5q2 -13 -1.5 -24.5t-9.5 -22.5t-13.5 -21t-13.5 -19q-45 -69 -90.5 -136t-91.5 -135l-150 -222q-12 -18 -24 -36.5t-25 -36.5q-9 -13 -18.5 -24t-21 -17.5t-25 -6.5t-30.5 9q-20 11 -25.5 26.5t-2.5 33t13 36t21.5 35
t22.5 30t16 21.5q91 134 180.5 266.5t179.5 267.5z" />
    <glyph glyph-name="guilsinglleft" unicode="&#x2039;" horiz-adv-x="394" 
d="M359 138q12 -18 12 -37.5t-10 -34t-27.5 -21.5t-40.5 -1q-18 5 -33 17t-30 23q-35 26 -69 52t-69 52q-10 8 -24.5 17t-27.5 20.5t-21 25.5t-6 31q4 26 21.5 40.5t37.5 29.5q34 26 67.5 53t67.5 54q20 16 40.5 35t46.5 26q21 5 37 -2t25 -21t10.5 -32t-7.5 -35
q-5 -10 -14.5 -19.5t-21 -18t-22 -15.5t-17.5 -12q-28 -22 -55.5 -43t-54.5 -43q47 -32 91.5 -67t89.5 -69z" />
    <glyph glyph-name="guilsinglright" unicode="&#x203a;" horiz-adv-x="384" 
d="M67 153q45 33 88.5 67t88.5 66q-27 22 -54 43t-55 42q-7 5 -17.5 12t-21.5 15.5t-21 17.5t-15 19q-9 17 -8 35t9.5 32.5t24.5 22t37 2.5q18 -4 34 -17.5t30 -24.5l46 -36t46 -37q15 -12 21.5 -17t12 -9.5t13.5 -10.5t24 -19q19 -14 34.5 -27.5t20.5 -37.5q3 -17 -5 -31.5
t-20.5 -26t-27.5 -20.5t-25 -17q-35 -26 -69 -52t-69 -52q-15 -11 -30 -23.5t-33 -17.5q-25 -7 -43 0t-27 22t-8 35.5t14 40.5z" />
    <glyph glyph-name="daggerdbl" unicode="&#x2021;" horiz-adv-x="448" 
d="M166 631q7 23 21 36t30.5 16t33.5 -5.5t29 -28.5q3 -5 4.5 -17t2 -25.5t0.5 -27v-21.5h79q18 0 30.5 -11t17.5 -26t3 -32t-14 -30q-9 -9 -21.5 -13.5t-28 -6t-32.5 -1.5h-34v-66h80q18 0 30.5 -9.5t17.5 -23.5t3 -29.5t-14 -28.5q-10 -10 -23 -15t-28.5 -6t-32 -0.5
t-33.5 0.5v-30.5t-1 -60.5t-3.5 -63.5t-7.5 -39.5q-10 -21 -28.5 -25.5t-36.5 2t-31.5 23t-13.5 37.5v157q-23 0 -45.5 -1t-42.5 6q-18 6 -28 17.5t-11.5 25t4.5 28t21 24.5q9 7 22.5 9.5t28 3t28 0t23.5 -0.5v66q-23 0 -46 -1t-43 6q-18 6 -28 18.5t-11.5 28t4.5 31
t21 25.5q9 7 22.5 9.5t28 3t28.5 0t24 -0.5v67z" />
    <glyph glyph-name="periodcentered" unicode="&#xb7;" horiz-adv-x="342" 
d="M267 304q0 -44 -27 -67t-60 -24.5t-61.5 19t-31.5 64.5q-2 30 10.5 50.5t32.5 31t44 11.5t44.5 -8.5t34.5 -28.5t14 -48z" />
    <glyph glyph-name="quotesinglbase" unicode="&#x201a;" horiz-adv-x="321" 
d="M150 76q12 20 30 27t36 3.5t31.5 -17.5t15.5 -37q1 -12 -8 -37t-21.5 -51.5t-24.5 -49.5t-17 -32q-5 -11 -13 -22.5t-19 -18.5q-16 -11 -32 -10t-29 10t-21 24t-9 32q-1 16 7 29.5t14 27.5l28 58l28 58z" />
    <glyph glyph-name="quotedblbase" unicode="&#x201e;" horiz-adv-x="530" 
d="M338 76q12 20 30 27t36 3.5t31.5 -17.5t15.5 -37q1 -12 -8 -37t-21.5 -51.5t-24.5 -49.5t-17 -32q-5 -11 -13 -22.5t-19 -18.5q-16 -11 -32 -10t-29 10t-21 24t-9 32q-1 16 7 29.5t14 27.5l28 58l28 58zM150 76q12 20 30 27t36 3.5t31.5 -17.5t15.5 -37q1 -12 -8 -37
t-21.5 -51.5t-24.5 -49.5t-17 -32q-5 -11 -13 -22.5t-19 -18.5q-16 -11 -32 -10t-29 10t-21 24t-9 32q-1 16 7 29.5t14 27.5l28 58l28 58z" />
    <glyph glyph-name="perthousand" unicode="&#x2030;" horiz-adv-x="1059" 
d="M11 550q5 63 36.5 107.5t76.5 65t98.5 15t102.5 -40.5q33 0 76 -2.5t77 -4.5q25 -2 50 -1.5t51 -1.5q11 18 26.5 34t36.5 21q16 3 30 -2t24 -15.5t14 -25t1 -30.5q-6 -24 -24.5 -46t-31.5 -40q-29 -41 -57 -81.5t-57 -81.5q-48 -68 -94.5 -135t-94.5 -134
q-24 -34 -47.5 -67.5t-47.5 -67.5q0 -1 -4.5 -7.5t-10.5 -15.5t-12.5 -17.5t-11.5 -13.5q-15 -14 -33.5 -17.5t-35 3t-27.5 21.5t-9 38q2 18 13.5 35t21.5 31q21 31 42.5 61t43.5 61l108 153q40 58 80.5 115t81.5 115q-21 1 -52.5 1t-53.5 2q9 -54 -11 -102t-58.5 -79.5
t-89 -42.5t-102.5 7q-30 11 -52.5 30t-38 43.5t-24.5 53.5t-11 59zM394 100q2 28 10 53t26 47q32 38 74 51.5t83 5.5t75 -35.5t49 -71.5q2 8 5.5 15t8.5 15q23 33 53.5 51.5t63.5 24t65.5 -2t59 -27t43.5 -50.5t19 -73q2 -45 -18.5 -81t-54 -57.5t-75 -27t-81.5 10.5
q-35 14 -55.5 40.5t-31.5 58.5q-12 -39 -41.5 -65.5t-67.5 -37.5t-79 -4.5t-76 33.5q-30 23 -41.5 56.5t-13.5 70.5zM169 610q-28 -15 -34 -41.5t4.5 -49.5t34 -36.5t55.5 -3.5t43.5 35t5 50t-30 42t-62.5 11q-8 -3 -8 -2.5t-8 -4.5zM840 146q-20 -14 -27 -31.5t6 -39.5
q11 -20 26 -24t28.5 2.5t23 20t10.5 28.5t-9 27.5t-36 17.5zM561 152q-20 2 -36 -11.5t-18 -34.5q2 -8 4 -16.5t7 -16.5q15 -18 30.5 -20t28 5.5t21 21.5t8 28.5t-10.5 27t-34 16.5z" />
    <glyph glyph-name="Acircumflex" unicode="&#xc2;" horiz-adv-x="604" 
d="M577 29q-3 -22 -15 -37.5t-27.5 -21.5t-33 -1.5t-32.5 23.5q-13 16 -14.5 35.5t-5.5 38.5q-10 55 -29 113q-62 -1 -123 -1t-122 -1q-9 -26 -15.5 -53t-12.5 -53q-5 -20 -9 -41.5t-18 -37.5q-17 -20 -36.5 -22.5t-35 6.5t-25 27.5t-6.5 42.5q3 31 12 61t17 60
q45 172 116 333q6 14 12.5 27t12.5 26q7 14 14 30t16.5 29.5t22.5 23t32 9.5q25 0 42 -16q68 -68 112 -153.5t79 -174.5q21 1 41 0t36 -18q14 -14 16.5 -30t-3 -31t-18 -26t-30.5 -15q10 -35 17.5 -71.5t12.5 -73.5v-7zM373 301q-19 45 -40.5 89.5t-48.5 84.5
q-20 -44 -37.5 -87.5t-32.5 -88.5q47 1 82.5 1t76.5 1zM211 695q-14 -10 -32 -13t-33.5 1t-25 16t-6.5 33q4 27 22.5 43t38.5 32q19 16 38 31.5t39 31.5q14 12 29.5 10t30 -10.5t27.5 -19.5t22 -19q10 -8 22.5 -17t24.5 -18.5t21 -20t12 -22.5q7 -28 -3 -42t-27 -18t-37 1
t-34 15q-15 11 -29 22.5t-28 22.5q-18 -15 -36 -29.5t-36 -29.5z" />
    <glyph glyph-name="Ecircumflex" unicode="&#xca;" horiz-adv-x="520" 
d="M439 124q18 -1 31.5 -9.5t22 -20.5t10 -27.5t-6.5 -31.5q-3 -7 -12.5 -16.5t-17.5 -11.5q-64 -19 -131.5 -23.5t-133.5 2.5q-19 2 -41.5 4t-39.5 13q-31 20 -31 57v426q-11 8 -18 20t-8.5 25.5t3.5 26t17 21.5q20 16 46 21.5t51 9.5q52 8 104 8t106 1q16 0 37 2.5
t37 -3.5q19 -7 30 -22t13 -32t-6.5 -33t-29.5 -25q-25 -10 -53.5 -9t-54.5 1q-38 0 -76 -1t-76 -6v-139q36 -2 72 0t72 5q16 1 32 3t33 0q22 -3 34 -18t14.5 -33.5t-6.5 -36.5t-29 -26q-17 -7 -46 -10.5t-61 -5t-63 -1.5t-52 1v-123q55 -7 111 -2t110 19h7zM212 680
q-14 -10 -32 -13t-33.5 1t-25 16t-6.5 33q4 27 22.5 43t38.5 32q19 16 38 31.5t39 31.5q14 12 29.5 10t30 -10.5t27.5 -19.5t22 -19q10 -8 22.5 -17t24.5 -18.5t21 -20t12 -22.5q7 -28 -3 -42t-27 -18t-37 1t-34 15q-15 11 -29 22.5t-28 22.5q-18 -15 -36 -29.5t-36 -29.5z
" />
    <glyph glyph-name="Aacute" unicode="&#xc1;" horiz-adv-x="604" 
d="M577 29q-3 -22 -15 -37.5t-27.5 -21.5t-33 -1.5t-32.5 23.5q-13 16 -14.5 35.5t-5.5 38.5q-10 55 -29 113q-62 -1 -123 -1t-122 -1q-9 -26 -15.5 -53t-12.5 -53q-5 -20 -9 -41.5t-18 -37.5q-17 -20 -36.5 -22.5t-35 6.5t-25 27.5t-6.5 42.5q3 31 12 61t17 60
q45 172 116 333q6 14 12.5 27t12.5 26q7 14 14 30t16.5 29.5t22.5 23t32 9.5q25 0 42 -16q68 -68 112 -153.5t79 -174.5q21 1 41 0t36 -18q14 -14 16.5 -30t-3 -31t-18 -26t-30.5 -15q10 -35 17.5 -71.5t12.5 -73.5v-7zM373 301q-19 45 -40.5 89.5t-48.5 84.5
q-20 -44 -37.5 -87.5t-32.5 -88.5q47 1 82.5 1t76.5 1zM330 907q22 11 41.5 7.5t32 -16.5t16 -33t-7.5 -41q-7 -14 -21.5 -24t-26.5 -19q-27 -21 -54.5 -42t-56.5 -39q-20 -12 -40.5 -10t-35.5 14t-20 31t7 41q7 12 15.5 19.5t19.5 15.5q23 18 38 29t28.5 20.5t28 20
t36.5 26.5z" />
    <glyph glyph-name="Edieresis" unicode="&#xcb;" horiz-adv-x="520" 
d="M439 124q18 -1 31.5 -9.5t22 -20.5t10 -27.5t-6.5 -31.5q-3 -7 -12.5 -16.5t-17.5 -11.5q-64 -19 -131.5 -23.5t-133.5 2.5q-19 2 -41.5 4t-39.5 13q-31 20 -31 57v426q-11 8 -18 20t-8.5 25.5t3.5 26t17 21.5q20 16 46 21.5t51 9.5q52 8 104 8t106 1q16 0 37 2.5
t37 -3.5q19 -7 30 -22t13 -32t-6.5 -33t-29.5 -25q-25 -10 -53.5 -9t-54.5 1q-38 0 -76 -1t-76 -6v-139q36 -2 72 0t72 5q16 1 32 3t33 0q22 -3 34 -18t14.5 -33.5t-6.5 -36.5t-29 -26q-17 -7 -46 -10.5t-61 -5t-63 -1.5t-52 1v-123q55 -7 111 -2t110 19h7zM477 749
q0 -20 -10.5 -35t-24.5 -26q-19 -13 -30 -15.5t-31 3.5q-18 6 -28 21.5t-12.5 33.5t4.5 35t24 25q14 13 33 17t35.5 -1t28 -19.5t11.5 -38.5zM241 754q0 -16 -9.5 -31t-23.5 -25.5t-31.5 -14t-32.5 2.5q-19 7 -29.5 20.5t-12.5 29.5t5 31.5t23 27.5q11 9 23 13q14 7 29.5 6
t28.5 -9t21.5 -21t8.5 -30z" />
    <glyph glyph-name="Egrave" unicode="&#xc8;" horiz-adv-x="520" 
d="M439 124q18 -1 31.5 -9.5t22 -20.5t10 -27.5t-6.5 -31.5q-3 -7 -12.5 -16.5t-17.5 -11.5q-64 -19 -131.5 -23.5t-133.5 2.5q-19 2 -41.5 4t-39.5 13q-31 20 -31 57v426q-11 8 -18 20t-8.5 25.5t3.5 26t17 21.5q20 16 46 21.5t51 9.5q52 8 104 8t106 1q16 0 37 2.5
t37 -3.5q19 -7 30 -22t13 -32t-6.5 -33t-29.5 -25q-25 -10 -53.5 -9t-54.5 1q-38 0 -76 -1t-76 -6v-139q36 -2 72 0t72 5q16 1 32 3t33 0q22 -3 34 -18t14.5 -33.5t-6.5 -36.5t-29 -26q-17 -7 -46 -10.5t-61 -5t-63 -1.5t-52 1v-123q55 -7 111 -2t110 19h7zM188 801
q-15 18 -18 38.5t5.5 37t26.5 25t43 2.5q17 -5 29 -17t25 -23q29 -23 58.5 -48t55.5 -52q17 -17 17.5 -37t-9.5 -35.5t-29 -24t-41 -2.5q-12 3 -34.5 21t-47 40t-46.5 42.5t-31 28.5z" />
    <glyph glyph-name="Iacute" unicode="&#xcd;" horiz-adv-x="421" 
d="M319 105q26 -1 43 -15.5t22 -33.5t-3 -37.5t-33 -28.5q-18 -7 -42.5 -9t-49 -1.5t-45.5 2t-32 1.5h-59q-21 0 -36 11.5t-21.5 27.5t-3 34t18.5 33q14 14 37 16t46 0v396q-23 0 -43 0.5t-40 14.5q-15 11 -20 25.5t-1.5 29t13.5 27.5t25 19q14 6 29 6q51 0 102.5 0.5
t103.5 -0.5q5 0 9.5 -3t9.5 -5q23 -13 31 -37t-6 -47q-7 -12 -17.5 -18.5t-23 -9t-25.5 -2.5h-25v-398q8 0 14.5 0.5t14.5 1.5h7zM296 890q22 11 41.5 7.5t32 -16.5t16 -33t-7.5 -41q-7 -14 -21.5 -24t-26.5 -19q-27 -21 -54.5 -42t-56.5 -39q-20 -12 -40.5 -10t-35.5 14
t-20 31t7 41q7 12 15.5 19.5t19.5 15.5q23 18 38 29t28.5 20.5t28 20t36.5 26.5z" />
    <glyph glyph-name="Icircumflex" unicode="&#xce;" horiz-adv-x="430" 
d="M328 105q26 -1 43 -15.5t22 -33.5t-3 -37.5t-33 -28.5q-18 -7 -42.5 -9t-49 -1.5t-45.5 2t-32 1.5h-59q-21 0 -36 11.5t-21.5 27.5t-3 34t18.5 33q14 14 37 16t46 0v396q-23 0 -43 0.5t-40 14.5q-15 11 -20 25.5t-1.5 29t13.5 27.5t25 19q14 6 29 6q51 0 102.5 0.5
t103.5 -0.5q5 0 9.5 -3t9.5 -5q23 -13 31 -37t-6 -47q-7 -12 -17.5 -18.5t-23 -9t-25.5 -2.5h-25v-398q8 0 14.5 0.5t14.5 1.5h7zM173 698q-14 -10 -32 -13t-33.5 1t-25 16t-6.5 33q4 27 22.5 43t38.5 32q19 16 38 31.5t39 31.5q14 12 29.5 10t30 -10.5t27.5 -19.5t22 -19
q10 -8 22.5 -17t24.5 -18.5t21 -20t12 -22.5q7 -28 -3 -42t-27 -18t-37 1t-34 15q-15 11 -29 22.5t-28 22.5q-18 -15 -36 -29.5t-36 -29.5z" />
    <glyph glyph-name="Idieresis" unicode="&#xcf;" horiz-adv-x="421" 
d="M336 105q26 -1 43 -15.5t22 -33.5t-3 -37.5t-33 -28.5q-18 -7 -42.5 -9t-49 -1.5t-45.5 2t-32 1.5h-59q-21 0 -36 11.5t-21.5 27.5t-3 34t18.5 33q14 14 37 16t46 0v396q-23 0 -43 0.5t-40 14.5q-15 11 -20 25.5t-1.5 29t13.5 27.5t25 19q14 6 29 6q51 0 102.5 0.5
t103.5 -0.5q5 0 9.5 -3t9.5 -5q23 -13 31 -37t-6 -47q-7 -12 -17.5 -18.5t-23 -9t-25.5 -2.5h-25v-398q8 0 14.5 0.5t14.5 1.5h7zM444 764q0 -20 -10.5 -35t-24.5 -26q-19 -13 -30 -15.5t-31 3.5q-18 6 -28 21.5t-12.5 33.5t4.5 35t24 25q14 13 33 17t35.5 -1t28 -19.5
t11.5 -38.5zM208 769q0 -16 -9.5 -31t-23.5 -25.5t-31.5 -14t-32.5 2.5q-19 7 -29.5 20.5t-12.5 29.5t5 31.5t23 27.5q11 9 23 13q14 7 29.5 6t28.5 -9t21.5 -21t8.5 -30z" />
    <glyph glyph-name="Igrave" unicode="&#xcc;" horiz-adv-x="421" 
d="M319 105q26 -1 43 -15.5t22 -33.5t-3 -37.5t-33 -28.5q-18 -7 -42.5 -9t-49 -1.5t-45.5 2t-32 1.5h-59q-21 0 -36 11.5t-21.5 27.5t-3 34t18.5 33q14 14 37 16t46 0v396q-23 0 -43 0.5t-40 14.5q-15 11 -20 25.5t-1.5 29t13.5 27.5t25 19q14 6 29 6q51 0 102.5 0.5
t103.5 -0.5q5 0 9.5 -3t9.5 -5q23 -13 31 -37t-6 -47q-7 -12 -17.5 -18.5t-23 -9t-25.5 -2.5h-25v-398q8 0 14.5 0.5t14.5 1.5h7zM118 820q-15 18 -18 38.5t5.5 37t26.5 25t43 2.5q17 -5 29 -17t25 -23q29 -23 58.5 -48t55.5 -52q17 -17 17.5 -37t-9.5 -35.5t-29 -24
t-41 -2.5q-12 3 -34.5 21t-47 40t-46.5 42.5t-31 28.5z" />
    <glyph glyph-name="Oacute" unicode="&#xd3;" horiz-adv-x="677" 
d="M636 255q-17 -56 -43.5 -109.5t-64.5 -95.5t-88.5 -68t-115.5 -26q-42 2 -66.5 7.5t-47.5 16.5q-41 12 -70.5 38.5t-49.5 61.5t-30.5 74.5t-13.5 76.5q-5 65 11 132t51 123.5t88 97t121 53.5q35 6 71 4t70 -14q28 -10 52 -23t46 -33q29 -26 49 -60t29 -71q11 -47 10 -93
t-8 -92zM377 86q30 13 52.5 34.5t39.5 47.5t28.5 55.5t20.5 59.5q6 38 6.5 78t-16.5 76q-14 30 -42.5 51.5t-62.5 30t-68.5 3.5t-61.5 -27q-38 -32 -61.5 -71.5t-35.5 -87.5q-10 -38 -11 -80t13 -80q11 -28 32.5 -51t48.5 -36t57.5 -14.5t60.5 11.5zM420 914q22 11 41.5 7.5
t32 -16.5t16 -33t-7.5 -41q-7 -14 -21.5 -24t-26.5 -19q-27 -21 -54.5 -42t-56.5 -39q-20 -12 -40.5 -10t-35.5 14t-20 31t7 41q7 12 15.5 19.5t19.5 15.5q23 18 38 29t28.5 20.5t28 20t36.5 26.5z" />
    <glyph glyph-name="Ocircumflex" unicode="&#xd4;" horiz-adv-x="677" 
d="M636 255q-17 -56 -43.5 -109.5t-64.5 -95.5t-88.5 -68t-115.5 -26q-42 2 -66.5 7.5t-47.5 16.5q-41 12 -70.5 38.5t-49.5 61.5t-30.5 74.5t-13.5 76.5q-5 65 11 132t51 123.5t88 97t121 53.5q35 6 71 4t70 -14q28 -10 52 -23t46 -33q29 -26 49 -60t29 -71q11 -47 10 -93
t-8 -92zM377 86q30 13 52.5 34.5t39.5 47.5t28.5 55.5t20.5 59.5q6 38 6.5 78t-16.5 76q-14 30 -42.5 51.5t-62.5 30t-68.5 3.5t-61.5 -27q-38 -32 -61.5 -71.5t-35.5 -87.5q-10 -38 -11 -80t13 -80q11 -28 32.5 -51t48.5 -36t57.5 -14.5t60.5 11.5zM305 705
q-14 -10 -32 -13t-33.5 1t-25 16t-6.5 33q4 27 22.5 43t38.5 32q19 16 38 31.5t39 31.5q14 12 29.5 10t30 -10.5t27.5 -19.5t22 -19q10 -8 22.5 -17t24.5 -18.5t21 -20t12 -22.5q7 -28 -3 -42t-27 -18t-37 1t-34 15q-15 11 -29 22.5t-28 22.5q-18 -15 -36 -29.5t-36 -29.5z
" />
    <glyph glyph-name="apple" unicode="&#xf8ff;" horiz-adv-x="874" 
d="M641 765q2 -8 2 -15v-14q-1 -25 -8 -47.5t-17 -45.5q18 -2 36 -7.5t35 -13.5q23 -11 43.5 -28t37.5 -36q18 -20 17.5 -36t-10.5 -30.5t-24 -27.5t-25 -27q-28 -39 -19 -84q5 -27 13 -40t28 -31q11 -9 21 -13.5t18.5 -10t13 -14.5t4.5 -29q0 -7 -3 -16.5t-6.5 -19
t-8 -18.5l-7.5 -15q-14 -32 -32.5 -62.5t-42.5 -55t-54 -41t-67 -21.5q-18 -2 -34.5 2.5t-33 10.5t-33.5 11t-34 4q-21 -2 -40 -8.5t-38 -12.5t-38.5 -8.5t-41.5 3.5q-24 7 -45 21.5t-38 33.5t-31.5 40.5t-26.5 42.5q-21 37 -38 78t-26.5 83.5t-10 86t10.5 85.5
q8 29 18 57.5t28 51.5q75 97 201 94q9 -1 24 -2t27 -6q9 38 24 65.5t37.5 48t52.5 35.5t69 28q18 8 38 1t29 -32z" />
    <glyph glyph-name="Ograve" unicode="&#xd2;" horiz-adv-x="677" 
d="M636 255q-17 -56 -43.5 -109.5t-64.5 -95.5t-88.5 -68t-115.5 -26q-42 2 -66.5 7.5t-47.5 16.5q-41 12 -70.5 38.5t-49.5 61.5t-30.5 74.5t-13.5 76.5q-5 65 11 132t51 123.5t88 97t121 53.5q35 6 71 4t70 -14q28 -10 52 -23t46 -33q29 -26 49 -60t29 -71q11 -47 10 -93
t-8 -92zM377 86q30 13 52.5 34.5t39.5 47.5t28.5 55.5t20.5 59.5q6 38 6.5 78t-16.5 76q-14 30 -42.5 51.5t-62.5 30t-68.5 3.5t-61.5 -27q-38 -32 -61.5 -71.5t-35.5 -87.5q-10 -38 -11 -80t13 -80q11 -28 32.5 -51t48.5 -36t57.5 -14.5t60.5 11.5zM256 830
q-15 18 -18 38.5t5.5 37t26.5 25t43 2.5q17 -5 29 -17t25 -23q29 -23 58.5 -48t55.5 -52q17 -17 17.5 -37t-9.5 -35.5t-29 -24t-41 -2.5q-12 3 -34.5 21t-47 40t-46.5 42.5t-31 28.5z" />
    <glyph glyph-name="Uacute" unicode="&#xda;" horiz-adv-x="615" 
d="M464 573q6 20 19.5 33t29.5 17t32.5 -2t28.5 -24q4 -5 7.5 -12t3.5 -13q0 -11 -1 -37t-1.5 -53t-1.5 -48t-1 -22q-2 -54 -7 -107.5t-14 -107.5q-8 -42 -19 -77.5t-30 -63t-48 -47.5t-72 -32q-17 -5 -35.5 -7t-35.5 -2q-50 0 -102 19q-59 23 -89 76t-42 118.5t-11.5 132.5
t0.5 118q0 21 0.5 42.5t1.5 42.5q0 15 1 31.5t6 31.5t15.5 26t29.5 15q11 2 23.5 -2t22.5 -11.5t17 -18t7 -22.5v-25.5v-17t-0.5 -15.5t-0.5 -21q-2 -66 -2 -131.5t8 -130.5q3 -27 9 -56t24 -50q16 -19 41.5 -26.5t52 -4.5t50 15t36.5 32t20 47t10.5 56t5 57.5t2.5 52.5
q2 28 3 48t2 48q1 21 1 42t1 42zM428 855q22 11 41.5 7.5t32 -16.5t16 -33t-7.5 -41q-7 -14 -21.5 -24t-26.5 -19q-27 -21 -54.5 -42t-56.5 -39q-20 -12 -40.5 -10t-35.5 14t-20 31t7 41q7 12 15.5 19.5t19.5 15.5q23 18 38 29t28.5 20.5t28 20t36.5 26.5z" />
    <glyph glyph-name="Ucircumflex" unicode="&#xdb;" horiz-adv-x="615" 
d="M464 573q6 20 19.5 33t29.5 17t32.5 -2t28.5 -24q4 -5 7.5 -12t3.5 -13q0 -11 -1 -37t-1.5 -53t-1.5 -48t-1 -22q-2 -54 -7 -107.5t-14 -107.5q-8 -42 -19 -77.5t-30 -63t-48 -47.5t-72 -32q-17 -5 -35.5 -7t-35.5 -2q-50 0 -102 19q-59 23 -89 76t-42 118.5t-11.5 132.5
t0.5 118q0 21 0.5 42.5t1.5 42.5q0 15 1 31.5t6 31.5t15.5 26t29.5 15q11 2 23.5 -2t22.5 -11.5t17 -18t7 -22.5v-25.5v-17t-0.5 -15.5t-0.5 -21q-2 -66 -2 -131.5t8 -130.5q3 -27 9 -56t24 -50q16 -19 41.5 -26.5t52 -4.5t50 15t36.5 32t20 47t10.5 56t5 57.5t2.5 52.5
q2 28 3 48t2 48q1 21 1 42t1 42zM282 683q-14 -10 -32 -13t-33.5 1t-25 16t-6.5 33q4 27 22.5 43t38.5 32q19 16 38 31.5t39 31.5q14 12 29.5 10t30 -10.5t27.5 -19.5t22 -19q10 -8 22.5 -17t24.5 -18.5t21 -20t12 -22.5q7 -28 -3 -42t-27 -18t-37 1t-34 15q-15 11 -29 22.5
t-28 22.5q-18 -15 -36 -29.5t-36 -29.5z" />
    <glyph glyph-name="Ugrave" unicode="&#xd9;" horiz-adv-x="615" 
d="M464 573q6 20 19.5 33t29.5 17t32.5 -2t28.5 -24q4 -5 7.5 -12t3.5 -13q0 -11 -1 -37t-1.5 -53t-1.5 -48t-1 -22q-2 -54 -7 -107.5t-14 -107.5q-8 -42 -19 -77.5t-30 -63t-48 -47.5t-72 -32q-17 -5 -35.5 -7t-35.5 -2q-50 0 -102 19q-59 23 -89 76t-42 118.5t-11.5 132.5
t0.5 118q0 21 0.5 42.5t1.5 42.5q0 15 1 31.5t6 31.5t15.5 26t29.5 15q11 2 23.5 -2t22.5 -11.5t17 -18t7 -22.5v-25.5v-17t-0.5 -15.5t-0.5 -21q-2 -66 -2 -131.5t8 -130.5q3 -27 9 -56t24 -50q16 -19 41.5 -26.5t52 -4.5t50 15t36.5 32t20 47t10.5 56t5 57.5t2.5 52.5
q2 28 3 48t2 48q1 21 1 42t1 42zM228 781q-15 18 -18 38.5t5.5 37t26.5 25t43 2.5q17 -5 29 -17t25 -23q29 -23 58.5 -48t55.5 -52q17 -17 17.5 -37t-9.5 -35.5t-29 -24t-41 -2.5q-12 3 -34.5 21t-47 40t-46.5 42.5t-31 28.5z" />
    <glyph glyph-name="dotlessi" unicode="&#x131;" horiz-adv-x="266" 
d="M75 433q7 23 25.5 37t38 17t35.5 -7t18 -35q8 -109 7 -212t-3 -212q-3 -32 -22.5 -46.5t-41.5 -14t-40 16.5t-18 46v404z" />
    <glyph glyph-name="circumflex" unicode="&#x2c6;" horiz-adv-x="446" 
d="M149 538q-14 -10 -32 -13t-33.5 1t-25 16t-6.5 33q4 27 22.5 43t38.5 32q19 16 38 31.5t39 31.5q14 12 29.5 10t30 -10.5t27.5 -19.5t22 -19q10 -8 22.5 -17t24.5 -18.5t21 -20t12 -22.5q7 -28 -3 -42t-27 -18t-37 1t-34 15q-15 11 -29 22.5t-28 22.5q-18 -15 -36 -29.5
t-36 -29.5z" />
    <glyph glyph-name="tilde" unicode="&#x2dc;" horiz-adv-x="507" 
d="M484 644q0 -25 -17.5 -37.5t-35.5 -26.5q-11 -9 -22 -17t-24 -15q-34 -17 -55.5 -17.5t-40.5 8.5t-39 22.5t-50 23.5q-3 0 -5 -1q-7 -4 -17 -12t-20.5 -16.5t-19.5 -15.5t-15 -9q-16 -4 -34.5 0t-32 14.5t-19 25.5t3.5 33q6 12 25 28.5t42 32t47 26.5t41 13q16 2 32 -3.5
t31.5 -14t29.5 -18.5t26 -18q1 -1 1.5 -1t1.5 -1q19 8 30.5 16.5t16.5 11.5l3 3q4 4 10 7q13 10 31.5 12t35 -3t28 -18t11.5 -33z" />
    <glyph glyph-name="macron" unicode="&#xaf;" horiz-adv-x="522" 
d="M96 557q-29 6 -42.5 22.5t-11.5 33.5t19 30t47 13q79 0 158.5 0.5t159.5 -0.5q6 0 12.5 -3t11.5 -6q16 -10 22.5 -23t4 -25.5t-13.5 -24t-29 -16.5q-48 -1 -90 -1h-81.5t-79 -0.5t-80.5 -0.5z" />
    <glyph glyph-name="breve" unicode="&#x2d8;" horiz-adv-x="456" 
d="M417 597q0 -23 -12.5 -44t-26.5 -38q-27 -33 -65.5 -48t-79.5 -14t-79.5 17.5t-65.5 46.5q-11 12 -20.5 30t-12.5 36t2 35t24 27q8 5 17 7.5t18 0.5q21 -4 31.5 -18.5t21 -30.5t25.5 -28.5t45 -13.5q10 2 20 2.5t19 5.5q10 6 16 15t11.5 18.5t11 18.5t14.5 15
q12 9 26.5 9.5t28 -5.5t22.5 -17.5t9 -26.5z" />
    <glyph glyph-name="dotaccent" unicode="&#x2d9;" horiz-adv-x="266" 
d="M212 598q0 -25 -11 -42.5t-27.5 -26.5t-36 -10t-37 7t-29.5 24.5t-13 40.5q-2 27 8.5 44t28 26.5t38 10t38 -7.5t29.5 -24t12 -42z" />
    <glyph glyph-name="ring" unicode="&#x2da;" horiz-adv-x="348" 
d="M304 556q0 -43 -19 -72.5t-47.5 -45t-62.5 -16.5t-63.5 12t-50 41t-22.5 70q-3 47 16 77.5t48.5 46t64.5 16t65 -14t50.5 -43t20.5 -71.5zM207 554q0 8 -5.5 16t-14.5 13t-19.5 5t-20.5 -8q-7 -9 -8.5 -21t2 -22.5t12.5 -16t24 -2.5q14 4 22 13t8 23z" />
    <glyph glyph-name="cedilla" unicode="&#xb8;" horiz-adv-x="348" 
d="M306 -111q0 -70 -39.5 -100.5t-105.5 -35.5q-15 -1 -34 0t-35.5 7t-28 17.5t-12.5 31.5q-2 17 8.5 23.5t26.5 12.5q9 5 20 2.5t19 -3.5q9 0 22.5 -1.5t25.5 1t20.5 10.5t8.5 26q-12 7 -27.5 8t-31 1.5t-30.5 3t-27 12.5q-12 11 -12.5 26.5t4.5 29.5q4 9 7.5 20.5t8 22
t11 19.5t16.5 15q18 11 31.5 8.5t22.5 -13.5t13 -27.5t3 -32.5q51 -7 81 -23t34 -61z" />
    <glyph glyph-name="hungarumlaut" unicode="&#x2dd;" horiz-adv-x="389" 
d="M91 686q12 20 28.5 27t32.5 3.5t28 -17.5t14 -37q2 -16 -5 -29.5t-12 -27.5q-12 -28 -21.5 -57t-24.5 -55q-10 -18 -25.5 -25t-30.5 -3.5t-27.5 16t-16.5 31.5q-3 12 3.5 34.5t16 48t20 49t16.5 36.5zM262 673q12 20 28.5 28t32.5 5.5t28 -15.5t14 -36q2 -16 -5 -29.5
t-12 -27.5q-12 -28 -21.5 -57t-24.5 -55q-10 -18 -25.5 -26t-30.5 -5.5t-27.5 14t-16.5 30.5q-3 12 3.5 34.5t16 48t20 49t16.5 36.5z" />
    <glyph glyph-name="ogonek" unicode="&#x2db;" horiz-adv-x="302" 
d="M240 -164q0 -16 -7.5 -29t-19.5 -20.5t-26.5 -8.5t-29.5 8q-18 10 -37 23.5t-35 30.5t-24.5 37.5t-5.5 44.5q2 17 15 38.5t32 39.5t40 29.5t40 8.5q13 -2 24 -11.5t17 -22t5.5 -26t-9.5 -25.5q-11 -14 -25.5 -22.5t-27.5 -19.5q9 -9 21.5 -16t24.5 -15t20 -18.5t8 -25.5z
" />
    <glyph glyph-name="caron" unicode="&#x2c7;" horiz-adv-x="399" 
d="M126 730q19 -12 36.5 -24.5t35.5 -25.5q18 12 35 24.5t36 23.5q17 10 34 11t31 -5t22.5 -18t5.5 -28q-3 -13 -14 -25.5t-27 -23.5t-32.5 -20t-28.5 -18l-26 -18t-30 -10q-12 -1 -23.5 2.5t-22 9t-20 13t-18.5 13.5q-13 9 -27 17.5t-28 19t-24 22.5t-14 24q-4 18 4.5 29.5
t23 16.5t32.5 3.5t34 -9.5z" />
    <glyph glyph-name="zero.slash" horiz-adv-x="555" 
d="M516 231q-17 -59 -43 -115.5t-71 -100.5q-35 -33 -79 -47.5t-89 -10t-85.5 27t-67.5 62.5q-22 32 -35 71t-18.5 80.5t-3.5 82.5t11 78q10 38 21.5 76.5t33.5 72.5q23 35 46 59t58 47q11 8 24.5 12t27.5 8q38 9 75 3.5t70 -22t60 -43t44 -61.5q15 -31 22.5 -66.5t9 -71.5
t-1.5 -72t-9 -70zM139 249q0 -23 4.5 -43.5t11.5 -40.5q38 89 77 176t78 176q-34 4 -60 -8t-45 -33.5t-31.5 -50.5t-20.5 -60t-11 -61.5t-3 -54.5zM251 78q37 -3 63.5 12.5t45.5 41.5t30.5 59.5t18.5 67.5q7 41 4.5 82t-13.5 81q-37 -87 -73.5 -172.5t-75.5 -171.5z" />
    <glyph glyph-name="zero.dot" horiz-adv-x="555" 
d="M231 297q4 32 23.5 47.5t42 16t40.5 -15t19 -46.5q2 -30 -16 -47.5t-40.5 -19.5t-43 12t-24.5 46zM422 262q6 30 5 71t-13.5 79t-38 64t-69.5 26q-48 0 -77 -31t-43.5 -75.5t-17.5 -92t2 -80.5q3 -22 10.5 -46t19.5 -44t30.5 -32t44.5 -11q36 2 60.5 16.5t41.5 37
t27.5 52t16.5 61.5zM537 242q-13 -73 -50 -139.5t-103 -107.5q-33 -16 -70 -21t-73 1t-68 24.5t-55 49.5q-50 68 -64.5 141t-1.5 154q9 57 31.5 113t63.5 98q33 34 73 51.5t81.5 18.5t82 -15t74.5 -48t53.5 -70.5t27.5 -79.5t7 -84.5t-9 -85.5z" />
    <glyph glyph-name="Omega" unicode="&#x3a9;" horiz-adv-x="724" 
d="M604 97q19 -6 32.5 -18.5t18.5 -28.5t-0.5 -32.5t-23.5 -29.5q-13 -9 -34 -14t-45.5 -6.5t-49.5 -0.5t-45.5 3t-33.5 3.5t-15 1.5q-19 0 -34 10t-23 27q-9 20 -2.5 40t20 39t29 36t25.5 30q26 35 52.5 75.5t43.5 84.5t19.5 89.5t-20.5 90.5q-11 10 -22.5 20t-25.5 15
q-31 11 -63 6t-61 -21.5t-54.5 -42t-43 -55.5t-26.5 -62.5t-5 -62.5q5 -42 24.5 -79t41.5 -72q9 -15 19.5 -30t16 -30t2.5 -30.5t-21 -31.5q-10 -10 -27.5 -13.5t-36.5 -3.5t-37 1.5t-31 1.5q-12 0 -24.5 -1t-25 -0.5t-24.5 3.5t-22 11q-18 14 -22 31t2 32.5t20.5 27.5
t35.5 15q10 2 20 2h20q-22 41 -38.5 84.5t-14.5 89.5q5 116 63 201t162 135q26 13 52.5 16t54.5 6q36 3 71 -8.5t64 -32.5t51.5 -50.5t34.5 -62.5q9 -26 11 -52t2 -52q-1 -38 -10 -72.5t-22 -69.5q-17 -45 -43 -85t-55 -78h73v0z" />
    <glyph glyph-name="approxequal" unicode="&#x2248;" horiz-adv-x="579" 
d="M153 127q-13 -10 -31 -12.5t-34 3t-26.5 19.5t-8.5 35q3 24 19.5 45.5t40.5 37.5t51 26t50 10t42.5 -11t38.5 -26t38 -28.5t40 -18.5q17 -3 34.5 6t35.5 21t36 21.5t34 7.5q18 -3 28 -13t13 -23t-0.5 -28t-12.5 -29q-13 -19 -31.5 -34t-40.5 -26.5t-46 -18t-47 -8.5
q-28 -2 -48.5 9.5t-38.5 27t-35 31t-37 22.5q-9 0 -18 -5t-17 -12.5t-15.5 -15.5t-13.5 -13zM108 312q-17 -14 -36.5 -15t-34 8.5t-21 27.5t2.5 41t31 41.5t49 32.5t56 22.5t51 10.5q23 2 42.5 -7.5t36 -23.5t31 -28.5t28.5 -23t27.5 -6t27.5 22.5q7 9 13.5 18t14.5 16
t18 11t22 2q18 -3 29 -13t15.5 -24t3 -29.5t-9.5 -29.5q-18 -35 -50.5 -58.5t-73.5 -28.5q-19 -3 -40 9.5t-43 28t-44 29t-43 13.5q-10 0 -25 -5.5t-30 -13t-28.5 -15.5t-19.5 -13z" />
    <glyph glyph-name="Euro" unicode="&#x20ac;" horiz-adv-x="633" 
d="M487 194q20 20 43 19.5t40.5 -13t23.5 -33.5t-9 -44q-29 -43 -67.5 -78.5t-83 -53t-92.5 -12t-96 44.5q-11 9 -21 23t-18 25q-14 23 -24 48t-15 50h-49.5t-48.5 12q-30 18 -30 40t32 39q19 11 41.5 10.5t44.5 -2.5v9v18t0.5 18.5t0.5 9.5q-19 0 -38 2t-33 12
q-16 11 -21.5 25.5t-2.5 28.5t14.5 25.5t29.5 16.5q20 5 40.5 4.5t40.5 -2.5q25 58 74 105t106 75q25 13 54 22t58 3q18 -4 37.5 -13.5t35.5 -23.5t28 -31.5t15 -37.5q3 -19 -2.5 -36.5t-18 -28.5t-29.5 -13t-36 8q-16 9 -24 26t-20 30h-1h-10t-10 -2q-6 -3 -10 -3
q-35 -16 -64 -33.5t-49 -49.5q29 -1 58.5 1.5t58.5 -5.5q17 -4 26 -18t9 -30.5t-9.5 -32t-30.5 -23.5q-10 -3 -32.5 -4t-47 -0.5t-46 1.5t-29.5 1v-9.5t-0.5 -18.5t-0.5 -18v-10q10 0 29 1t39.5 1.5t40 -1t29.5 -6.5q12 -6 19 -19t7.5 -27.5t-5.5 -26.5t-19 -15
q-32 -8 -63.5 -7.5t-63.5 1.5q3 -9 7 -17.5t10 -16.5q24 -30 49 -33t49 10.5t45 37t35 45.5z" />
    <glyph glyph-name="gravecmb" unicode="&#x300;" horiz-adv-x="307" 
d="M44 589q-15 18 -18 38.5t5.5 37t26.5 25t43 2.5q17 -5 29 -17t25 -23q29 -23 58.5 -48t55.5 -52q17 -17 17.5 -37t-9.5 -35.5t-29 -24t-41 -2.5q-12 3 -34.5 21t-47 40t-46.5 42.5t-31 28.5z" />
    <glyph glyph-name="acutecmb" unicode="&#x301;" horiz-adv-x="343" 
d="M218 671q22 11 41.5 7.5t32 -16.5t16 -33t-7.5 -41q-7 -14 -21.5 -24t-26.5 -19q-27 -21 -54.5 -42t-56.5 -39q-20 -12 -40.5 -10t-35.5 14t-20 31t7 41q7 12 15.5 19.5t19.5 15.5q23 18 38 29t28.5 20.5t28 20t36.5 26.5z" />
    <glyph glyph-name="circumflexcmb" unicode="&#x302;" horiz-adv-x="477" 
d="M417 573q1 -23 -9 -37.5t-25.5 -20.5t-34.5 -3.5t-36 14.5q-8 6 -20.5 20t-23.5 28q-13 17 -27 37q-15 -17 -29.5 -33.5t-29.5 -33.5q-15 -18 -36.5 -26.5t-40.5 -5.5t-32 19t-12 46q0 9 8 21t19.5 25t24.5 25.5t23 22.5q12 12 25.5 26t27.5 24q25 17 45 19.5t38 -5.5
t34.5 -23.5t33.5 -34.5q10 -11 23 -24.5t25 -28t20.5 -28t8.5 -23.5z" />
    <glyph glyph-name="tildecmb" unicode="&#x303;" horiz-adv-x="507" 
d="M484 644q0 -25 -17.5 -37.5t-35.5 -26.5q-11 -9 -22 -17t-24 -15q-34 -17 -55.5 -17.5t-40.5 8.5t-39 22.5t-50 23.5q-3 0 -5 -1q-7 -4 -17 -12t-20.5 -16.5t-19.5 -15.5t-15 -9q-16 -4 -34.5 0t-32 14.5t-19 25.5t3.5 33q6 12 25 28.5t42 32t47 26.5t41 13q16 2 32 -3.5
t31.5 -14t29.5 -18.5t26 -18q1 -1 1.5 -1t1.5 -1q19 8 30.5 16.5t16.5 11.5l3 3q4 4 10 7q13 10 31.5 12t35 -3t28 -18t11.5 -33z" />
    <glyph glyph-name="dieresiscmb" unicode="&#x308;" horiz-adv-x="456" 
d="M414 693q0 -20 -10.5 -35t-24.5 -26q-19 -13 -30 -15.5t-31 3.5q-18 6 -28 21.5t-12.5 33.5t4.5 35t24 25q14 13 33 17t35.5 -1t28 -19.5t11.5 -38.5zM178 698q0 -16 -9.5 -31t-23.5 -25.5t-31.5 -14t-32.5 2.5q-19 7 -29.5 20.5t-12.5 29.5t5 31.5t23 27.5q11 9 23 13
q14 7 29.5 6t28.5 -9t21.5 -21t8.5 -30z" />
    <glyph glyph-name="ringcmb" unicode="&#x30a;" horiz-adv-x="348" 
d="M304 556q0 -43 -19 -72.5t-47.5 -45t-62.5 -16.5t-63.5 12t-50 41t-22.5 70q-3 47 16 77.5t48.5 46t64.5 16t65 -14t50.5 -43t20.5 -71.5zM207 554q0 8 -5.5 16t-14.5 13t-19.5 5t-20.5 -8q-7 -9 -8.5 -21t2 -22.5t12.5 -16t24 -2.5q14 4 22 13t8 23z" />
    <glyph glyph-name="cedillacmb" unicode="&#x327;" horiz-adv-x="348" 
d="M306 -111q0 -70 -39.5 -100.5t-105.5 -35.5q-15 -1 -34 0t-35.5 7t-28 17.5t-12.5 31.5q-2 17 8.5 23.5t26.5 12.5q9 5 20 2.5t19 -3.5q9 0 22.5 -1.5t25.5 1t20.5 10.5t8.5 26q-12 7 -27.5 8t-31 1.5t-30.5 3t-27 12.5q-12 11 -12.5 26.5t4.5 29.5q4 9 7.5 20.5t8 22
t11 19.5t16.5 15q18 11 31.5 8.5t22.5 -13.5t13 -27.5t3 -32.5q51 -7 81 -23t34 -61z" />
    <glyph glyph-name="soliduslongoverlaycmb" unicode="&#x338;" horiz-adv-x="555" 
d="M479 639q14 14 31 20.5t33.5 4t29 -14t15.5 -34.5q2 -13 -1.5 -24.5t-9.5 -22.5t-13.5 -21t-13.5 -19q-45 -69 -90.5 -136t-91.5 -135l-150 -222q-12 -18 -24 -36.5t-25 -36.5q-9 -13 -18.5 -24t-21 -17.5t-25 -6.5t-30.5 9q-20 11 -25.5 26.5t-2.5 33t13 36t21.5 35
t22.5 30t16 21.5q91 134 180.5 266.5t179.5 267.5z" />
    <glyph glyph-name="notequal_mirror" horiz-adv-x="522" 
d="M240.034 515q-11.998 20 -28.4961 27.5t-32.9961 5t-29.9961 -15q-13.499 -12.5 -19.498 -33.5q-3.99902 -13 -2 -27.5q2 -14.5 7.49902 -29q5.5 -14.5 11.499 -28.5t8.99902 -26q-7.99902 0 -19.998 1q-11.998 1 -24.9961 1q-12.999 0 -25.4971 -1.5
q-12.499 -1.5 -22.4971 -7.5q-17.998 -11 -26.4971 -26t-6.99902 -30.5t12.498 -29q10.999 -13.5 31.9961 -21.5q12.998 -4 31.4961 -5.5t36.4961 -0.5q17.9971 1 31.9961 2q13.998 1 18.9971 1q2 -7 5 -18q2.99902 -11 5.99902 -22t5.99902 -21.5q3 -10.5 4.99902 -17.5
q-18.9971 0 -38.9951 2.5q-19.9971 2.5 -39.4951 2.5q-19.4971 0 -38.4951 -4q-18.9971 -4 -34.9951 -16t-20.498 -29.5q-4.49902 -17.5 1 -33t19.498 -27q13.998 -11.5 34.9951 -11.5h153.981q3 -10 6.99902 -26.5t9.49902 -34q5.49902 -17.5 12.998 -34.5t18.498 -27
q10.998 -11 25.9971 -14q14.998 -3 29.4961 0.5t25.4971 13.5q10.998 10 14.998 26q5.99902 24 -0.5 47.5t-14.498 46.5q20.9971 -1 42.4941 2q21.498 3 36.4961 15q13.998 12 18.998 27q4.99902 15 1.49902 29.5q-3.49902 14.5 -14.498 26t-28.9961 16.5
q-22.9971 5 -46.4941 5t-47.4951 -2q-1.99902 7 -4.99902 17.5q-2.99902 10.5 -5.99902 21.5t-5.99902 21.5l-5 17.5q11.999 0 27.9971 -1t32.4961 -1t32.4961 3t28.9961 10q17.998 11 24.4971 26t3 30q-3.5 15 -14.999 28q-11.498 13 -29.4961 19q-33.9961 11 -70.9912 7
t-72.9912 -4q-9.99902 30 -18.998 60.5q-8.99805 30.5 -17.9971 60.5z" />
    <glyph glyph-name="notequal_clone" horiz-adv-x="522" 
d="M282 515q12 20 28.5 27.5t33 5t30 -15t19.5 -33.5q4 -13 2 -27.5t-7.5 -29t-11.5 -28.5t-9 -26q8 0 20 1t25 1t25.5 -1.5t22.5 -7.5q18 -11 26.5 -26t7 -30.5t-12.5 -29t-32 -21.5q-13 -4 -31.5 -5.5t-36.5 -0.5t-32 2t-19 1q-2 -7 -5 -18l-6 -22t-6 -21.5l-5 -17.5
q19 0 39 2.5t39.5 2.5t38.5 -4t35 -16t20.5 -29.5t-1 -33t-19.5 -27t-35 -11.5h-154q-3 -10 -7 -26.5t-9.5 -34t-13 -34.5t-18.5 -27q-11 -11 -26 -14t-29.5 0.5t-25.5 13.5t-15 26q-6 24 0.5 47.5t14.5 46.5q-21 -1 -42.5 2t-36.5 15q-14 12 -19 27t-1.5 29.5t14.5 26
t29 16.5q23 5 46.5 5t47.5 -2l5 17.5t6 21.5t6 21.5l5 17.5q-12 0 -28 -1t-32.5 -1t-32.5 3t-29 10q-18 11 -24.5 26t-3 30t15 28t29.5 19q34 11 71 7t73 -4q10 30 19 60.5t18 60.5z" />
    <glyph glyph-name="partialdiff_mirror" horiz-adv-x="516" 
d="M413.013 338q-37.9951 45 -83.4902 73.5q-45.4941 28.5 -106.486 33.5q-7.99902 0 -11.999 1q26.9971 37 70.9912 60q11.999 6 25.4971 11t25.9971 11.5q12.498 6.5 22.9971 15.5t15.498 23q4.99902 15 2 29.5q-3 14.5 -11.499 25.5t-21.9971 17t-29.4961 6
q-31.9961 -2 -63.9922 -17.5t-58.9932 -32.5q-19.9971 -13 -37.9951 -32t-31.9961 -39q-57.9932 -83 -65.4922 -177t24.4971 -188q11.998 -34 28.4961 -68t43.4951 -58q12.998 -12 20.4971 -18.5t14.998 -11.5t16.998 -9t25.4971 -11q27.9971 -12 56.4932 -8.5
q28.4971 3.5 54.4932 16.5q25.9971 13 47.9941 33q21.998 20 35.9961 42q20.9971 32 30.4961 67t7.99902 70.5t-13.498 70q-11.999 34.5 -33.9961 64.5zM178.041 251q-5.99902 36 -5.99902 72q37.9951 2 73.9912 -8.5q35.9951 -10.5 61.9922 -39.5q17.998 -20 24.9971 -45.5
t3.99902 -50q-2.99902 -24.5 -16.998 -46q-13.998 -21.5 -38.9951 -33.5q-25.9961 3 -43.4941 19t-29.4971 37.5q-11.998 21.5 -18.9971 47t-10.999 47.5z" />
    <glyph glyph-name="partialdiff_clone" horiz-adv-x="516" 
d="M103 338q38 45 83.5 73.5t106.5 33.5q8 0 12 1q-27 37 -71 60q-12 6 -25.5 11t-26 11.5t-23 15.5t-15.5 23q-5 15 -2 29.5t11.5 25.5t22 17t29.5 6q32 -2 64 -17.5t59 -32.5q20 -13 38 -32t32 -39q58 -83 65.5 -177t-24.5 -188q-12 -34 -28.5 -68t-43.5 -58
q-13 -12 -20.5 -18.5t-15 -11.5t-17 -9t-25.5 -11q-28 -12 -56.5 -8.5t-54.5 16.5t-48 33t-36 42q-21 32 -30.5 67t-8 70.5t13.5 70t34 64.5zM338 251q6 36 6 72q-38 2 -74 -8.5t-62 -39.5q-18 -20 -25 -45.5t-4 -50t17 -46t39 -33.5q26 3 43.5 19t29.5 37.5t19 47t11 47.5z
" />
    <glyph glyph-name="summation_mirror" horiz-adv-x="588" 
d="M148.054 74q-10.999 6 -22.9971 12.5q-11.999 6.5 -25.9971 5.5q-16.998 -1 -28.9961 -10q-11.999 -9 -17.998 -22.5t-5.49902 -28.5t7.49902 -29q9.99902 -20 29.9961 -32t39.9951 -20q20.9971 -8 48.4941 -11q27.4961 -3 56.4932 -3.5q28.9961 -0.5 55.9932 0.5
q26.9961 1 46.9941 1h146.982q10.998 0 26.9961 7q11.999 6 20.998 17q8.99805 11 12.498 24t1.5 27t-12.998 25q-34.9961 38 -71.4922 72q-36.4951 34 -73.4902 67q-36.9961 33 -73.9912 66t-72.9912 69q41.9951 40 85.9893 77.5q43.9951 37.5 86.9893 75.5
q12.999 12 31.9961 26.5q18.998 14.5 34.4961 31.5t22.9971 37t-1.5 43q-6.99902 17 -21.4971 25t-32.4961 10.5t-35.9951 1.5q-17.998 -1 -32.9961 -1h-99.9883q-20.9971 0 -44.4941 1.5t-46.4941 2.5t-43.9951 -0.5q-20.9971 -1.5 -37.9951 -7.5q-24.9971 -9 -33.9961 -28
t-5.49902 -39q3.49902 -20 18.498 -35.5q14.998 -15.5 38.9951 -15.5q41.9941 0 82.4893 0.5t82.4902 -0.5q-44.9941 -41 -90.4893 -81q-45.4941 -40 -90.4883 -81q-6 -5 -9.49902 -13.5q-3.5 -8.5 -5.5 -15.5q-5.99902 -18 1 -34q7 -16 19.498 -29.5t26.9971 -25.5
q14.498 -12 25.4961 -21q20.998 -20 41.9951 -38.5q20.998 -18.5 41.9951 -37.5q24.9971 -23 43.9941 -41q18.998 -18 41.9951 -38q-38.9951 -1 -78.4902 -1h-78.4902q-13.998 8 -18.498 10.5q-4.49902 2.5 -7.49902 4.5z" />
    <glyph glyph-name="summation_clone" horiz-adv-x="588" 
d="M440 74q11 6 23 12.5t26 5.5q17 -1 29 -10t18 -22.5t5.5 -28.5t-7.5 -29q-10 -20 -30 -32t-40 -20q-21 -8 -48.5 -11t-56.5 -3.5t-56 0.5t-47 1h-147q-11 0 -27 7q-12 6 -21 17t-12.5 24t-1.5 27t13 25q35 38 71.5 72t73.5 67l74 66t73 69q-42 40 -86 77.5t-87 75.5
q-13 12 -32 26.5t-34.5 31.5t-23 37t1.5 43q7 17 21.5 25t32.5 10.5t36 1.5t33 -1h100q21 0 44.5 1.5t46.5 2.5t44 -0.5t38 -7.5q25 -9 34 -28t5.5 -39t-18.5 -35.5t-39 -15.5q-42 0 -82.5 0.5t-82.5 -0.5q45 -41 90.5 -81t90.5 -81q6 -5 9.5 -13.5t5.5 -15.5q6 -18 -1 -34
t-19.5 -29.5t-27 -25.5t-25.5 -21q-21 -20 -42 -38.5t-42 -37.5q-25 -23 -44 -41t-42 -38q39 -1 78.5 -1h78.5q14 8 18.5 10.5t7.5 4.5z" />
    <glyph glyph-name="integral_mirror" horiz-adv-x="542" 
d="M474.008 -80q15.998 16 18.498 35t-4.99902 35.5t-24.4971 26.5t-38.9951 8q-11.999 -1 -21.9971 -7q-9.99902 -6 -19.998 -12.5t-20.9971 -12.5q-10.999 -6 -24.9971 -7q-15.998 8 -25.4971 26t-13.998 41q-4.5 23 -5 48t1 47.5t3 39.5t1.5 24q0 4 0.999023 24.5
q1 20.5 1.5 50t0.5 64t-1.5 68q-1.49902 33.5 -4.99902 61.5q-3.49902 28 -9.49902 43q-17.998 45 -58.9922 74.5q-40.9951 29.5 -87.9893 36.5q-14.999 2 -30.9971 -0.5t-28.9961 -10t-20.4971 -20.5t-5.5 -32q3 -24 17.998 -35t34.4961 -18.5q19.4971 -7.5 38.9951 -15.5
t29.4961 -26q6 -58 5.5 -118.5t-2 -120.5t-1.5 -118.5t8.99902 -111.5q4.99902 -32 21.9971 -61t41.9951 -49.5t56.9932 -30t66.9912 -2.5q28.9971 6 50.9941 22.5t47.9941 29.5z" />
    <glyph glyph-name="integral_clone" horiz-adv-x="542" 
d="M68 -80q-16 16 -18.5 35t5 35.5t24.5 26.5t39 8q12 -1 22 -7t20 -12.5t21 -12.5t25 -7q16 8 25.5 26t14 41t5 48t-1 47.5t-3 39.5t-1.5 24q0 4 -1 24.5t-1.5 50t-0.5 64t1.5 68t5 61.5t9.5 43q18 45 59 74.5t88 36.5q15 2 31 -0.5t29 -10t20.5 -20.5t5.5 -32
q-3 -24 -18 -35t-34.5 -18.5t-39 -15.5t-29.5 -26q-6 -58 -5.5 -118.5t2 -120.5t1.5 -118.5t-9 -111.5q-5 -32 -22 -61t-42 -49.5t-57 -30t-67 -2.5q-29 6 -51 22.5t-48 29.5z" />
    <glyph glyph-name="radical_mirror" horiz-adv-x="728" 
d="M145.071 668q-11.999 20 -29.9961 27.5q-17.998 7.5 -35.4961 3.5t-30.9961 -18t-16.498 -37q-1 -10 1.5 -21.5q2.49902 -11.5 6.99902 -22.5q4.49902 -11 8.99902 -20.5q4.49902 -9.5 7.49902 -17.5q31.9961 -84 61.9922 -167t58.9932 -168q1 -4 7.99902 -24.5
t14.498 -43.5t13.998 -43t7.49902 -24q10.999 -34 20.498 -68t19.4971 -68q4 -13 12.999 -23.5t20.4971 -17q11.499 -6.5 24.9971 -7.5t26.4971 6q27.9961 16 52.9932 38t47.4941 47t43.9951 50.5q21.4971 25.5 44.4941 48.5q14.998 -14 29.4961 -28t29.4971 -28
q14.998 -14 32.9951 -15q17.998 -1 33.4961 7t25.4971 24t7.99902 35q-2 15 -13.998 32.5q-11.999 17.5 -27.4971 33.5t-31.4961 29.5t-24.9971 21.5q-19.9971 18 -43.4941 28.5t-49.4941 -4.5q-19.998 -12 -36.9951 -32q-16.998 -20 -32.9961 -37q-19.998 -20 -40.9951 -40
q-20.998 -20 -40.9951 -40q-45.9941 146 -96.9883 290q-50.9932 144 -105.987 287z" />
    <glyph glyph-name="radical_clone" horiz-adv-x="728" 
d="M583 668q12 20 30 27.5t35.5 3.5t31 -18t16.5 -37q1 -10 -1.5 -21.5t-7 -22.5t-9 -20.5t-7.5 -17.5q-32 -84 -62 -167t-59 -168q-1 -4 -8 -24.5t-14.5 -43.5t-14 -43t-7.5 -24q-11 -34 -20.5 -68t-19.5 -68q-4 -13 -13 -23.5t-20.5 -17t-25 -7.5t-26.5 6q-28 16 -53 38
t-47.5 47t-44 50.5t-44.5 48.5q-15 -14 -29.5 -28t-29.5 -28t-33 -15t-33.5 7t-25.5 24t-8 35q2 15 14 32.5t27.5 33.5t31.5 29.5t25 21.5q20 18 43.5 28.5t49.5 -4.5q20 -12 37 -32t33 -37q20 -20 41 -40t41 -40q46 146 97 290t106 287z" />
    <glyph glyph-name="approxequal_mirror" horiz-adv-x="579" 
d="M426.019 127q12.999 -10 30.9961 -12.5q17.998 -2.5 33.9961 3t26.4971 19.5q10.498 14 8.49902 35q-3 24 -19.498 45.5t-40.4951 37.5t-50.9941 26q-26.9961 10 -49.9932 10t-42.4951 -11t-38.4951 -26q-18.998 -15 -37.9951 -28.5q-18.998 -13.5 -39.9951 -18.5
q-16.998 -3 -34.4961 6t-35.4961 21q-17.9971 12 -35.9951 21.5t-33.9961 7.5q-17.998 -3 -27.9961 -13q-9.99902 -10 -12.999 -23q-2.99902 -13 0.5 -28q3.5 -15 12.499 -29q12.998 -19 31.4961 -34q18.4971 -15 40.4951 -26.5q21.9971 -11.5 45.9941 -18t46.9941 -8.5
q27.9971 -2 48.4941 9.5t38.4951 27t34.9961 31t36.9951 22.5q8.99902 0 17.998 -5t16.998 -12.5t15.498 -15.5t13.498 -13zM471.014 312q16.9971 -14 36.4951 -15q19.4971 -1 33.9961 8.5q14.498 9.5 20.9971 27.5t-2.5 41q-8.99805 23 -30.9961 41.5
q-21.9971 18.5 -48.9941 32.5q-26.9961 14 -55.9932 22.5q-28.9961 8.5 -50.9932 10.5q-22.9971 2 -42.4951 -7.5q-19.4971 -9.5 -35.9951 -23.5t-30.9971 -28.5q-14.498 -14.5 -28.4961 -23t-27.4971 -6q-13.498 2.5 -27.4961 22.5q-6.99902 9 -13.498 18
q-6.5 9 -14.499 16t-17.9971 11q-9.99902 4 -21.998 2q-17.9971 -3 -28.9961 -13t-15.498 -24q-4.5 -14 -3 -29.5t9.49902 -29.5q17.998 -35 50.4941 -58.5t73.4912 -28.5q18.9971 -3 39.9951 9.5q20.9971 12.5 42.9941 28t43.9951 29q21.9971 13.5 42.9941 13.5
q9.99902 0 24.9971 -5.5t29.9971 -13q14.998 -7.5 28.4961 -15.5t19.498 -13z" />
    <glyph glyph-name="approxequal_clone" horiz-adv-x="579" 
d="M153 127q-13 -10 -31 -12.5t-34 3t-26.5 19.5t-8.5 35q3 24 19.5 45.5t40.5 37.5t51 26t50 10t42.5 -11t38.5 -26t38 -28.5t40 -18.5q17 -3 34.5 6t35.5 21t36 21.5t34 7.5q18 -3 28 -13t13 -23t-0.5 -28t-12.5 -29q-13 -19 -31.5 -34t-40.5 -26.5t-46 -18t-47 -8.5
q-28 -2 -48.5 9.5t-38.5 27t-35 31t-37 22.5q-9 0 -18 -5t-17 -12.5t-15.5 -15.5t-13.5 -13zM108 312q-17 -14 -36.5 -15t-34 8.5t-21 27.5t2.5 41t31 41.5t49 32.5t56 22.5t51 10.5q23 2 42.5 -7.5t36 -23.5t31 -28.5t28.5 -23t27.5 -6t27.5 22.5q7 9 13.5 18t14.5 16
t18 11t22 2q18 -3 29 -13t15.5 -24t3 -29.5t-9.5 -29.5q-18 -35 -50.5 -58.5t-73.5 -28.5q-19 -3 -40 9.5t-43 28t-44 29t-43 13.5q-10 0 -25 -5.5t-30 -13t-28.5 -15.5t-19.5 -13z" />
    <glyph glyph-name="clickdental" unicode="&#x1c0;" horiz-adv-x="268" 
d="M74 692q6 20 19.5 33t29.5 17t32.5 -2t28.5 -24q4 -5 7.5 -12t3.5 -13q1 -184 0.5 -365.5t-0.5 -365.5q0 -33 -19 -50t-42 -17t-42 15.5t-19 47.5v730z" />
    <glyph glyph-name="clicklateral" unicode="&#x1c1;" horiz-adv-x="536" 
d="M74 692q6 20 19.5 33t29.5 17t32.5 -2t28.5 -24q4 -5 7.5 -12t3.5 -13q1 -184 0.5 -365.5t-0.5 -365.5q0 -33 -19 -50t-42 -17t-42 15.5t-19 47.5v730zM342 692q6 20 19.5 33t29.5 17t32.5 -2t28.5 -24q4 -5 7.5 -12t3.5 -13q1 -184 0.5 -365.5t-0.5 -365.5
q0 -33 -19 -50t-42 -17t-42 15.5t-19 47.5v730z" />
    <glyph glyph-name="combininggraphemejoiner" unicode="&#x34f;" horiz-adv-x="0" 
 />
    <glyph glyph-name="zerowidthspace" unicode="&#x200b;" horiz-adv-x="0" 
 />
    <glyph glyph-name="afii61664" unicode="&#x200c;" horiz-adv-x="0" 
 />
    <glyph glyph-name="afii301" unicode="&#x200d;" horiz-adv-x="0" 
 />
    <glyph glyph-name="centigrade" unicode="&#x2103;" horiz-adv-x="915" 
d="M338 560q0 -43 -19 -72.5t-47.5 -45t-62.5 -16.5t-63.5 12t-50 41t-22.5 70q-3 48 22 82.5t62 49t78.5 6t71.5 -46.5q14 -17 22.5 -37t8.5 -43zM241 556q0 11 -5.5 18t-12 11.5t-11 6.5t-2.5 1q-20 5 -29.5 -6t-13.5 -26q-4 -20 7 -30t26 -11t28 8t13 28zM726 176
q16 16 36.5 18.5t37.5 -5.5t26.5 -25.5t4.5 -41.5q-6 -24 -23 -44.5t-34 -37.5q-39 -41 -86.5 -60.5t-96 -18.5t-95 23t-83.5 66q-22 26 -37 55t-23 61q-12 47 -11 98t16 99t42.5 90.5t67.5 72.5q29 22 58.5 38t62.5 30q19 8 39 15.5t41 11.5t42 3t41 -9q14 -6 28 -16.5
t26 -24t21 -28.5t13 -29q3 -13 1.5 -26.5t-8 -24.5t-17.5 -18.5t-25 -9.5q-23 -3 -35.5 5t-20 20t-14.5 23.5t-20 16.5q-8 0 -12 -1q-34 -9 -68.5 -24.5t-64 -37.5t-51.5 -51t-32 -65q-12 -43 -9 -87t24 -83q12 -23 32 -40t44 -25.5t49 -6t48 17.5q20 14 36 34.5t29 41.5z
" />
    <glyph glyph-name="fahrenheit" unicode="&#x2109;" horiz-adv-x="872" 
d="M338 560q0 -43 -19 -72.5t-47.5 -45t-62.5 -16.5t-63.5 12t-50 41t-22.5 70q-3 48 22 82.5t62 49t78.5 6t71.5 -46.5q14 -17 22.5 -37t8.5 -43zM241 556q0 11 -5.5 18t-12 11.5t-11 6.5t-2.5 1q-20 5 -29.5 -6t-13.5 -26q-4 -20 7 -30t26 -11t28 8t13 28zM568 23
q-3 -22 -16 -38t-30 -22t-35 0t-30 27q-5 8 -8 17t-3 18v236q-13 8 -19.5 21t-6.5 27.5t7 27.5t19 22q-1 19 -0.5 32t0.5 25v24.5t-2 29.5q-1 14 -6.5 27.5t-9.5 27t-3 27.5t12 27q15 18 36.5 21.5t43.5 5.5q46 3 91.5 3t91.5 2q13 0 28 2.5t30 4t30 0t27 -8.5q15 -9 22 -23
t6.5 -29t-8.5 -29t-23 -22q-26 -14 -57 -14.5t-59 -1.5q-33 -1 -66 -0.5t-66 -1.5q2 -19 3 -45t1 -76q32 0 65 1t65 6q17 2 36 7.5t36 3.5q20 -2 35 -15t20.5 -29.5t-0.5 -34t-27 -29.5q-25 -14 -53.5 -20.5t-58.5 -9t-60 -2t-58 0.5v-223v0z" />
    <glyph glyph-name="kelvin" unicode="&#x212a;" horiz-adv-x="549" 
d="M158 36q-3 -22 -17 -38.5t-32 -22.5t-36 0t-28 29q-5 11 -7 39.5t-3 59.5t-0.5 57.5t0.5 32.5v209q0 3 -0.5 30t0 59.5t3 63t9.5 41.5q9 15 22 21.5t26.5 5.5t27 -8t22.5 -21q4 -5 7.5 -12t3.5 -13q1 -48 0 -94.5t-1 -94.5q36 21 66.5 47.5t59.5 60.5q7 9 20 27t28 37
t30 35.5t26 21.5q22 11 42 8t33 -15.5t16.5 -32t-7.5 -40.5q-4 -9 -8.5 -15t-9 -11t-9.5 -11t-10 -14q-13 -21 -31 -42.5t-38 -42t-41 -39.5t-40 -36l50 -54t51 -54q6 -6 26 -25.5t42.5 -43t41 -46.5t21.5 -36q5 -20 -2 -37.5t-21.5 -28.5t-33 -12t-36.5 12q-8 6 -16.5 14.5
t-16 17.5t-14.5 17.5t-12 13.5q-47 51 -93 100t-93 99q-5 -2 -11 -4.5t-11 -4.5q0 -51 1 -101.5t3 -101.5v-7z" />
    <glyph glyph-name="angstrom" unicode="&#x212b;" horiz-adv-x="604" 
d="M567 29q-3 -22 -15 -37.5t-27.5 -21.5t-33 -1.5t-32.5 23.5q-13 16 -14.5 35.5t-5.5 38.5q-10 55 -29 113q-62 -1 -123 -1t-122 -1q-9 -26 -15.5 -53t-12.5 -53q-5 -20 -9 -41.5t-18 -37.5q-17 -20 -36.5 -22.5t-35 6.5t-25 27.5t-6.5 42.5q5 41 18 84t24 83
q26 91 59.5 177t72.5 171q-5 3 -8 7t-7 8q-23 26 -31 57.5t-1.5 62t26 56t51.5 39.5q33 15 63.5 11t55 -19.5t41 -41t21.5 -54.5t-3.5 -59t-34.5 -56q48 -59 81 -130t60 -141q21 1 41 0t36 -18q14 -14 16.5 -30t-3 -31t-18 -26t-30.5 -15q10 -35 17.5 -71.5t12.5 -73.5v-7z
M363 301q-19 45 -40.5 89.5t-48.5 84.5q-20 -44 -37.5 -87.5t-32.5 -88.5q40 0 79.5 0.5t79.5 1.5zM304 669v10.5t-2 6.5t-7 6.5t-14 9.5q-11 2 -18.5 0t-17.5 -7q-12 -16 -11.5 -28t6 -19t12.5 -10.5t8 -3.5h19q11 3 18 13t7 22z" />
    <glyph glyph-name="Oneroman" unicode="&#x2160;" horiz-adv-x="421" 
d="M309 105q26 -1 43 -15.5t22 -33.5t-3 -37.5t-33 -28.5q-18 -7 -42.5 -9t-49 -1.5t-45.5 2t-32 1.5h-59q-21 0 -36 11.5t-21.5 27.5t-3 34t18.5 33q14 14 37 16t46 0v396q-23 0 -43 0.5t-40 14.5q-15 11 -20 25.5t-1.5 29t13.5 27.5t25 19q14 6 29 6q51 0 102.5 0.5
t103.5 -0.5q5 0 9.5 -3t9.5 -5q23 -13 31 -37t-6 -47q-7 -12 -17.5 -18.5t-23 -9t-25.5 -2.5h-25v-398q8 0 14.5 0.5t14.5 1.5h7z" />
    <glyph glyph-name="Tworoman" unicode="&#x2161;" horiz-adv-x="842" 
d="M309 105q26 -1 43 -15.5t22 -33.5t-3 -37.5t-33 -28.5q-18 -7 -42.5 -9t-49 -1.5t-45.5 2t-32 1.5h-59q-21 0 -36 11.5t-21.5 27.5t-3 34t18.5 33q14 14 37 16t46 0v396q-23 0 -43 0.5t-40 14.5q-15 11 -20 25.5t-1.5 29t13.5 27.5t25 19q14 6 29 6q51 0 102.5 0.5
t103.5 -0.5q5 0 9.5 -3t9.5 -5q23 -13 31 -37t-6 -47q-7 -12 -17.5 -18.5t-23 -9t-25.5 -2.5h-25v-398q8 0 14.5 0.5t14.5 1.5h7zM730 105q26 -1 43 -15.5t22 -33.5t-3 -37.5t-33 -28.5q-18 -7 -42.5 -9t-49 -1.5t-45.5 2t-32 1.5h-59q-21 0 -36 11.5t-21.5 27.5t-3 34
t18.5 33q14 14 37 16t46 0v396q-23 0 -43 0.5t-40 14.5q-15 11 -20 25.5t-1.5 29t13.5 27.5t25 19q14 6 29 6q51 0 102.5 0.5t103.5 -0.5q5 0 9.5 -3t9.5 -5q23 -13 31 -37t-6 -47q-7 -12 -17.5 -18.5t-23 -9t-25.5 -2.5h-25v-398q8 0 14.5 0.5t14.5 1.5h7z" />
    <glyph glyph-name="Threeroman" unicode="&#x2162;" horiz-adv-x="1263" 
d="M309 105q26 -1 43 -15.5t22 -33.5t-3 -37.5t-33 -28.5q-18 -7 -42.5 -9t-49 -1.5t-45.5 2t-32 1.5h-59q-21 0 -36 11.5t-21.5 27.5t-3 34t18.5 33q14 14 37 16t46 0v396q-23 0 -43 0.5t-40 14.5q-15 11 -20 25.5t-1.5 29t13.5 27.5t25 19q14 6 29 6q51 0 102.5 0.5
t103.5 -0.5q5 0 9.5 -3t9.5 -5q23 -13 31 -37t-6 -47q-7 -12 -17.5 -18.5t-23 -9t-25.5 -2.5h-25v-398q8 0 14.5 0.5t14.5 1.5h7zM730 105q26 -1 43 -15.5t22 -33.5t-3 -37.5t-33 -28.5q-18 -7 -42.5 -9t-49 -1.5t-45.5 2t-32 1.5h-59q-21 0 -36 11.5t-21.5 27.5t-3 34
t18.5 33q14 14 37 16t46 0v396q-23 0 -43 0.5t-40 14.5q-15 11 -20 25.5t-1.5 29t13.5 27.5t25 19q14 6 29 6q51 0 102.5 0.5t103.5 -0.5q5 0 9.5 -3t9.5 -5q23 -13 31 -37t-6 -47q-7 -12 -17.5 -18.5t-23 -9t-25.5 -2.5h-25v-398q8 0 14.5 0.5t14.5 1.5h7zM1151 105
q26 -1 43 -15.5t22 -33.5t-3 -37.5t-33 -28.5q-18 -7 -42.5 -9t-49 -1.5t-45.5 2t-32 1.5h-59q-21 0 -36 11.5t-21.5 27.5t-3 34t18.5 33q14 14 37 16t46 0v396q-23 0 -43 0.5t-40 14.5q-15 11 -20 25.5t-1.5 29t13.5 27.5t25 19q14 6 29 6q51 0 102.5 0.5t103.5 -0.5
q5 0 9.5 -3t9.5 -5q23 -13 31 -37t-6 -47q-7 -12 -17.5 -18.5t-23 -9t-25.5 -2.5h-25v-398q8 0 14.5 0.5t14.5 1.5h7z" />
    <glyph glyph-name="Fourroman" unicode="&#x2163;" horiz-adv-x="1026" 
d="M309 105q26 -1 43 -15.5t22 -33.5t-3 -37.5t-33 -28.5q-18 -7 -42.5 -9t-49 -1.5t-45.5 2t-32 1.5h-59q-21 0 -36 11.5t-21.5 27.5t-3 34t18.5 33q14 14 37 16t46 0v396q-23 0 -43 0.5t-40 14.5q-15 11 -20 25.5t-1.5 29t13.5 27.5t25 19q14 6 29 6q51 0 102.5 0.5
t103.5 -0.5q5 0 9.5 -3t9.5 -5q23 -13 31 -37t-6 -47q-7 -12 -17.5 -18.5t-23 -9t-25.5 -2.5h-25v-398q8 0 14.5 0.5t14.5 1.5h7zM890 597q12 20 31 27t37.5 3t32 -19t12.5 -39q-1 -23 -13 -42.5t-23 -38.5q-27 -52 -51.5 -105t-47.5 -107q-23 -53 -43 -105.5t-40 -106.5
q-7 -16 -14 -37.5t-18 -37.5t-26.5 -22t-31 -3t-29 13.5t-19.5 27.5q-11 28 -21 55t-21 54q-11 28 -21 55t-21 54q-21 55 -42 109.5t-41 109.5q-13 34 -23.5 60t-18.5 60q-7 23 6.5 40t34 23.5t42 0t31.5 -29.5q42 -100 78.5 -202t74.5 -205q6 15 9.5 23.5t5.5 14t3 8.5t3 6
q10 40 28.5 77.5t34.5 75.5q43 102 97 197z" />
    <glyph glyph-name="Fiveroman" unicode="&#x2164;" horiz-adv-x="605" 
d="M469 597q12 20 31 27t37.5 3t32 -19t12.5 -39q-1 -23 -13 -42.5t-23 -38.5q-27 -52 -51.5 -105t-47.5 -107q-23 -53 -43 -105.5t-40 -106.5q-7 -16 -14 -37.5t-18 -37.5t-26.5 -22t-31 -3t-29 13.5t-19.5 27.5q-11 28 -21 55t-21 54q-11 28 -21 55t-21 54
q-21 55 -42 109.5t-41 109.5q-13 34 -23.5 60t-18.5 60q-7 23 6.5 40t34 23.5t42 0t31.5 -29.5q42 -100 78.5 -202t74.5 -205q6 15 9.5 23.5t5.5 14t3 8.5t3 6q10 40 28.5 77.5t34.5 75.5q43 102 97 197z" />
    <glyph glyph-name="Sixroman" unicode="&#x2165;" horiz-adv-x="1026" 
d="M469 597q12 20 31 27t37.5 3t32 -19t12.5 -39q-1 -23 -13 -42.5t-23 -38.5q-27 -52 -51.5 -105t-47.5 -107q-23 -53 -43 -105.5t-40 -106.5q-7 -16 -14 -37.5t-18 -37.5t-26.5 -22t-31 -3t-29 13.5t-19.5 27.5q-11 28 -21 55t-21 54q-11 28 -21 55t-21 54
q-21 55 -42 109.5t-41 109.5q-13 34 -23.5 60t-18.5 60q-7 23 6.5 40t34 23.5t42 0t31.5 -29.5q42 -100 78.5 -202t74.5 -205q6 15 9.5 23.5t5.5 14t3 8.5t3 6q10 40 28.5 77.5t34.5 75.5q43 102 97 197zM914 105q26 -1 43 -15.5t22 -33.5t-3 -37.5t-33 -28.5
q-18 -7 -42.5 -9t-49 -1.5t-45.5 2t-32 1.5h-59q-21 0 -36 11.5t-21.5 27.5t-3 34t18.5 33q14 14 37 16t46 0v396q-23 0 -43 0.5t-40 14.5q-15 11 -20 25.5t-1.5 29t13.5 27.5t25 19q14 6 29 6q51 0 102.5 0.5t103.5 -0.5q5 0 9.5 -3t9.5 -5q23 -13 31 -37t-6 -47
q-7 -12 -17.5 -18.5t-23 -9t-25.5 -2.5h-25v-398q8 0 14.5 0.5t14.5 1.5h7z" />
    <glyph glyph-name="Sevenroman" unicode="&#x2166;" horiz-adv-x="1447" 
d="M469 597q12 20 31 27t37.5 3t32 -19t12.5 -39q-1 -23 -13 -42.5t-23 -38.5q-27 -52 -51.5 -105t-47.5 -107q-23 -53 -43 -105.5t-40 -106.5q-7 -16 -14 -37.5t-18 -37.5t-26.5 -22t-31 -3t-29 13.5t-19.5 27.5q-11 28 -21 55t-21 54q-11 28 -21 55t-21 54
q-21 55 -42 109.5t-41 109.5q-13 34 -23.5 60t-18.5 60q-7 23 6.5 40t34 23.5t42 0t31.5 -29.5q42 -100 78.5 -202t74.5 -205q6 15 9.5 23.5t5.5 14t3 8.5t3 6q10 40 28.5 77.5t34.5 75.5q43 102 97 197zM914 105q26 -1 43 -15.5t22 -33.5t-3 -37.5t-33 -28.5
q-18 -7 -42.5 -9t-49 -1.5t-45.5 2t-32 1.5h-59q-21 0 -36 11.5t-21.5 27.5t-3 34t18.5 33q14 14 37 16t46 0v396q-23 0 -43 0.5t-40 14.5q-15 11 -20 25.5t-1.5 29t13.5 27.5t25 19q14 6 29 6q51 0 102.5 0.5t103.5 -0.5q5 0 9.5 -3t9.5 -5q23 -13 31 -37t-6 -47
q-7 -12 -17.5 -18.5t-23 -9t-25.5 -2.5h-25v-398q8 0 14.5 0.5t14.5 1.5h7zM1335 105q26 -1 43 -15.5t22 -33.5t-3 -37.5t-33 -28.5q-18 -7 -42.5 -9t-49 -1.5t-45.5 2t-32 1.5h-59q-21 0 -36 11.5t-21.5 27.5t-3 34t18.5 33q14 14 37 16t46 0v396q-23 0 -43 0.5t-40 14.5
q-15 11 -20 25.5t-1.5 29t13.5 27.5t25 19q14 6 29 6q51 0 102.5 0.5t103.5 -0.5q5 0 9.5 -3t9.5 -5q23 -13 31 -37t-6 -47q-7 -12 -17.5 -18.5t-23 -9t-25.5 -2.5h-25v-398q8 0 14.5 0.5t14.5 1.5h7z" />
    <glyph glyph-name="Eightroman" unicode="&#x2167;" horiz-adv-x="1868" 
d="M469 597q12 20 31 27t37.5 3t32 -19t12.5 -39q-1 -23 -13 -42.5t-23 -38.5q-27 -52 -51.5 -105t-47.5 -107q-23 -53 -43 -105.5t-40 -106.5q-7 -16 -14 -37.5t-18 -37.5t-26.5 -22t-31 -3t-29 13.5t-19.5 27.5q-11 28 -21 55t-21 54q-11 28 -21 55t-21 54
q-21 55 -42 109.5t-41 109.5q-13 34 -23.5 60t-18.5 60q-7 23 6.5 40t34 23.5t42 0t31.5 -29.5q42 -100 78.5 -202t74.5 -205q6 15 9.5 23.5t5.5 14t3 8.5t3 6q10 40 28.5 77.5t34.5 75.5q43 102 97 197zM914 105q26 -1 43 -15.5t22 -33.5t-3 -37.5t-33 -28.5
q-18 -7 -42.5 -9t-49 -1.5t-45.5 2t-32 1.5h-59q-21 0 -36 11.5t-21.5 27.5t-3 34t18.5 33q14 14 37 16t46 0v396q-23 0 -43 0.5t-40 14.5q-15 11 -20 25.5t-1.5 29t13.5 27.5t25 19q14 6 29 6q51 0 102.5 0.5t103.5 -0.5q5 0 9.5 -3t9.5 -5q23 -13 31 -37t-6 -47
q-7 -12 -17.5 -18.5t-23 -9t-25.5 -2.5h-25v-398q8 0 14.5 0.5t14.5 1.5h7zM1335 105q26 -1 43 -15.5t22 -33.5t-3 -37.5t-33 -28.5q-18 -7 -42.5 -9t-49 -1.5t-45.5 2t-32 1.5h-59q-21 0 -36 11.5t-21.5 27.5t-3 34t18.5 33q14 14 37 16t46 0v396q-23 0 -43 0.5t-40 14.5
q-15 11 -20 25.5t-1.5 29t13.5 27.5t25 19q14 6 29 6q51 0 102.5 0.5t103.5 -0.5q5 0 9.5 -3t9.5 -5q23 -13 31 -37t-6 -47q-7 -12 -17.5 -18.5t-23 -9t-25.5 -2.5h-25v-398q8 0 14.5 0.5t14.5 1.5h7zM1756 105q26 -1 43 -15.5t22 -33.5t-3 -37.5t-33 -28.5q-18 -7 -42.5 -9
t-49 -1.5t-45.5 2t-32 1.5h-59q-21 0 -36 11.5t-21.5 27.5t-3 34t18.5 33q14 14 37 16t46 0v396q-23 0 -43 0.5t-40 14.5q-15 11 -20 25.5t-1.5 29t13.5 27.5t25 19q14 6 29 6q51 0 102.5 0.5t103.5 -0.5q5 0 9.5 -3t9.5 -5q23 -13 31 -37t-6 -47q-7 -12 -17.5 -18.5t-23 -9
t-25.5 -2.5h-25v-398q8 0 14.5 0.5t14.5 1.5h7z" />
    <glyph glyph-name="Nineroman" unicode="&#x2168;" horiz-adv-x="1034" 
d="M309 105q26 -1 43 -15.5t22 -33.5t-3 -37.5t-33 -28.5q-18 -7 -42.5 -9t-49 -1.5t-45.5 2t-32 1.5h-59q-21 0 -36 11.5t-21.5 27.5t-3 34t18.5 33q14 14 37 16t46 0v396q-23 0 -43 0.5t-40 14.5q-15 11 -20 25.5t-1.5 29t13.5 27.5t25 19q14 6 29 6q51 0 102.5 0.5
t103.5 -0.5q5 0 9.5 -3t9.5 -5q23 -13 31 -37t-6 -47q-7 -12 -17.5 -18.5t-23 -9t-25.5 -2.5h-25v-398q8 0 14.5 0.5t14.5 1.5h7zM924 620q18 18 39 19t38 -9t25.5 -29.5t-0.5 -43.5q-7 -17 -17.5 -32t-20.5 -29q-33 -50 -68.5 -96t-72.5 -91q9 -10 24.5 -29t34 -42.5
t37.5 -50t36 -51t29.5 -46t17.5 -35.5q8 -23 0.5 -42.5t-23 -31t-36 -11.5t-39.5 17q-16 14 -28 39t-24 43q-25 38 -52 73.5t-56 70.5q-28 -35 -57.5 -68.5t-58.5 -66.5q-8 -9 -19.5 -24t-24.5 -30.5t-26 -28.5t-24 -17q-19 -8 -37 -3.5t-30 16.5t-16.5 30t3.5 37
q8 20 23.5 34.5t29.5 30.5q40 47 80 93.5t80 94.5q-35 45 -71.5 88.5t-77.5 83.5q-4 4 -12.5 10.5t-17.5 15t-17 17t-13 16.5q-10 19 -7 39t15.5 34.5t31.5 18.5t40 -8q17 -11 31 -24.5t28 -27.5q40 -39 76 -80.5t71 -85.5q14 17 28 33.5t27 33.5q27 36 52 71.5t49 73.5z
" />
    <glyph glyph-name="Tenroman" unicode="&#x2169;" horiz-adv-x="613" 
d="M503 620q18 18 39 19t38 -9t25.5 -29.5t-0.5 -43.5q-7 -17 -17.5 -32t-20.5 -29q-33 -50 -68.5 -96t-72.5 -91q9 -10 24.5 -29t34 -42.5t37.5 -50t36 -51t29.5 -46t17.5 -35.5q8 -23 0.5 -42.5t-23 -31t-36 -11.5t-39.5 17q-16 14 -28 39t-24 43q-25 38 -52 73.5
t-56 70.5q-28 -35 -57.5 -68.5t-58.5 -66.5q-8 -9 -19.5 -24t-24.5 -30.5t-26 -28.5t-24 -17q-19 -8 -37 -3.5t-30 16.5t-16.5 30t3.5 37q8 20 23.5 34.5t29.5 30.5q40 47 80 93.5t80 94.5q-35 45 -71.5 88.5t-77.5 83.5q-4 4 -12.5 10.5t-17.5 15t-17 17t-13 16.5
q-10 19 -7 39t15.5 34.5t31.5 18.5t40 -8q17 -11 31 -24.5t28 -27.5q40 -39 76 -80.5t71 -85.5q14 17 28 33.5t27 33.5q27 36 52 71.5t49 73.5z" />
    <glyph glyph-name="Elevenroman" unicode="&#x216a;" horiz-adv-x="1034" 
d="M503 620q18 18 39 19t38 -9t25.5 -29.5t-0.5 -43.5q-7 -17 -17.5 -32t-20.5 -29q-33 -50 -68.5 -96t-72.5 -91q9 -10 24.5 -29t34 -42.5t37.5 -50t36 -51t29.5 -46t17.5 -35.5q8 -23 0.5 -42.5t-23 -31t-36 -11.5t-39.5 17q-16 14 -28 39t-24 43q-25 38 -52 73.5
t-56 70.5q-28 -35 -57.5 -68.5t-58.5 -66.5q-8 -9 -19.5 -24t-24.5 -30.5t-26 -28.5t-24 -17q-19 -8 -37 -3.5t-30 16.5t-16.5 30t3.5 37q8 20 23.5 34.5t29.5 30.5q40 47 80 93.5t80 94.5q-35 45 -71.5 88.5t-77.5 83.5q-4 4 -12.5 10.5t-17.5 15t-17 17t-13 16.5
q-10 19 -7 39t15.5 34.5t31.5 18.5t40 -8q17 -11 31 -24.5t28 -27.5q40 -39 76 -80.5t71 -85.5q14 17 28 33.5t27 33.5q27 36 52 71.5t49 73.5zM922 105q26 -1 43 -15.5t22 -33.5t-3 -37.5t-33 -28.5q-18 -7 -42.5 -9t-49 -1.5t-45.5 2t-32 1.5h-59q-21 0 -36 11.5
t-21.5 27.5t-3 34t18.5 33q14 14 37 16t46 0v396q-23 0 -43 0.5t-40 14.5q-15 11 -20 25.5t-1.5 29t13.5 27.5t25 19q14 6 29 6q51 0 102.5 0.5t103.5 -0.5q5 0 9.5 -3t9.5 -5q23 -13 31 -37t-6 -47q-7 -12 -17.5 -18.5t-23 -9t-25.5 -2.5h-25v-398q8 0 14.5 0.5t14.5 1.5h7
z" />
    <glyph glyph-name="Twelveroman" unicode="&#x216b;" horiz-adv-x="1455" 
d="M503 620q18 18 39 19t38 -9t25.5 -29.5t-0.5 -43.5q-7 -17 -17.5 -32t-20.5 -29q-33 -50 -68.5 -96t-72.5 -91q9 -10 24.5 -29t34 -42.5t37.5 -50t36 -51t29.5 -46t17.5 -35.5q8 -23 0.5 -42.5t-23 -31t-36 -11.5t-39.5 17q-16 14 -28 39t-24 43q-25 38 -52 73.5
t-56 70.5q-28 -35 -57.5 -68.5t-58.5 -66.5q-8 -9 -19.5 -24t-24.5 -30.5t-26 -28.5t-24 -17q-19 -8 -37 -3.5t-30 16.5t-16.5 30t3.5 37q8 20 23.5 34.5t29.5 30.5q40 47 80 93.5t80 94.5q-35 45 -71.5 88.5t-77.5 83.5q-4 4 -12.5 10.5t-17.5 15t-17 17t-13 16.5
q-10 19 -7 39t15.5 34.5t31.5 18.5t40 -8q17 -11 31 -24.5t28 -27.5q40 -39 76 -80.5t71 -85.5q14 17 28 33.5t27 33.5q27 36 52 71.5t49 73.5zM922 105q26 -1 43 -15.5t22 -33.5t-3 -37.5t-33 -28.5q-18 -7 -42.5 -9t-49 -1.5t-45.5 2t-32 1.5h-59q-21 0 -36 11.5
t-21.5 27.5t-3 34t18.5 33q14 14 37 16t46 0v396q-23 0 -43 0.5t-40 14.5q-15 11 -20 25.5t-1.5 29t13.5 27.5t25 19q14 6 29 6q51 0 102.5 0.5t103.5 -0.5q5 0 9.5 -3t9.5 -5q23 -13 31 -37t-6 -47q-7 -12 -17.5 -18.5t-23 -9t-25.5 -2.5h-25v-398q8 0 14.5 0.5t14.5 1.5h7
zM1343 105q26 -1 43 -15.5t22 -33.5t-3 -37.5t-33 -28.5q-18 -7 -42.5 -9t-49 -1.5t-45.5 2t-32 1.5h-59q-21 0 -36 11.5t-21.5 27.5t-3 34t18.5 33q14 14 37 16t46 0v396q-23 0 -43 0.5t-40 14.5q-15 11 -20 25.5t-1.5 29t13.5 27.5t25 19q14 6 29 6q51 0 102.5 0.5
t103.5 -0.5q5 0 9.5 -3t9.5 -5q23 -13 31 -37t-6 -47q-7 -12 -17.5 -18.5t-23 -9t-25.5 -2.5h-25v-398q8 0 14.5 0.5t14.5 1.5h7z" />
    <glyph glyph-name="uni216C" unicode="&#x216c;" horiz-adv-x="489" 
d="M425 97q23 -11 35 -28t11.5 -34.5t-13 -33t-38.5 -23.5q-10 -3 -28 -3.5t-50 -0.5h-81t-121 -1q-18 -1 -37 -1t-33 13q-12 10 -17.5 30.5t-7 43t-1 45t0.5 37.5q0 30 0.5 69t1 79.5t0.5 79.5v69q0 53 1 85.5t4.5 51t11.5 27t22 14.5q12 5 26.5 3.5t27 -8t21 -18
t8.5 -25.5q2 -120 0 -238t-2 -236q63 0 125.5 1.5t126.5 3.5z" />
    <glyph glyph-name="uni216D" unicode="&#x216d;" horiz-adv-x="551" 
d="M417 176q16 16 36.5 18.5t37.5 -5.5t26.5 -25.5t4.5 -41.5q-6 -24 -23 -44.5t-34 -37.5q-39 -41 -86.5 -60.5t-96 -18.5t-95 23t-83.5 66q-22 26 -37 55t-23 61q-12 47 -11 98t16 99t42.5 90.5t67.5 72.5q29 22 58.5 38t62.5 30q19 8 39 15.5t41 11.5t42 3t41 -9
q14 -6 28 -16.5t26 -24t21 -28.5t13 -29q3 -13 1.5 -26.5t-8 -24.5t-17.5 -18.5t-25 -9.5q-23 -3 -35.5 5t-20 20t-14.5 23.5t-20 16.5q-8 0 -12 -1q-34 -9 -68.5 -24.5t-64 -37.5t-51.5 -51t-32 -65q-12 -43 -9 -87t24 -83q12 -23 32 -40t44 -25.5t49 -6t48 17.5
q20 14 36 34.5t29 41.5z" />
    <glyph glyph-name="uni216E" unicode="&#x216e;" horiz-adv-x="596" 
d="M134 -38q-26 5 -44.5 24t-18.5 47v421q-18 -3 -35 4.5t-27 20t-11.5 29t10.5 31.5q13 17 31 28.5t38 19t41.5 12.5t41.5 9q56 9 112 4.5t106 -24.5t91.5 -56t67.5 -90q16 -33 23 -68.5t8 -71.5q1 -47 -11 -91t-36 -82.5t-58 -68.5t-76 -50q-37 -17 -78.5 -25t-81.5 -14
q-20 -3 -42.5 -6.5t-43.5 -3.5zM242 493q-13 0 -24.5 -1t-24.5 -3v-401q6 0 10 1t8 1t7 1q14 2 23 3t17 2.5t16.5 3.5t19.5 5q58 15 91.5 47.5t50.5 89.5q11 33 10 67t-12.5 65t-33.5 56.5t-54 40.5q-26 12 -51.5 16t-52.5 6z" />
    <glyph glyph-name="uni216F" unicode="&#x216f;" horiz-adv-x="769" 
d="M756 26q-3 -22 -16 -37.5t-30 -21.5t-35 -0.5t-30 26.5q-10 17 -11.5 35.5t-3.5 38.5q-2 22 -4.5 38.5t-5.5 38.5q-9 60 -20 118.5t-25 117.5q-20 -50 -38 -99t-36 -99q-14 -37 -27.5 -74.5t-31.5 -72.5q-6 -12 -20 -19.5t-30 -8.5t-30 4.5t-21 18.5q-43 83 -85 165
t-84 165q-5 -51 -9 -102.5t-9 -102.5q-1 -16 -2 -39t-3.5 -46.5t-6 -45t-11.5 -33.5q-12 -20 -31.5 -26t-38 -1t-31 20.5t-11.5 39.5q2 41 7 81t9 81q8 89 16.5 177t16.5 178q2 26 10.5 48t36.5 31q11 4 23 3t22 -7q22 -14 34.5 -38.5t23.5 -46.5q19 -36 37 -72.5t36 -72.5
q22 -46 44.5 -90.5t46.5 -89.5q6 15 11.5 30t11.5 30q11 26 20.5 52.5t19.5 52.5q14 34 26.5 67t24.5 67q10 25 19 54t29 49q14 15 30.5 18t31 -2.5t26 -18.5t16.5 -30q6 -23 14 -52t14 -52q11 -42 20 -82.5t17 -82.5q14 -69 24.5 -136.5t18.5 -136.5v-7z" />
    <glyph glyph-name="oneroman" unicode="&#x2170;" horiz-adv-x="246" 
d="M180 28q-2 -20 -14 -35.5t-27.5 -22.5t-33.5 -3t-32 22q-8 10 -11.5 22.5t-4.5 26t-0.5 27t0.5 24.5q-1 59 -0.5 117t-0.5 117q0 24 -3 48.5t3 48.5q5 18 17.5 31t28 18t32 1t28.5 -21q16 -20 16 -39.5v-47.5v-68t1 -67q1 -48 1 -96v-96v-7zM48 597q4 37 25.5 54.5
t45.5 17t44.5 -18.5t21.5 -51q2 -34 -17.5 -52.5t-44.5 -21t-47 13.5t-27 51z" />
    <glyph glyph-name="tworoman" unicode="&#x2171;" horiz-adv-x="492" 
d="M180 28q-2 -20 -14 -35.5t-27.5 -22.5t-33.5 -3t-32 22q-8 10 -11.5 22.5t-4.5 26t-0.5 27t0.5 24.5q-1 59 -0.5 117t-0.5 117q0 24 -3 48.5t3 48.5q5 18 17.5 31t28 18t32 1t28.5 -21q16 -20 16 -39.5v-47.5v-68t1 -67q1 -48 1 -96v-96v-7zM48 597q4 37 25.5 54.5
t45.5 17t44.5 -18.5t21.5 -51q2 -34 -17.5 -52.5t-44.5 -21t-47 13.5t-27 51zM426 28q-2 -20 -14 -35.5t-27.5 -22.5t-33.5 -3t-32 22q-8 10 -11.5 22.5t-4.5 26t-0.5 27t0.5 24.5q-1 59 -0.5 117t-0.5 117q0 24 -3 48.5t3 48.5q5 18 17.5 31t28 18t32 1t28.5 -21
q16 -20 16 -39.5v-47.5v-68t1 -67q1 -48 1 -96v-96v-7zM294 597q4 37 25.5 54.5t45.5 17t44.5 -18.5t21.5 -51q2 -34 -17.5 -52.5t-44.5 -21t-47 13.5t-27 51z" />
    <glyph glyph-name="threeroman" unicode="&#x2172;" horiz-adv-x="738" 
d="M180 28q-2 -20 -14 -35.5t-27.5 -22.5t-33.5 -3t-32 22q-8 10 -11.5 22.5t-4.5 26t-0.5 27t0.5 24.5q-1 59 -0.5 117t-0.5 117q0 24 -3 48.5t3 48.5q5 18 17.5 31t28 18t32 1t28.5 -21q16 -20 16 -39.5v-47.5v-68t1 -67q1 -48 1 -96v-96v-7zM48 597q4 37 25.5 54.5
t45.5 17t44.5 -18.5t21.5 -51q2 -34 -17.5 -52.5t-44.5 -21t-47 13.5t-27 51zM426 28q-2 -20 -14 -35.5t-27.5 -22.5t-33.5 -3t-32 22q-8 10 -11.5 22.5t-4.5 26t-0.5 27t0.5 24.5q-1 59 -0.5 117t-0.5 117q0 24 -3 48.5t3 48.5q5 18 17.5 31t28 18t32 1t28.5 -21
q16 -20 16 -39.5v-47.5v-68t1 -67q1 -48 1 -96v-96v-7zM294 597q4 37 25.5 54.5t45.5 17t44.5 -18.5t21.5 -51q2 -34 -17.5 -52.5t-44.5 -21t-47 13.5t-27 51zM672 28q-2 -20 -14 -35.5t-27.5 -22.5t-33.5 -3t-32 22q-8 10 -11.5 22.5t-4.5 26t-0.5 27t0.5 24.5
q-1 59 -0.5 117t-0.5 117q0 24 -3 48.5t3 48.5q5 18 17.5 31t28 18t32 1t28.5 -21q16 -20 16 -39.5v-47.5v-68t1 -67q1 -48 1 -96v-96v-7zM540 597q4 37 25.5 54.5t45.5 17t44.5 -18.5t21.5 -51q2 -34 -17.5 -52.5t-44.5 -21t-47 13.5t-27 51z" />
    <glyph glyph-name="fourroman" unicode="&#x2173;" horiz-adv-x="687" 
d="M180 28q-2 -20 -14 -35.5t-27.5 -22.5t-33.5 -3t-32 22q-8 10 -11.5 22.5t-4.5 26t-0.5 27t0.5 24.5q-1 59 -0.5 117t-0.5 117q0 24 -3 48.5t3 48.5q5 18 17.5 31t28 18t32 1t28.5 -21q16 -20 16 -39.5v-47.5v-68t1 -67q1 -48 1 -96v-96v-7zM48 597q4 37 25.5 54.5
t45.5 17t44.5 -18.5t21.5 -51q2 -34 -17.5 -52.5t-44.5 -21t-47 13.5t-27 51zM555 432q15 20 34.5 27.5t36.5 3t29 -20.5t13 -43q0 -7 -2.5 -18t-6.5 -22.5t-7 -21t-4 -12.5q-17 -54 -39.5 -116.5t-41.5 -116.5q-8 -23 -16.5 -43.5t-17.5 -42.5q-7 -18 -20.5 -29t-29 -14
t-31.5 3t-28 22q-8 11 -13.5 28t-8.5 25q-11 29 -22 57l-22 56q-15 38 -31 75t-33 73q-10 22 -22 43t-18 44q-6 21 1.5 37.5t22 25.5t33 10t35.5 -10q13 -8 24 -25t20 -37t16.5 -39.5t13.5 -32.5q14 -32 27.5 -64t26.5 -64q21 59 40.5 117.5t36.5 118.5z" />
    <glyph glyph-name="fiveroman" unicode="&#x2174;" horiz-adv-x="441" 
d="M309 432q15 20 34.5 27.5t36.5 3t29 -20.5t13 -43q0 -7 -2.5 -18t-6.5 -22.5t-7 -21t-4 -12.5q-17 -54 -39.5 -116.5t-41.5 -116.5q-8 -23 -16.5 -43.5t-17.5 -42.5q-7 -18 -20.5 -29t-29 -14t-31.5 3t-28 22q-8 11 -13.5 28t-8.5 25q-11 29 -22 57l-22 56q-15 38 -31 75
t-33 73q-10 22 -22 43t-18 44q-6 21 1.5 37.5t22 25.5t33 10t35.5 -10q13 -8 24 -25t20 -37t16.5 -39.5t13.5 -32.5q14 -32 27.5 -64t26.5 -64q21 59 40.5 117.5t36.5 118.5z" />
    <glyph glyph-name="sixroman" unicode="&#x2175;" horiz-adv-x="687" 
d="M309 432q15 20 34.5 27.5t36.5 3t29 -20.5t13 -43q0 -7 -2.5 -18t-6.5 -22.5t-7 -21t-4 -12.5q-17 -54 -39.5 -116.5t-41.5 -116.5q-8 -23 -16.5 -43.5t-17.5 -42.5q-7 -18 -20.5 -29t-29 -14t-31.5 3t-28 22q-8 11 -13.5 28t-8.5 25q-11 29 -22 57l-22 56q-15 38 -31 75
t-33 73q-10 22 -22 43t-18 44q-6 21 1.5 37.5t22 25.5t33 10t35.5 -10q13 -8 24 -25t20 -37t16.5 -39.5t13.5 -32.5q14 -32 27.5 -64t26.5 -64q21 59 40.5 117.5t36.5 118.5zM621 28q-2 -20 -14 -35.5t-27.5 -22.5t-33.5 -3t-32 22q-8 10 -11.5 22.5t-4.5 26t-0.5 27
t0.5 24.5q-1 59 -0.5 117t-0.5 117q0 24 -3 48.5t3 48.5q5 18 17.5 31t28 18t32 1t28.5 -21q16 -20 16 -39.5v-47.5v-68t1 -67q1 -48 1 -96v-96v-7zM489 597q4 37 25.5 54.5t45.5 17t44.5 -18.5t21.5 -51q2 -34 -17.5 -52.5t-44.5 -21t-47 13.5t-27 51z" />
    <glyph glyph-name="sevenroman" unicode="&#x2176;" horiz-adv-x="933" 
d="M309 432q15 20 34.5 27.5t36.5 3t29 -20.5t13 -43q0 -7 -2.5 -18t-6.5 -22.5t-7 -21t-4 -12.5q-17 -54 -39.5 -116.5t-41.5 -116.5q-8 -23 -16.5 -43.5t-17.5 -42.5q-7 -18 -20.5 -29t-29 -14t-31.5 3t-28 22q-8 11 -13.5 28t-8.5 25q-11 29 -22 57l-22 56q-15 38 -31 75
t-33 73q-10 22 -22 43t-18 44q-6 21 1.5 37.5t22 25.5t33 10t35.5 -10q13 -8 24 -25t20 -37t16.5 -39.5t13.5 -32.5q14 -32 27.5 -64t26.5 -64q21 59 40.5 117.5t36.5 118.5zM621 28q-2 -20 -14 -35.5t-27.5 -22.5t-33.5 -3t-32 22q-8 10 -11.5 22.5t-4.5 26t-0.5 27
t0.5 24.5q-1 59 -0.5 117t-0.5 117q0 24 -3 48.5t3 48.5q5 18 17.5 31t28 18t32 1t28.5 -21q16 -20 16 -39.5v-47.5v-68t1 -67q1 -48 1 -96v-96v-7zM489 597q4 37 25.5 54.5t45.5 17t44.5 -18.5t21.5 -51q2 -34 -17.5 -52.5t-44.5 -21t-47 13.5t-27 51zM867 28
q-2 -20 -14 -35.5t-27.5 -22.5t-33.5 -3t-32 22q-8 10 -11.5 22.5t-4.5 26t-0.5 27t0.5 24.5q-1 59 -0.5 117t-0.5 117q0 24 -3 48.5t3 48.5q5 18 17.5 31t28 18t32 1t28.5 -21q16 -20 16 -39.5v-47.5v-68t1 -67q1 -48 1 -96v-96v-7zM735 597q4 37 25.5 54.5t45.5 17
t44.5 -18.5t21.5 -51q2 -34 -17.5 -52.5t-44.5 -21t-47 13.5t-27 51z" />
    <glyph glyph-name="eightroman" unicode="&#x2177;" horiz-adv-x="1179" 
d="M309 432q15 20 34.5 27.5t36.5 3t29 -20.5t13 -43q0 -7 -2.5 -18t-6.5 -22.5t-7 -21t-4 -12.5q-17 -54 -39.5 -116.5t-41.5 -116.5q-8 -23 -16.5 -43.5t-17.5 -42.5q-7 -18 -20.5 -29t-29 -14t-31.5 3t-28 22q-8 11 -13.5 28t-8.5 25q-11 29 -22 57l-22 56q-15 38 -31 75
t-33 73q-10 22 -22 43t-18 44q-6 21 1.5 37.5t22 25.5t33 10t35.5 -10q13 -8 24 -25t20 -37t16.5 -39.5t13.5 -32.5q14 -32 27.5 -64t26.5 -64q21 59 40.5 117.5t36.5 118.5zM621 28q-2 -20 -14 -35.5t-27.5 -22.5t-33.5 -3t-32 22q-8 10 -11.5 22.5t-4.5 26t-0.5 27
t0.5 24.5q-1 59 -0.5 117t-0.5 117q0 24 -3 48.5t3 48.5q5 18 17.5 31t28 18t32 1t28.5 -21q16 -20 16 -39.5v-47.5v-68t1 -67q1 -48 1 -96v-96v-7zM489 597q4 37 25.5 54.5t45.5 17t44.5 -18.5t21.5 -51q2 -34 -17.5 -52.5t-44.5 -21t-47 13.5t-27 51zM867 28
q-2 -20 -14 -35.5t-27.5 -22.5t-33.5 -3t-32 22q-8 10 -11.5 22.5t-4.5 26t-0.5 27t0.5 24.5q-1 59 -0.5 117t-0.5 117q0 24 -3 48.5t3 48.5q5 18 17.5 31t28 18t32 1t28.5 -21q16 -20 16 -39.5v-47.5v-68t1 -67q1 -48 1 -96v-96v-7zM735 597q4 37 25.5 54.5t45.5 17
t44.5 -18.5t21.5 -51q2 -34 -17.5 -52.5t-44.5 -21t-47 13.5t-27 51zM1113 28q-2 -20 -14 -35.5t-27.5 -22.5t-33.5 -3t-32 22q-8 10 -11.5 22.5t-4.5 26t-0.5 27t0.5 24.5q-1 59 -0.5 117t-0.5 117q0 24 -3 48.5t3 48.5q5 18 17.5 31t28 18t32 1t28.5 -21q16 -20 16 -39.5
v-47.5v-68t1 -67q1 -48 1 -96v-96v-7zM981 597q4 37 25.5 54.5t45.5 17t44.5 -18.5t21.5 -51q2 -34 -17.5 -52.5t-44.5 -21t-47 13.5t-27 51z" />
    <glyph glyph-name="nineroman" unicode="&#x2178;" horiz-adv-x="770" 
d="M180 28q-2 -20 -14 -35.5t-27.5 -22.5t-33.5 -3t-32 22q-8 10 -11.5 22.5t-4.5 26t-0.5 27t0.5 24.5q-1 59 -0.5 117t-0.5 117q0 24 -3 48.5t3 48.5q5 18 17.5 31t28 18t32 1t28.5 -21q16 -20 16 -39.5v-47.5v-68t1 -67q1 -48 1 -96v-96v-7zM48 597q4 37 25.5 54.5
t45.5 17t44.5 -18.5t21.5 -51q2 -34 -17.5 -52.5t-44.5 -21t-47 13.5t-27 51zM637 457q20 13 40.5 13.5t36 -8.5t22 -27t-1.5 -43q-8 -20 -27 -37t-33 -31q-22 -23 -43 -45t-42 -45q31 -36 60 -73.5t55 -77.5l20 -30t12 -33q3 -22 -9 -38.5t-30 -24t-37.5 -3.5t-32.5 23
q-29 42 -57.5 83t-60.5 80q-23 -28 -44 -57t-41 -59q-7 -11 -13 -22t-15 -19q-18 -18 -40.5 -21t-40 6t-25.5 27.5t1 42.5q9 23 26 49.5t36.5 52.5t39.5 50.5t35 42.5q-13 14 -21.5 23t-15 16t-13.5 14.5t-19 19.5q-9 9 -20 18.5t-21 20.5t-18.5 23t-12.5 25q-5 18 1 33.5
t18.5 26t29.5 13.5t33 -5q9 -5 14.5 -9t12.5 -11q6 -7 19.5 -19.5t29.5 -28t33 -33t31 -33.5q29 33 60 64t63 62z" />
    <glyph glyph-name="tenroman" unicode="&#x2179;" horiz-adv-x="524" 
d="M391 457q20 13 40.5 13.5t36 -8.5t22 -27t-1.5 -43q-8 -20 -27 -37t-33 -31q-22 -23 -43 -45t-42 -45q31 -36 60 -73.5t55 -77.5l20 -30t12 -33q3 -22 -9 -38.5t-30 -24t-37.5 -3.5t-32.5 23q-29 42 -57.5 83t-60.5 80q-23 -28 -44 -57t-41 -59q-7 -11 -13 -22t-15 -19
q-18 -18 -40.5 -21t-40 6t-25.5 27.5t1 42.5q9 23 26 49.5t36.5 52.5t39.5 50.5t35 42.5q-13 14 -21.5 23t-15 16t-13.5 14.5t-19 19.5q-9 9 -20 18.5t-21 20.5t-18.5 23t-12.5 25q-5 18 1 33.5t18.5 26t29.5 13.5t33 -5q9 -5 14.5 -9t12.5 -11q6 -7 19.5 -19.5t29.5 -28
t33 -33t31 -33.5q29 33 60 64t63 62z" />
    <glyph glyph-name="elevenroman" unicode="&#x217a;" horiz-adv-x="770" 
d="M391 457q20 13 40.5 13.5t36 -8.5t22 -27t-1.5 -43q-8 -20 -27 -37t-33 -31q-22 -23 -43 -45t-42 -45q31 -36 60 -73.5t55 -77.5l20 -30t12 -33q3 -22 -9 -38.5t-30 -24t-37.5 -3.5t-32.5 23q-29 42 -57.5 83t-60.5 80q-23 -28 -44 -57t-41 -59q-7 -11 -13 -22t-15 -19
q-18 -18 -40.5 -21t-40 6t-25.5 27.5t1 42.5q9 23 26 49.5t36.5 52.5t39.5 50.5t35 42.5q-13 14 -21.5 23t-15 16t-13.5 14.5t-19 19.5q-9 9 -20 18.5t-21 20.5t-18.5 23t-12.5 25q-5 18 1 33.5t18.5 26t29.5 13.5t33 -5q9 -5 14.5 -9t12.5 -11q6 -7 19.5 -19.5t29.5 -28
t33 -33t31 -33.5q29 33 60 64t63 62zM704 28q-2 -20 -14 -35.5t-27.5 -22.5t-33.5 -3t-32 22q-8 10 -11.5 22.5t-4.5 26t-0.5 27t0.5 24.5q-1 59 -0.5 117t-0.5 117q0 24 -3 48.5t3 48.5q5 18 17.5 31t28 18t32 1t28.5 -21q16 -20 16 -39.5v-47.5v-68t1 -67q1 -48 1 -96v-96
v-7zM572 597q4 37 25.5 54.5t45.5 17t44.5 -18.5t21.5 -51q2 -34 -17.5 -52.5t-44.5 -21t-47 13.5t-27 51z" />
    <glyph glyph-name="twelveroman" unicode="&#x217b;" horiz-adv-x="1016" 
d="M391 457q20 13 40.5 13.5t36 -8.5t22 -27t-1.5 -43q-8 -20 -27 -37t-33 -31q-22 -23 -43 -45t-42 -45q31 -36 60 -73.5t55 -77.5l20 -30t12 -33q3 -22 -9 -38.5t-30 -24t-37.5 -3.5t-32.5 23q-29 42 -57.5 83t-60.5 80q-23 -28 -44 -57t-41 -59q-7 -11 -13 -22t-15 -19
q-18 -18 -40.5 -21t-40 6t-25.5 27.5t1 42.5q9 23 26 49.5t36.5 52.5t39.5 50.5t35 42.5q-13 14 -21.5 23t-15 16t-13.5 14.5t-19 19.5q-9 9 -20 18.5t-21 20.5t-18.5 23t-12.5 25q-5 18 1 33.5t18.5 26t29.5 13.5t33 -5q9 -5 14.5 -9t12.5 -11q6 -7 19.5 -19.5t29.5 -28
t33 -33t31 -33.5q29 33 60 64t63 62zM704 28q-2 -20 -14 -35.5t-27.5 -22.5t-33.5 -3t-32 22q-8 10 -11.5 22.5t-4.5 26t-0.5 27t0.5 24.5q-1 59 -0.5 117t-0.5 117q0 24 -3 48.5t3 48.5q5 18 17.5 31t28 18t32 1t28.5 -21q16 -20 16 -39.5v-47.5v-68t1 -67q1 -48 1 -96v-96
v-7zM572 597q4 37 25.5 54.5t45.5 17t44.5 -18.5t21.5 -51q2 -34 -17.5 -52.5t-44.5 -21t-47 13.5t-27 51zM950 28q-2 -20 -14 -35.5t-27.5 -22.5t-33.5 -3t-32 22q-8 10 -11.5 22.5t-4.5 26t-0.5 27t0.5 24.5q-1 59 -0.5 117t-0.5 117q0 24 -3 48.5t3 48.5q5 18 17.5 31
t28 18t32 1t28.5 -21q16 -20 16 -39.5v-47.5v-68t1 -67q1 -48 1 -96v-96v-7zM818 597q4 37 25.5 54.5t45.5 17t44.5 -18.5t21.5 -51q2 -34 -17.5 -52.5t-44.5 -21t-47 13.5t-27 51z" />
    <glyph glyph-name="uni217C" unicode="&#x217c;" horiz-adv-x="292" 
d="M193 62q11 -10 18.5 -25.5t8 -31t-7 -29t-26.5 -20.5q-15 -5 -33 -2t-35.5 12t-31 21.5t-19.5 27.5q-2 5 -3 11.5t-1 11.5v555q0 23 17.5 39t38.5 19q10 1 21.5 -3t21.5 -11.5t16.5 -17.5t6.5 -21v-69t0.5 -94t0.5 -105.5t-0.5 -104.5t-0.5 -91.5t-1 -66.5z" />
    <glyph glyph-name="uni217D" unicode="&#x217d;" horiz-adv-x="466" 
d="M316 125q25 16 47.5 14t37 -15.5t16 -36t-15.5 -47.5q-11 -17 -31.5 -31t-39.5 -22q-44 -20 -89 -18t-83.5 22t-66.5 55.5t-38 82.5q-20 90 8 173q11 30 26.5 58t37.5 51t49 40.5t59 23.5q22 4 56 -0.5t66.5 -17.5t57 -34t27.5 -50q2 -16 -4 -29.5t-17 -22.5t-25.5 -12.5
t-29.5 0.5q-18 5 -28.5 13.5t-27.5 22.5q-8 2 -15 6.5t-15 3.5l-27 -3q-7 -4 -13 -7l-12 -6q-34 -34 -50 -75.5t-8 -89.5q5 -31 19.5 -51t34 -27.5t43 -1.5t46.5 27z" />
    <glyph glyph-name="uni217E" unicode="&#x217e;" horiz-adv-x="543" 
d="M480 80q17 -29 11.5 -52t-22.5 -34.5t-41.5 -9t-47.5 25.5q-24 -17 -50 -26.5t-55 -16.5q-45 -10 -86.5 1.5t-73.5 37.5t-52 64.5t-22 83.5q-3 50 7.5 96t33.5 84t60.5 65t88.5 38q30 6 60.5 6t60.5 -5q-1 22 -1.5 50.5t-0.5 55.5t2 48.5t5 30.5q7 18 21.5 27.5t30.5 10
t31.5 -8t24.5 -25.5q2 -5 5 -9.5t3 -9.5q1 -131 0.5 -259t-0.5 -259q4 -6 7 -10zM341 135q2 3 7.5 6t5.5 8v82.5t-1 82.5q-24 5 -50 6t-50.5 -5t-45 -20t-32.5 -40q-6 -19 -11 -38t-5.5 -37t4.5 -35.5t17 -33.5q4 -4 9.5 -8t21.5 -14q37 -3 70.5 7t59.5 39z" />
    <glyph glyph-name="thousandroman" unicode="&#x217f;" horiz-adv-x="687" 
d="M288 286v14q-9 23 -29 32.5t-43 11.5q-13 -4 -21 -9t-14 -11t-11 -13.5t-12 -15.5v-262q0 -31 -18.5 -48.5t-41 -20t-41.5 11t-20 45.5q-2 77 -1.5 175t0.5 219q0 21 12.5 35t30 19t36 -0.5t30.5 -22.5q56 28 111.5 17.5t100.5 -52.5q20 20 43 36t50 21q31 5 62.5 -2.5
t58.5 -24.5t47.5 -42t30.5 -54q5 -20 5 -36v-272q0 -12 -3 -23q-9 -26 -28.5 -36.5t-40 -7.5t-35.5 19t-15 43v269q-9 24 -26 35t-35 10t-34.5 -13t-26.5 -33v-262q0 -27 -17.5 -45t-38.5 -23t-39.5 4t-21.5 36z" />
    <glyph glyph-name="Ibreve" unicode="&#x12c;" horiz-adv-x="421" 
d="M309 105q26 -1 43 -15.5t22 -33.5t-3 -37.5t-33 -28.5q-18 -7 -42.5 -9t-49 -1.5t-45.5 2t-32 1.5h-59q-21 0 -36 11.5t-21.5 27.5t-3 34t18.5 33q14 14 37 16t46 0v396q-23 0 -43 0.5t-40 14.5q-15 11 -20 25.5t-1.5 29t13.5 27.5t25 19q14 6 29 6q51 0 102.5 0.5
t103.5 -0.5q5 0 9.5 -3t9.5 -5q23 -13 31 -37t-6 -47q-7 -12 -17.5 -18.5t-23 -9t-25.5 -2.5h-25v-398q8 0 14.5 0.5t14.5 1.5h7zM396 814q0 -23 -12.5 -44t-26.5 -38q-27 -33 -65.5 -48t-79.5 -14t-79.5 17.5t-65.5 46.5q-11 12 -20.5 30t-12.5 36t2 35t24 27q8 5 17 7.5
t18 0.5q21 -4 31.5 -18.5t21 -30.5t25.5 -28.5t45 -13.5q10 2 20 2.5t19 5.5q10 6 16 15t11.5 18.5t11 18.5t14.5 15q12 9 26.5 9.5t28 -5.5t22.5 -17.5t9 -26.5z" />
    <glyph glyph-name="ibreve" unicode="&#x12d;" horiz-adv-x="266" 
d="M75 433q7 23 25.5 37t38 17t35.5 -7t18 -35q8 -109 7 -212t-3 -212q-3 -32 -22.5 -46.5t-41.5 -14t-40 16.5t-18 46v404zM322 680q0 -23 -12.5 -44t-26.5 -38q-27 -33 -65.5 -48t-79.5 -14t-79.5 17.5t-65.5 46.5q-11 12 -20.5 30t-12.5 36t2 35t24 27q8 5 17 7.5t18 0.5
q21 -4 31.5 -18.5t21 -30.5t25.5 -28.5t45 -13.5q10 2 20 2.5t19 5.5q10 6 16 15t11.5 18.5t11 18.5t14.5 15q12 9 26.5 9.5t28 -5.5t22.5 -17.5t9 -26.5z" />
    <glyph glyph-name="Idot" unicode="&#x130;" horiz-adv-x="421" 
d="M309 105q26 -1 43 -15.5t22 -33.5t-3 -37.5t-33 -28.5q-18 -7 -42.5 -9t-49 -1.5t-45.5 2t-32 1.5h-59q-21 0 -36 11.5t-21.5 27.5t-3 34t18.5 33q14 14 37 16t46 0v396q-23 0 -43 0.5t-40 14.5q-15 11 -20 25.5t-1.5 29t13.5 27.5t25 19q14 6 29 6q51 0 102.5 0.5
t103.5 -0.5q5 0 9.5 -3t9.5 -5q23 -13 31 -37t-6 -47q-7 -12 -17.5 -18.5t-23 -9t-25.5 -2.5h-25v-398q8 0 14.5 0.5t14.5 1.5h7zM290 764q0 -25 -11 -42.5t-27.5 -26.5t-36 -10t-37 7t-29.5 24.5t-13 40.5q-2 27 8.5 44t28 26.5t38 10t38 -7.5t29.5 -24t12 -42z" />
    <glyph glyph-name="Jcircumflex" unicode="&#x134;" horiz-adv-x="518" 
d="M461 622q20 0 35 -10t22.5 -25.5t5.5 -33t-16 -32.5q-9 -10 -22 -15t-27 -6t-28.5 -0.5t-26.5 0.5q0 -3 2 -28.5t4 -65t3 -88t-1 -95.5t-8.5 -88t-18.5 -66q-18 -37 -51 -64.5t-73 -41.5t-82.5 -13t-79.5 22q-32 18 -57.5 50t-42.5 65q-11 16 -11 33.5t7.5 32t22.5 23.5
t36 6t33.5 -14t22 -25t18 -29t20.5 -25.5t29.5 -14.5t45.5 4q15 4 29 15q15 12 21.5 27.5t9 32.5t2.5 35t1 35q3 69 0 137.5t-4 137.5q-34 -1 -67.5 -1h-67.5q-23 0 -50 -2.5t-50 6.5q-22 8 -31 27t-7 38.5t16 35t39 16.5q16 1 32 0.5t33 -0.5q83 1 165.5 1.5t166.5 2.5z
M189 683q-14 -10 -32 -13t-33.5 1t-25 16t-6.5 33q4 27 22.5 43t38.5 32q19 16 38 31.5t39 31.5q14 12 29.5 10t30 -10.5t27.5 -19.5t22 -19q10 -8 22.5 -17t24.5 -18.5t21 -20t12 -22.5q7 -28 -3 -42t-27 -18t-37 1t-34 15q-15 11 -29 22.5t-28 22.5q-18 -15 -36 -29.5
t-36 -29.5z" />
    <glyph glyph-name="napostrophe" unicode="&#x149;" horiz-adv-x="646" 
d="M116 706q12 20 30 27t35.5 3.5t31 -17.5t15.5 -37q1 -15 -4.5 -32t-14 -34t-18 -33t-15.5 -28q-8 -16 -14.5 -31.5t-15.5 -30.5q-14 -25 -36.5 -28.5t-42 6t-30 29.5t-0.5 43q5 20 17 41t21 39q10 20 19 39l18 38zM600 26q-3 -25 -18.5 -41t-35 -20t-37.5 5t-26 35
q-9 28 -7 58.5t2 56.5q0 54 0.5 107.5t-4.5 107.5q-1 2 -2 3.5t-4 4.5q-23 6 -49 -3t-44 -23q-16 -13 -31.5 -35.5t-15.5 -43.5v-138q0 -16 1 -35t-1.5 -37t-11.5 -33t-29 -22q-11 -4 -20.5 -3t-20.5 5q-18 6 -26 20.5t-11 31t-2.5 32t0.5 24.5q0 23 -0.5 66.5t-0.5 91.5
v91.5v66.5q0 22 13 36.5t30.5 19t37 -2t32.5 -26.5q40 26 88 35t90.5 -3t71 -45t29.5 -91q0 -2 1 -12t1 -28v-256z" />
    <glyph glyph-name="clickretroflex" unicode="&#x1c3;" horiz-adv-x="271" 
d="M65 22q3 24 14.5 40.5t28 24.5t34.5 8.5t34 -7.5t26.5 -24t11.5 -40q2 -36 -20 -55.5t-49 -20.5t-51.5 17t-28.5 57zM75 574q9 24 25 37.5t33.5 14.5t34 -10.5t26.5 -36.5q2 -52 3.5 -98t2 -89t-0.5 -85t-3 -86q-1 -31 -20.5 -46.5t-42 -14.5t-41 17t-18.5 46v345z" />
    <glyph glyph-name="DZcaron" unicode="&#x1c4;" horiz-adv-x="1195" 
d="M134 -38q-26 5 -44.5 24t-18.5 47v421q-18 -3 -35 4.5t-27 20t-11.5 29t10.5 31.5q13 17 31 28.5t38 19t41.5 12.5t41.5 9q56 9 112 4.5t106 -24.5t91.5 -56t67.5 -90q16 -33 23 -68.5t8 -71.5q1 -47 -11 -91t-36 -82.5t-58 -68.5t-76 -50q-37 -17 -78.5 -25t-81.5 -14
q-20 -3 -42.5 -6.5t-43.5 -3.5zM242 493q-13 0 -24.5 -1t-24.5 -3v-401q6 0 10 1t8 1t7 1q14 2 23 3t17 2.5t16.5 3.5t19.5 5q58 15 91.5 47.5t50.5 89.5q11 33 10 67t-12.5 65t-33.5 56.5t-54 40.5q-26 12 -51.5 16t-52.5 6zM692 -23q-16 0 -31 8.5t-24 21.5t-10.5 29
t9.5 30q3 11 12 25.5t19 29t20 27t14 19.5q57 80 120.5 152.5t130.5 144.5q-29 -1 -57 -1.5t-57 -0.5q-40 0 -84 -3t-83 9q-22 7 -31.5 23t-8 34t13 34t31.5 23q9 3 29 3.5t41.5 0t40 -1.5t25.5 -1q45 0 90.5 1t91.5 2q15 0 30 0.5t31 0.5h33.5t35 -4.5t29 -15.5t14.5 -32
q2 -15 -2 -26t-11.5 -20t-17.5 -17t-20 -17q-23 -20 -45 -40.5t-42 -42.5q-58 -63 -114 -129.5t-107 -136.5q35 -1 70.5 -2.5t70.5 -2.5q32 -1 65 -0.5t65 6.5q20 3 40.5 8t40.5 -5q14 -7 22.5 -19t10.5 -26t-2 -27.5t-16 -24.5q-17 -15 -38.5 -19.5t-41.5 -8.5
q-50 -9 -100.5 -8t-101 4t-101 4t-100.5 -8zM840 812q19 -12 36.5 -24.5t35.5 -25.5q18 12 35 24.5t36 23.5q17 10 34 11t31 -5t22.5 -18t5.5 -28q-3 -13 -14 -25.5t-27 -23.5t-32.5 -20t-28.5 -18l-26 -18t-30 -10q-12 -1 -23.5 2.5t-22 9t-20 13t-18.5 13.5
q-13 9 -27 17.5t-28 19t-24 22.5t-14 24q-4 18 4.5 29.5t23 16.5t32.5 3.5t34 -9.5z" />
    <glyph glyph-name="Dzcaron" unicode="&#x1c5;" horiz-adv-x="1087" 
d="M134 -38q-26 5 -44.5 24t-18.5 47v421q-18 -3 -35 4.5t-27 20t-11.5 29t10.5 31.5q13 17 31 28.5t38 19t41.5 12.5t41.5 9q56 9 112 4.5t106 -24.5t91.5 -56t67.5 -90q16 -33 23 -68.5t8 -71.5q1 -47 -11 -91t-36 -82.5t-58 -68.5t-76 -50q-37 -17 -78.5 -25t-81.5 -14
q-20 -3 -42.5 -6.5t-43.5 -3.5zM242 493q-13 0 -24.5 -1t-24.5 -3v-401q6 0 10 1t8 1t7 1q14 2 23 3t17 2.5t16.5 3.5t19.5 5q58 15 91.5 47.5t50.5 89.5q11 33 10 67t-12.5 65t-33.5 56.5t-54 40.5q-26 12 -51.5 16t-52.5 6zM1038 91q22 -10 34.5 -27t13 -34.5t-11.5 -33
t-39 -22.5q-20 -5 -44 -0.5t-44 6.5q-51 4 -100.5 3t-100.5 -3q-14 -1 -30 -3t-32 -1t-30.5 6t-24.5 19q-12 17 -11.5 34.5t8.5 34t20 32t22 28.5q42 57 88.5 108.5t94.5 104.5q-21 -1 -42.5 -1.5t-43.5 -1.5q-26 -2 -54.5 -6t-54.5 4q-23 7 -33 22.5t-9 32.5t12 33.5
t30 25.5q9 5 19 5t20 1q44 3 85 4.5t86 2.5q14 0 44 2.5t60.5 -0.5t54 -15.5t25.5 -42.5q1 -17 -6 -32t-18.5 -28t-24.5 -24.5t-23 -22.5q-46 -49 -91.5 -98t-87.5 -101q59 1 116.5 -1.5t116.5 -8.5zM779 697q19 -12 36.5 -24.5t35.5 -25.5q18 12 35 24.5t36 23.5
q17 10 34 11t31 -5t22.5 -18t5.5 -28q-3 -13 -14 -25.5t-27 -23.5t-32.5 -20t-28.5 -18l-26 -18t-30 -10q-12 -1 -23.5 2.5t-22 9t-20 13t-18.5 13.5q-13 9 -27 17.5t-28 19t-24 22.5t-14 24q-4 18 4.5 29.5t23 16.5t32.5 3.5t34 -9.5z" />
    <glyph glyph-name="dzcaron" unicode="&#x1c6;" horiz-adv-x="1038" 
d="M480 80q17 -29 11.5 -52t-22.5 -34.5t-41.5 -9t-47.5 25.5q-24 -17 -50 -26.5t-55 -16.5q-45 -10 -86.5 1.5t-73.5 37.5t-52 64.5t-22 83.5q-3 50 7.5 96t33.5 84t60.5 65t88.5 38q30 6 60.5 6t60.5 -5q-1 22 -1.5 50.5t-0.5 55.5t2 48.5t5 30.5q7 18 21.5 27.5t30.5 10
t31.5 -8t24.5 -25.5q2 -5 5 -9.5t3 -9.5q1 -131 0.5 -259t-0.5 -259q4 -6 7 -10zM341 135q2 3 7.5 6t5.5 8v82.5t-1 82.5q-24 5 -50 6t-50.5 -5t-45 -20t-32.5 -40q-6 -19 -11 -38t-5.5 -37t4.5 -35.5t17 -33.5q4 -4 9.5 -8t21.5 -14q37 -3 70.5 7t59.5 39zM985 91
q22 -10 34.5 -27t13 -34.5t-11.5 -33t-39 -22.5q-20 -5 -44 -0.5t-44 6.5q-51 4 -100.5 3t-100.5 -3q-14 -1 -30 -3t-32 -1t-30.5 6t-24.5 19q-12 17 -11.5 34.5t8.5 34t20 32t22 28.5q42 57 88.5 108.5t94.5 104.5q-21 -1 -42.5 -1.5t-43.5 -1.5q-26 -2 -54.5 -6t-54.5 4
q-23 7 -33 22.5t-9 32.5t12 33.5t30 25.5q9 5 19 5t20 1q44 3 85 4.5t86 2.5q14 0 44 2.5t60.5 -0.5t54 -15.5t25.5 -42.5q1 -17 -6 -32t-18.5 -28t-24.5 -24.5t-23 -22.5q-46 -49 -91.5 -98t-87.5 -101q59 1 116.5 -1.5t116.5 -8.5zM726 697q19 -12 36.5 -24.5t35.5 -25.5
q18 12 35 24.5t36 23.5q17 10 34 11t31 -5t22.5 -18t5.5 -28q-3 -13 -14 -25.5t-27 -23.5t-32.5 -20t-28.5 -18l-26 -18t-30 -10q-12 -1 -23.5 2.5t-22 9t-20 13t-18.5 13.5q-13 9 -27 17.5t-28 19t-24 22.5t-14 24q-4 18 4.5 29.5t23 16.5t32.5 3.5t34 -9.5z" />
    <glyph glyph-name="LJ" unicode="&#x1c7;" horiz-adv-x="1020" 
d="M425 97q23 -11 35 -28t11.5 -34.5t-13 -33t-38.5 -23.5q-10 -3 -28 -3.5t-50 -0.5h-81t-121 -1q-18 -1 -37 -1t-33 13q-12 10 -17.5 30.5t-7 43t-1 45t0.5 37.5q0 30 0.5 69t1 79.5t0.5 79.5v69q0 53 1 85.5t4.5 51t11.5 27t22 14.5q12 5 26.5 3.5t27 -8t21 -18
t8.5 -25.5q2 -120 0 -238t-2 -236q63 0 125.5 1.5t126.5 3.5zM950 622q20 0 35 -10t22.5 -25.5t5.5 -33t-16 -32.5q-9 -10 -22 -15t-27 -6t-28.5 -0.5t-26.5 0.5q0 -3 2 -28.5t4 -65t3 -88t-1 -95.5t-8.5 -88t-18.5 -66q-18 -37 -51 -64.5t-73 -41.5t-82.5 -13t-79.5 22
q-32 18 -57.5 50t-42.5 65q-11 16 -11 33.5t7.5 32t22.5 23.5t36 6t33.5 -14t22 -25t18 -29t20.5 -25.5t29.5 -14.5t45.5 4q15 4 29 15q15 12 21.5 27.5t9 32.5t2.5 35t1 35q3 69 0 137.5t-4 137.5q-34 -1 -67.5 -1h-67.5q-23 0 -50 -2.5t-50 6.5q-22 8 -31 27t-7 38.5
t16 35t39 16.5q16 1 32 0.5t33 -0.5q83 1 165.5 1.5t166.5 2.5z" />
    <glyph glyph-name="Lj" unicode="&#x1c8;" horiz-adv-x="805" 
d="M425 97q23 -11 35 -28t11.5 -34.5t-13 -33t-38.5 -23.5q-10 -3 -28 -3.5t-50 -0.5h-81t-121 -1q-18 -1 -37 -1t-33 13q-12 10 -17.5 30.5t-7 43t-1 45t0.5 37.5q0 30 0.5 69t1 79.5t0.5 79.5v69q0 53 1 85.5t4.5 51t11.5 27t22 14.5q12 5 26.5 3.5t27 -8t21 -18
t8.5 -25.5q2 -120 0 -238t-2 -236q63 0 125.5 1.5t126.5 3.5zM498 -85q-7 19 -4.5 38t13 32.5t27.5 19t38 -3.5q15 -6 24.5 -18t20.5 -23q13 -10 15.5 -9.5t1.5 1.5q14 -4 20.5 10t9 35t2.5 44v37v200v67q0 17 -1 33t0 33q0 14 7.5 26.5t19 20.5t26 11t27.5 -2
q14 -5 28 -20.5t14 -30.5q0 -2 0.5 -29t1 -69.5t0 -95.5t-2 -106t-4.5 -101.5t-8 -81.5q-5 -32 -26 -55.5t-50.5 -35.5t-63 -11.5t-63.5 16.5q-21 11 -37.5 28t-32.5 34zM649 608q4 37 25.5 54.5t45.5 17t44.5 -18.5t21.5 -51q2 -34 -17.5 -52.5t-44.5 -21t-47 13.5t-27 51z
" />
    <glyph glyph-name="lj" unicode="&#x1c9;" horiz-adv-x="607" 
d="M193 62q11 -10 18.5 -25.5t8 -31t-7 -29t-26.5 -20.5q-15 -5 -33 -2t-35.5 12t-31 21.5t-19.5 27.5q-2 5 -3 11.5t-1 11.5v555q0 23 17.5 39t38.5 19q10 1 21.5 -3t21.5 -11.5t16.5 -17.5t6.5 -21v-69t0.5 -94t0.5 -105.5t-0.5 -104.5t-0.5 -91.5t-1 -66.5zM301 -85
q-7 19 -4.5 38t13 32.5t27.5 19t38 -3.5q15 -6 24.5 -18t20.5 -23q13 -10 15.5 -9.5t1.5 1.5q14 -4 20.5 10t9 35t2.5 44v37v200v67q0 17 -1 33t0 33q0 14 7.5 26.5t19 20.5t26 11t27.5 -2q14 -5 28 -20.5t14 -30.5q0 -2 0.5 -29t1 -69.5t0 -95.5t-2 -106t-4.5 -101.5
t-8 -81.5q-5 -32 -26 -55.5t-50.5 -35.5t-63 -11.5t-63.5 16.5q-21 11 -37.5 28t-32.5 34zM452 608q4 37 25.5 54.5t45.5 17t44.5 -18.5t21.5 -51q2 -34 -17.5 -52.5t-44.5 -21t-47 13.5t-27 51z" />
    <glyph glyph-name="NJ" unicode="&#x1ca;" horiz-adv-x="1148" 
d="M450 593q6 20 19.5 33t29.5 17t32.5 -2t28.5 -24q4 -5 7.5 -12t3.5 -13q2 -143 -1.5 -285.5t-11.5 -285.5q0 -23 -14.5 -36t-33 -16.5t-37.5 4t-28 25.5q-1 1 -1 2v-2q-65 107 -137 205.5t-150 195.5v-226v-77t-1 -50.5t-2.5 -30.5t-4.5 -19q-9 -24 -27.5 -32t-37.5 -4
t-33 20t-14 40v44v68v81.5v85.5t-0.5 78.5t-0.5 61.5q0 34 -1 67.5t0 67.5q0 17 8.5 29t21.5 18.5t28 7.5t29 -4q12 -4 24.5 -16.5t24.5 -27t22.5 -29t17.5 -23.5q26 -32 60 -73.5t63 -78.5q29 -38 56.5 -76t53.5 -76q3 91 4 181t1 181zM1075 622q20 0 35 -10t22.5 -25.5
t5.5 -33t-16 -32.5q-9 -10 -22 -15t-27 -6t-28.5 -0.5t-26.5 0.5q0 -3 2 -28.5t4 -65t3 -88t-1 -95.5t-8.5 -88t-18.5 -66q-18 -37 -51 -64.5t-73 -41.5t-82.5 -13t-79.5 22q-32 18 -57.5 50t-42.5 65q-11 16 -11 33.5t7.5 32t22.5 23.5t36 6t33.5 -14t22 -25t18 -29
t20.5 -25.5t29.5 -14.5t45.5 4q15 4 29 15q15 12 21.5 27.5t9 32.5t2.5 35t1 35q3 69 0 137.5t-4 137.5q-34 -1 -67.5 -1h-67.5q-23 0 -50 -2.5t-50 6.5q-22 8 -31 27t-7 38.5t16 35t39 16.5q16 1 32 0.5t33 -0.5q83 1 165.5 1.5t166.5 2.5z" />
    <glyph glyph-name="Nj" unicode="&#x1cb;" horiz-adv-x="934" 
d="M450 593q6 20 19.5 33t29.5 17t32.5 -2t28.5 -24q4 -5 7.5 -12t3.5 -13q2 -143 -1.5 -285.5t-11.5 -285.5q0 -23 -14.5 -36t-33 -16.5t-37.5 4t-28 25.5q-1 1 -1 2v-2q-65 107 -137 205.5t-150 195.5v-226v-77t-1 -50.5t-2.5 -30.5t-4.5 -19q-9 -24 -27.5 -32t-37.5 -4
t-33 20t-14 40v44v68v81.5v85.5t-0.5 78.5t-0.5 61.5q0 34 -1 67.5t0 67.5q0 17 8.5 29t21.5 18.5t28 7.5t29 -4q12 -4 24.5 -16.5t24.5 -27t22.5 -29t17.5 -23.5q26 -32 60 -73.5t63 -78.5q29 -38 56.5 -76t53.5 -76q3 91 4 181t1 181zM623 -85q-7 19 -4.5 38t13 32.5
t27.5 19t38 -3.5q15 -6 24.5 -18t20.5 -23q13 -10 15.5 -9.5t1.5 1.5q14 -4 20.5 10t9 35t2.5 44v37v200v67q0 17 -1 33t0 33q0 14 7.5 26.5t19 20.5t26 11t27.5 -2q14 -5 28 -20.5t14 -30.5q0 -2 0.5 -29t1 -69.5t0 -95.5t-2 -106t-4.5 -101.5t-8 -81.5q-5 -32 -26 -55.5
t-50.5 -35.5t-63 -11.5t-63.5 16.5q-21 11 -37.5 28t-32.5 34zM774 608q4 37 25.5 54.5t45.5 17t44.5 -18.5t21.5 -51q2 -34 -17.5 -52.5t-44.5 -21t-47 13.5t-27 51z" />
    <glyph glyph-name="nj" unicode="&#x1cc;" horiz-adv-x="803" 
d="M444 26q-3 -25 -18.5 -41t-35 -20t-37.5 5t-26 35q-9 28 -7 58.5t2 56.5q0 54 0.5 107.5t-4.5 107.5q-1 2 -2 3.5t-4 4.5q-23 6 -49 -3t-44 -23q-16 -13 -31.5 -35.5t-15.5 -43.5v-138q0 -16 1 -35t-1.5 -37t-11.5 -33t-29 -22q-11 -4 -20.5 -3t-20.5 5q-18 6 -26 20.5
t-11 31t-2.5 32t0.5 24.5q0 23 -0.5 66.5t-0.5 91.5v91.5v66.5q0 22 13 36.5t30.5 19t37 -2t32.5 -26.5q40 26 88 35t90.5 -3t71 -45t29.5 -91q0 -2 1 -12t1 -28v-256zM491 -85q-7 19 -4.5 38t13 32.5t27.5 19t38 -3.5q15 -6 24.5 -18t20.5 -23q13 -10 15.5 -9.5t1.5 1.5
q14 -4 20.5 10t9 35t2.5 44v37v200v67q0 17 -1 33t0 33q0 14 7.5 26.5t19 20.5t26 11t27.5 -2q14 -5 28 -20.5t14 -30.5q0 -2 0.5 -29t1 -69.5t0 -95.5t-2 -106t-4.5 -101.5t-8 -81.5q-5 -32 -26 -55.5t-50.5 -35.5t-63 -11.5t-63.5 16.5q-21 11 -37.5 28t-32.5 34zM642 608
q4 37 25.5 54.5t45.5 17t44.5 -18.5t21.5 -51q2 -34 -17.5 -52.5t-44.5 -21t-47 13.5t-27 51z" />
    <glyph glyph-name="Acaron" unicode="&#x1cd;" horiz-adv-x="604" 
d="M577 29q-3 -22 -15 -37.5t-27.5 -21.5t-33 -1.5t-32.5 23.5q-13 16 -14.5 35.5t-5.5 38.5q-10 55 -29 113q-62 -1 -123 -1t-122 -1q-9 -26 -15.5 -53t-12.5 -53q-5 -20 -9 -41.5t-18 -37.5q-17 -20 -36.5 -22.5t-35 6.5t-25 27.5t-6.5 42.5q3 31 12 61t17 60
q45 172 116 333q6 14 12.5 27t12.5 26q7 14 14 30t16.5 29.5t22.5 23t32 9.5q25 0 42 -16q68 -68 112 -153.5t79 -174.5q21 1 41 0t36 -18q14 -14 16.5 -30t-3 -31t-18 -26t-30.5 -15q10 -35 17.5 -71.5t12.5 -73.5v-7zM373 301q-19 45 -40.5 89.5t-48.5 84.5
q-20 -44 -37.5 -87.5t-32.5 -88.5q47 1 82.5 1t76.5 1zM237 870q19 -12 36.5 -24.5t35.5 -25.5q18 12 35 24.5t36 23.5q17 10 34 11t31 -5t22.5 -18t5.5 -28q-3 -13 -14 -25.5t-27 -23.5t-32.5 -20t-28.5 -18l-26 -18t-30 -10q-12 -1 -23.5 2.5t-22 9t-20 13t-18.5 13.5
q-13 9 -27 17.5t-28 19t-24 22.5t-14 24q-4 18 4.5 29.5t23 16.5t32.5 3.5t34 -9.5z" />
    <glyph glyph-name="acaron" unicode="&#x1ce;" 
d="M480 44q8 -29 -3 -48t-30.5 -25.5t-42.5 1.5t-40 32q-28 -21 -54.5 -29.5t-60.5 -9.5q-51 -2 -91 11.5t-67.5 40.5t-40.5 67.5t-9 93.5q2 22 7.5 43t12.5 41q8 22 22.5 47t29.5 43q54 66 135 95q14 5 38 9t48.5 3.5t47 -6.5t33.5 -21q9 -12 13 -21t4.5 -19t0 -21.5
t-0.5 -28.5q0 -28 -0.5 -54.5t0.5 -53.5v-23.5t1 -30.5t2.5 -30.5t4.5 -23.5zM268 89q11 7 25 15.5t25 19.5q-9 53 -10.5 106t0.5 107q-45 -8 -81 -39t-50 -73q-6 -17 -10 -35t-3 -35q1 -23 12 -38.5t26.5 -23.5t33 -9t32.5 5zM192 687q19 -12 36.5 -24.5t35.5 -25.5
q18 12 35 24.5t36 23.5q17 10 34 11t31 -5t22.5 -18t5.5 -28q-3 -13 -14 -25.5t-27 -23.5t-32.5 -20t-28.5 -18l-26 -18t-30 -10q-12 -1 -23.5 2.5t-22 9t-20 13t-18.5 13.5q-13 9 -27 17.5t-28 19t-24 22.5t-14 24q-4 18 4.5 29.5t23 16.5t32.5 3.5t34 -9.5z" />
    <glyph glyph-name="Icaron" unicode="&#x1cf;" horiz-adv-x="421" 
d="M309 105q26 -1 43 -15.5t22 -33.5t-3 -37.5t-33 -28.5q-18 -7 -42.5 -9t-49 -1.5t-45.5 2t-32 1.5h-59q-21 0 -36 11.5t-21.5 27.5t-3 34t18.5 33q14 14 37 16t46 0v396q-23 0 -43 0.5t-40 14.5q-15 11 -20 25.5t-1.5 29t13.5 27.5t25 19q14 6 29 6q51 0 102.5 0.5
t103.5 -0.5q5 0 9.5 -3t9.5 -5q23 -13 31 -37t-6 -47q-7 -12 -17.5 -18.5t-23 -9t-25.5 -2.5h-25v-398q8 0 14.5 0.5t14.5 1.5h7zM141 849q19 -12 36.5 -24.5t35.5 -25.5q18 12 35 24.5t36 23.5q17 10 34 11t31 -5t22.5 -18t5.5 -28q-3 -13 -14 -25.5t-27 -23.5t-32.5 -20
t-28.5 -18l-26 -18t-30 -10q-12 -1 -23.5 2.5t-22 9t-20 13t-18.5 13.5q-13 9 -27 17.5t-28 19t-24 22.5t-14 24q-4 18 4.5 29.5t23 16.5t32.5 3.5t34 -9.5z" />
    <glyph glyph-name="icaron" unicode="&#x1d0;" horiz-adv-x="266" 
d="M75 433q7 23 25.5 37t38 17t35.5 -7t18 -35q8 -109 7 -212t-3 -212q-3 -32 -22.5 -46.5t-41.5 -14t-40 16.5t-18 46v404zM69 717q19 -12 36.5 -24.5t35.5 -25.5q18 12 35 24.5t36 23.5q17 10 34 11t31 -5t22.5 -18t5.5 -28q-3 -13 -14 -25.5t-27 -23.5t-32.5 -20
t-28.5 -18l-26 -18t-30 -10q-12 -1 -23.5 2.5t-22 9t-20 13t-18.5 13.5q-13 9 -27 17.5t-28 19t-24 22.5t-14 24q-4 18 4.5 29.5t23 16.5t32.5 3.5t34 -9.5z" />
    <glyph glyph-name="Ocaron" unicode="&#x1d1;" horiz-adv-x="677" 
d="M626 255q-17 -56 -43.5 -109.5t-64.5 -95.5t-88.5 -68t-115.5 -26q-42 2 -66.5 7.5t-47.5 16.5q-41 12 -70.5 38.5t-49.5 61.5t-30.5 74.5t-13.5 76.5q-5 65 11 132t51 123.5t88 97t121 53.5q35 6 71 4t70 -14q28 -10 52 -23t46 -33q29 -26 49 -60t29 -71q11 -47 10 -93
t-8 -92zM367 86q30 13 52.5 34.5t39.5 47.5t28.5 55.5t20.5 59.5q6 38 6.5 78t-16.5 76q-14 30 -42.5 51.5t-62.5 30t-68.5 3.5t-61.5 -27q-38 -32 -61.5 -71.5t-35.5 -87.5q-10 -38 -11 -80t13 -80q11 -28 32.5 -51t48.5 -36t57.5 -14.5t60.5 11.5zM263 868
q19 -12 36.5 -24.5t35.5 -25.5q18 12 35 24.5t36 23.5q17 10 34 11t31 -5t22.5 -18t5.5 -28q-3 -13 -14 -25.5t-27 -23.5t-32.5 -20t-28.5 -18l-26 -18t-30 -10q-12 -1 -23.5 2.5t-22 9t-20 13t-18.5 13.5q-13 9 -27 17.5t-28 19t-24 22.5t-14 24q-4 18 4.5 29.5t23 16.5
t32.5 3.5t34 -9.5z" />
    <glyph glyph-name="ocaron" unicode="&#x1d2;" horiz-adv-x="461" 
d="M28 239q7 29 19.5 57t30.5 53.5t40.5 46.5t48.5 34q46 24 92.5 24.5t86.5 -18.5t68 -56.5t37 -89.5q5 -34 5.5 -64.5t-6.5 -63.5q-10 -47 -40.5 -93.5t-73 -78t-93 -41.5t-101.5 16q-23 11 -41.5 25.5t-33.5 34.5q-17 22 -26.5 46t-15.5 50q-7 28 -5 56.5t7 55.5z
M148 218q-3 -16 -5 -31.5t0 -31.5q3 -23 12.5 -42t25 -30t35.5 -11.5t43 12.5q29 17 50 52.5t26 74t-8 73t-51 49.5q-25 0 -46 -9.5t-36.5 -25t-27 -36.5t-18.5 -44zM167 682q19 -12 36.5 -24.5t35.5 -25.5q18 12 35 24.5t36 23.5q17 10 34 11t31 -5t22.5 -18t5.5 -28
q-3 -13 -14 -25.5t-27 -23.5t-32.5 -20t-28.5 -18l-26 -18t-30 -10q-12 -1 -23.5 2.5t-22 9t-20 13t-18.5 13.5q-13 9 -27 17.5t-28 19t-24 22.5t-14 24q-4 18 4.5 29.5t23 16.5t32.5 3.5t34 -9.5z" />
    <glyph glyph-name="Ucaron" unicode="&#x1d3;" horiz-adv-x="615" 
d="M454 573q6 20 19.5 33t29.5 17t32.5 -2t28.5 -24q4 -5 7.5 -12t3.5 -13q0 -11 -1 -37t-1.5 -53t-1.5 -48t-1 -22q-2 -54 -7 -107.5t-14 -107.5q-8 -42 -19 -77.5t-30 -63t-48 -47.5t-72 -32q-17 -5 -35.5 -7t-35.5 -2q-50 0 -102 19q-59 23 -89 76t-42 118.5t-11.5 132.5
t0.5 118q0 21 0.5 42.5t1.5 42.5q0 15 1 31.5t6 31.5t15.5 26t29.5 15q11 2 23.5 -2t22.5 -11.5t17 -18t7 -22.5v-25.5v-17t-0.5 -15.5t-0.5 -21q-2 -66 -2 -131.5t8 -130.5q3 -27 9 -56t24 -50q16 -19 41.5 -26.5t52 -4.5t50 15t36.5 32t20 47t10.5 56t5 57.5t2.5 52.5
q2 28 3 48t2 48q1 21 1 42t1 42zM250 828q19 -12 36.5 -24.5t35.5 -25.5q18 12 35 24.5t36 23.5q17 10 34 11t31 -5t22.5 -18t5.5 -28q-3 -13 -14 -25.5t-27 -23.5t-32.5 -20t-28.5 -18l-26 -18t-30 -10q-12 -1 -23.5 2.5t-22 9t-20 13t-18.5 13.5q-13 9 -27 17.5t-28 19
t-24 22.5t-14 24q-4 18 4.5 29.5t23 16.5t32.5 3.5t34 -9.5z" />
    <glyph glyph-name="ucaron" unicode="&#x1d4;" horiz-adv-x="498" 
d="M476 78q9 -13 10.5 -30.5t-4 -33t-18 -25.5t-32.5 -9q-26 2 -42 18t-30 36q-39 -32 -80.5 -44.5t-81.5 -5.5t-75 33.5t-59 71.5q-22 42 -24.5 93t-1.5 97q0 16 1 31.5t2 32.5q1 13 1 25.5t1.5 23.5t6 22t13.5 21q12 13 29 15.5t32.5 -3.5t27 -18.5t12.5 -30.5
q2 -51 -2.5 -103t0.5 -102q2 -24 12.5 -49t33.5 -36q23 -10 46.5 1.5t38.5 27.5q7 8 13.5 17.5t14.5 16.5q-4 35 -5 70t0 70q0 19 1.5 41.5t8 43t19.5 36t37 19.5q11 2 21.5 -2t18.5 -11q14 -12 19 -27t5 -32t-2.5 -34.5t-3.5 -32.5q-2 -28 -3 -59t2 -62t11.5 -60t25.5 -53z
M192 680q19 -12 36.5 -24.5t35.5 -25.5q18 12 35 24.5t36 23.5q17 10 34 11t31 -5t22.5 -18t5.5 -28q-3 -13 -14 -25.5t-27 -23.5t-32.5 -20t-28.5 -18l-26 -18t-30 -10q-12 -1 -23.5 2.5t-22 9t-20 13t-18.5 13.5q-13 9 -27 17.5t-28 19t-24 22.5t-14 24q-4 18 4.5 29.5
t23 16.5t32.5 3.5t34 -9.5z" />
    <glyph glyph-name="Udieresismacron" unicode="&#x1d5;" horiz-adv-x="615" 
d="M454 573q6 20 19.5 33t29.5 17t32.5 -2t28.5 -24q4 -5 7.5 -12t3.5 -13q0 -11 -1 -37t-1.5 -53t-1.5 -48t-1 -22q-2 -54 -7 -107.5t-14 -107.5q-8 -42 -19 -77.5t-30 -63t-48 -47.5t-72 -32q-17 -5 -35.5 -7t-35.5 -2q-50 0 -102 19q-59 23 -89 76t-42 118.5t-11.5 132.5
t0.5 118q0 21 0.5 42.5t1.5 42.5q0 15 1 31.5t6 31.5t15.5 26t29.5 15q11 2 23.5 -2t22.5 -11.5t17 -18t7 -22.5v-25.5v-17t-0.5 -15.5t-0.5 -21q-2 -66 -2 -131.5t8 -130.5q3 -27 9 -56t24 -50q16 -19 41.5 -26.5t52 -4.5t50 15t36.5 32t20 47t10.5 56t5 57.5t2.5 52.5
q2 28 3 48t2 48q1 21 1 42t1 42zM508 751q0 -20 -10.5 -35t-24.5 -26q-19 -13 -30 -15.5t-31 3.5q-18 6 -28 21.5t-12.5 33.5t4.5 35t24 25q14 13 33 17t35.5 -1t28 -19.5t11.5 -38.5zM272 756q0 -16 -9.5 -31t-23.5 -25.5t-31.5 -14t-32.5 2.5q-19 7 -29.5 20.5t-12.5 29.5
t5 31.5t23 27.5q11 9 23 13q14 7 29.5 6t28.5 -9t21.5 -21t8.5 -30zM158 874q-29 6 -42.5 22.5t-11.5 33.5t19 30t47 13q79 0 158.5 0.5t159.5 -0.5q6 0 12.5 -3t11.5 -6q16 -10 22.5 -23t4 -25.5t-13.5 -24t-29 -16.5q-48 -1 -90 -1h-81.5t-79 -0.5t-80.5 -0.5z" />
    <glyph glyph-name="udieresismacron" unicode="&#x1d6;" horiz-adv-x="498" 
d="M476 78q9 -13 10.5 -30.5t-4 -33t-18 -25.5t-32.5 -9q-26 2 -42 18t-30 36q-39 -32 -80.5 -44.5t-81.5 -5.5t-75 33.5t-59 71.5q-22 42 -24.5 93t-1.5 97q0 16 1 31.5t2 32.5q1 13 1 25.5t1.5 23.5t6 22t13.5 21q12 13 29 15.5t32.5 -3.5t27 -18.5t12.5 -30.5
q2 -51 -2.5 -103t0.5 -102q2 -24 12.5 -49t33.5 -36q23 -10 46.5 1.5t38.5 27.5q7 8 13.5 17.5t14.5 16.5q-4 35 -5 70t0 70q0 19 1.5 41.5t8 43t19.5 36t37 19.5q11 2 21.5 -2t18.5 -11q14 -12 19 -27t5 -32t-2.5 -34.5t-3.5 -32.5q-2 -28 -3 -59t2 -62t11.5 -60t25.5 -53z
M451 579q0 -20 -10.5 -35t-24.5 -26q-19 -13 -30 -15.5t-31 3.5q-18 6 -28 21.5t-12.5 33.5t4.5 35t24 25q14 13 33 17t35.5 -1t28 -19.5t11.5 -38.5zM215 584q0 -16 -9.5 -31t-23.5 -25.5t-31.5 -14t-32.5 2.5q-19 7 -29.5 20.5t-12.5 29.5t5 31.5t23 27.5q11 9 23 13
q14 7 29.5 6t28.5 -9t21.5 -21t8.5 -30zM101 700q-29 6 -42.5 22.5t-11.5 33.5t19 30t47 13q79 0 158.5 0.5t159.5 -0.5q6 0 12.5 -3t11.5 -6q16 -10 22.5 -23t4 -25.5t-13.5 -24t-29 -16.5q-48 -1 -90 -1h-81.5t-79 -0.5t-80.5 -0.5z" />
    <glyph glyph-name="Udieresisacute" unicode="&#x1d7;" horiz-adv-x="615" 
d="M454 573q6 20 19.5 33t29.5 17t32.5 -2t28.5 -24q4 -5 7.5 -12t3.5 -13q0 -11 -1 -37t-1.5 -53t-1.5 -48t-1 -22q-2 -54 -7 -107.5t-14 -107.5q-8 -42 -19 -77.5t-30 -63t-48 -47.5t-72 -32q-17 -5 -35.5 -7t-35.5 -2q-50 0 -102 19q-59 23 -89 76t-42 118.5t-11.5 132.5
t0.5 118q0 21 0.5 42.5t1.5 42.5q0 15 1 31.5t6 31.5t15.5 26t29.5 15q11 2 23.5 -2t22.5 -11.5t17 -18t7 -22.5v-25.5v-17t-0.5 -15.5t-0.5 -21q-2 -66 -2 -131.5t8 -130.5q3 -27 9 -56t24 -50q16 -19 41.5 -26.5t52 -4.5t50 15t36.5 32t20 47t10.5 56t5 57.5t2.5 52.5
q2 28 3 48t2 48q1 21 1 42t1 42zM508 751q0 -20 -10.5 -35t-24.5 -26q-19 -13 -30 -15.5t-31 3.5q-18 6 -28 21.5t-12.5 33.5t4.5 35t24 25q14 13 33 17t35.5 -1t28 -19.5t11.5 -38.5zM272 756q0 -16 -9.5 -31t-23.5 -25.5t-31.5 -14t-32.5 2.5q-19 7 -29.5 20.5t-12.5 29.5
t5 31.5t23 27.5q11 9 23 13q14 7 29.5 6t28.5 -9t21.5 -21t8.5 -30zM362 1081q22 11 41.5 7.5t32 -16.5t16 -33t-7.5 -41q-7 -14 -21.5 -24t-26.5 -19q-27 -21 -54.5 -42t-56.5 -39q-20 -12 -40.5 -10t-35.5 14t-20 31t7 41q7 12 15.5 19.5t19.5 15.5q23 18 38 29t28.5 20.5
t28 20t36.5 26.5z" />
    <glyph glyph-name="udieresisacute" unicode="&#x1d8;" horiz-adv-x="498" 
d="M476 78q9 -13 10.5 -30.5t-4 -33t-18 -25.5t-32.5 -9q-26 2 -42 18t-30 36q-39 -32 -80.5 -44.5t-81.5 -5.5t-75 33.5t-59 71.5q-22 42 -24.5 93t-1.5 97q0 16 1 31.5t2 32.5q1 13 1 25.5t1.5 23.5t6 22t13.5 21q12 13 29 15.5t32.5 -3.5t27 -18.5t12.5 -30.5
q2 -51 -2.5 -103t0.5 -102q2 -24 12.5 -49t33.5 -36q23 -10 46.5 1.5t38.5 27.5q7 8 13.5 17.5t14.5 16.5q-4 35 -5 70t0 70q0 19 1.5 41.5t8 43t19.5 36t37 19.5q11 2 21.5 -2t18.5 -11q14 -12 19 -27t5 -32t-2.5 -34.5t-3.5 -32.5q-2 -28 -3 -59t2 -62t11.5 -60t25.5 -53z
M451 579q0 -20 -10.5 -35t-24.5 -26q-19 -13 -30 -15.5t-31 3.5q-18 6 -28 21.5t-12.5 33.5t4.5 35t24 25q14 13 33 17t35.5 -1t28 -19.5t11.5 -38.5zM215 584q0 -16 -9.5 -31t-23.5 -25.5t-31.5 -14t-32.5 2.5q-19 7 -29.5 20.5t-12.5 29.5t5 31.5t23 27.5q11 9 23 13
q14 7 29.5 6t28.5 -9t21.5 -21t8.5 -30zM305 907q22 11 41.5 7.5t32 -16.5t16 -33t-7.5 -41q-7 -14 -21.5 -24t-26.5 -19q-27 -21 -54.5 -42t-56.5 -39q-20 -12 -40.5 -10t-35.5 14t-20 31t7 41q7 12 15.5 19.5t19.5 15.5q23 18 38 29t28.5 20.5t28 20t36.5 26.5z" />
    </font>
</defs>
</svg>
